{
.formatVersion = 3;
DisplayStrings = (
"æ"
);
axes = (
{
name = Weight;
tag = wght;
}
);
classes = (
{
code = "A.alt B.7 D.7 E.7 F.7 H.alt K.alt M.7 N.alt P.7 R.7.001 S.2 T.7 U.alt";
name = capsinit;
},
{
code = "A B D E F H K M N P R S T U";
name = decapsinit;
},
{
code = "a.7 b.44 e.8 g.77 h.44 i.7 j.7 k.7 m.7 n.7 o.77 q.2 r.7 s.7 t.7 u.005.7 v.7.001 x.002332 z.7 ampersand.77 exclam.7";
name = rulote;
},
{
code = "a b e g h i j k m n o q r s t u v x z ampersand exclam";
name = derulote;
},
{
code = "a.5 d.5 l.5 m.5 n.5 s.4 u.5 z.baja";
name = bajan;
},
{
code = "a d l m n s u z";
name = debajan;
},
{
code = "a.7.b b.4.acc e.8.acc g.77.acc h.44.acc i.7.acc j.7.acc k.7.acc m.7.acc n.7.acc o.77.acc s.7.acc t.7.acc u.005.acc v.7.acc w.7 z.7.acc";
name = rulotefat;
},
{
code = "a b e g h i j k m n o s t u v w z";
name = derulotefat;
},
{
code = "a.4 c.4 d.4 e.4 f.7 h.4 j.4 l.4 m.4 n.4 p.4 r.4 u.4 v.4 y.44 z.4";
name = encierran;
},
{
code = "a c d e f h j l m n p r u v y z";
name = deencierran;
},
{
code = "b.6 d.6 h.6 k.6 l.6 u.005 y.4";
name = encierranup;
},
{
code = "b d h k l u y";
name = deencierranup;
},
{
code = "a.7.more d.6.more g.7 h.6.more l.6.more m.7.more n.7.more o.7.001 p.4.more r.4.more t.7.more v.7.more y.1.7.more quotesingle.alt";
name = more;
},
{
code = "a d g h l m n o p r t v y quotesingle";
name = demore;
},
{
code = "a.8 g.7777 h.44 k.44 o.7 t.7.4 u.4.2 x.7 y.7";
name = otrorulote;
},
{
code = "a g h k o t u x y";
name = deotrorulote;
},
{
code = "a.9 d.9 e.999 h.9 i.9 k.9 l.9 m.9 n.9 r.sube t.9 u.9 v.sube w.sube y.1.sube";
name = gota;
},
{
code = "a d e h i k l m n r t u v w y";
name = degota;
},
{
code = "a.7.more.acc d.6.more.acc h.6.more.acc l.6.more.acc m.7.more.acc n.7.more.acc o.7.acc p.4.more.acc t.7.more.acc y.1.7.more.acc";
name = morefat;
},
{
code = "a d h l m n o p t y";
name = demorefat;
},
{
code = "a.8.acc g.777 k.44.acc r.4.4 y.4.acc b.new h.new l.new";
name = extra1;
},
{
code = "a g k r y b h l";
name = deextra1;
},
{

glyphs = (
{
color = (255, 153, 153, 255);
glyphname = a;
layers = (
{
anchors = (
{
name = top;
position = "{230, 577}";
},
{
name = bottom;
position = "{214, -77}";
}
);
guides = (
{
position = "{0, -77}";
}
);
hints = (
{
horizontal = 1;
place = (-6,43);
type = Stem;
},
{
horizontal = 1;
place = (250,217);
type = Stem;
},
{
place = (-121,192);
type = Stem;
},
{
place = (-88,208);
type = Stem;
},
{
place = (195,195);
type = Stem;
},
{
place = (195,248);
type = Stem;
}
);
layerId = "4B09473C-DE20-458D-B091-F76EF41CC662";
shapes = (
{
closed = 1;
nodes = (
(322,305,l),
(229,242,o),
(32,224,o),
(32,89,cs),
(32,22,o),
(85,-9,o),
(145,-9,cs),
(252,-9,o),
(299,69,o),
(319,168,c),
(319,101,ls),
(319,26,o),
(349,-9,o),
(402,-9,cs),
(444,-9,o),
(465,12,o),
(476,35,c),
(471,42,l),
(462,24,o),
(451,15,o),
(433,15,cs),
(397,15,o),
(392,50,o),
(392,106,cs),
(392,335,ls),
(392,424,o),
(353,500,o),
(235,500,cs),
(121,500,o),
(54,428,o),
(54,356,cs),
(54,326,o),
(66,306,o),
(95,306,cs),
(126,306,o),
(142,330,o),
(142,359,cs),
(142,386,o),
(128,411,o),
(116,422,c),
(137,465,o),
(174,490,o),
(224,490,cs),
(307,490,o),
(322,432,o),
(322,371,cs)
);
},
{
closed = 1;
nodes = (
(322,265,ls),
(322,173,o),
(296,28,o),
(184,28,cs),
(123,28,o),
(103,74,o),
(103,109,cs),
(103,204,o),
(234,250,o),
(322,293,c)
);
}
);
width = 472;
},
{
anchors = (
{
name = top;
position = "{270, 577}";
},
{
name = bottom;
position = "{271, -77}";
}
);
guides = (
{
position = "{0, -77}";
}
);
hints = (
{
horizontal = 1;
place = (-6,43);
type = Stem;
},
{
horizontal = 1;
place = (250,217);
type = Stem;
},
{
place = (-64,192);
type = Stem;
},
{
place = (-31,208);
type = Stem;
},
{
place = (252,195);
type = Stem;
},
{
place = (252,248);
type = Stem;
}
);
layerId = "EECBB25E-CCC9-4EB7-9066-53ACD40459CA";
shapes = (
{
closed = 1;
nodes = (
(319,301,l),
(209,236,o),
(18,221,o),
(18,96,cs),
(18,35,o),
(72,-9,o),
(148,-9,cs),
(242,-9,o),
(292,51,o),
(314,149,c),
(314,137,l),
(317,37,o),
(358,-9,o),
(439,-9,cs),
(482,-9,o),
(528,5,o),
(546,43,c),
(542,49,l),
(537,38,o),
(532,34,o),
(526,34,cs),
(513,34,o),
(509,52,o),
(509,110,cs),
(509,268,ls),
(509,399,o),
(468,500,o),
(283,500,cs),
(118,500,o),
(50,418,o),
(50,351,cs),
(50,299,o),
(78,266,o),
(126,266,cs),
(180,266,o),
(206,310,o),
(206,353,cs),
(206,388,o),
(190,422,o),
(157,437,c),
(168,464,o),
(203,489,o),
(242,489,cs),
(301,489,o),
(319,433,o),
(319,385,cs)
);
},
{
closed = 1;
nodes = (
(319,280,ls),
(319,140,o),
(281,49,o),
(240,49,cs),
(211,49,o),
(201,84,o),
(201,120,cs),
(201,200,o),
(260,257,o),
(319,290,c)
);
}
);
width = 560;
}
);
leftKerningGroup = _kern1;
rightKerningGroup = _kern1;
unicode = 97;
},
{
color = (153, 255, 154, 255);
glyphname = a.5;
layers = (
{
background = {
shapes = (
{
closed = 1;
nodes = (
(338,309,l),
(230,237,o),
(21,226,o),
(21,96,cs),
(21,19,o),
(92,-7,o),
(146,-7,cs),
(250,-7,o),
(302,57,o),
(323,163,c),
(328,163,l),
(328,159,o),
(327,155,o),
(327,151,c),
(515,16,o),
(510,41,o),
(510,110,cs),
(510,268,ls),
(510,402,o),
(470,499,o),
(284,499,cs),
(127,499,o),
(56,418,o),
(56,350,cs),
(56,298,o),
(84,265,o),
(132,265,cs),
(186,265,o),
(212,309,o),
(212,352,cs),
(212,387,o),
(196,421,o),
(163,436,c),
(174,463,o),
(208,488,o),
(250,488,cs),
(306,488,o),
(325,433,o),
(325,385,cs),
(325,275,ls),
(325,135,o),
(283,49,o),
(238,49,cs),
(209,49,o),
(199,84,o),
(199,120,cs),
(199,208,o),
(275,268,o),
(344,299,c)
);
},
{
closed = 1;
nodes = (
(327,171,l),
(327,63,ls),
(327,-173,o),
(453,-420,o),
(764,-420,cs),
(942,-420,o),
(1024,-279,o),
(1024,-193,cs),
(1024,-123,o),
(983,-55,o),
(936,-47,c),
(935,-52,l),
(977,-62,o),
(1018,-125,o),
(1018,-193,cs),
(1018,-277,o),
(935,-411,o),
(765,-411,cs),
(515,-411,o),
(510,-168,o),
(510,63,cs),
(510,171,l)
);
}
);
};
layerId = "4B09473C-DE20-458D-B091-F76EF41CC662";
leftMetricsKey = a;
shapes = (
{
closed = 1;
nodes = (
(322,178,l),
(322,69,ls),
(322,-108,o),
(415,-230,o),
(575,-230,cs),
(651,-230,o),
(733,-202,o),
(758,-139,c),
(753,-134,l),
(730,-191,o),
(655,-221,o),
(591,-221,cs),
(482,-221,o),
(392,-144,o),
(392,31,cs),
(392,335,ls),
(392,424,o),
(353,500,o),
(235,500,cs),
(121,500,o),
(54,428,o),
(54,356,cs),
(54,326,o),
(66,306,o),
(95,306,cs),
(126,306,o),
(142,330,o),
(142,359,cs),
(142,386,o),
(128,411,o),
(116,422,c),
(137,465,o),
(174,490,o),
(224,490,cs),
(307,490,o),
(322,432,o),
(322,371,cs),
(322,305,l),
(229,242,o),
(32,224,o),
(32,89,cs),
(32,19,o),
(90,-9,o),
(133,-9,cs),
(254,-9,o),
(301,71,o),
(321,178,c)
);
},
{
closed = 1;
nodes = (
(322,265,ls),
(322,173,o),
(296,28,o),
(184,28,cs),
(123,28,o),
(103,74,o),
(103,109,cs),
(103,204,o),
(234,250,o),
(322,293,c)
);
}
);
width = 468;
},
{
layerId = "EECBB25E-CCC9-4EB7-9066-53ACD40459CA";
shapes = (
{
closed = 1;
nodes = (
(321,163,l),
(321,129,ls),
(321,-52,o),
(363,-239,o),
(677,-239,cs),
(765,-239,o),
(860,-208,o),
(889,-139,c),
(884,-134,l),
(861,-192,o),
(785,-222,o),
(720,-222,cs),
(612,-222,o),
(504,-145,o),
(504,31,cs),
(504,268,ls),
(504,403,o),
(464,500,o),
(278,500,cs),
(121,500,o),
(50,418,o),
(50,351,cs),
(50,299,o),
(78,266,o),
(126,266,cs),
(180,266,o),
(206,310,o),
(206,353,cs),
(206,388,o),
(190,422,o),
(157,437,c),
(168,464,o),
(202,489,o),
(244,489,cs),
(300,489,o),
(319,433,o),
(319,385,cs),
(319,301,l),
(210,236,o),
(21,221,o),
(21,96,cs),
(21,35,o),
(72,-7,o),
(146,-7,cs),
(246,-7,o),
(297,57,o),
(317,163,c)
);
},
{
closed = 1;
nodes = (
(319,275,ls),
(319,135,o),
(280,49,o),
(238,49,cs),
(209,49,o),
(199,84,o),
(199,120,cs),
(199,200,o),
(259,257,o),
(319,290,c)
);
}
);
width = 560;
}
);
leftKerningGroup = _kern1;
rightKerningGroup = _kern1;
},
{
color = (153, 255, 154, 255);
glyphname = a.7;
layers = (
{
guides = (
{
angle = 90;
position = "{994, 0}";
}
);
layerId = "4B09473C-DE20-458D-B091-F76EF41CC662";
shapes = (
{
closed = 1;
nodes = (
(143,386,o),
(129,411,o),
(117,422,c),
(138,465,o),
(175,490,o),
(225,490,cs),
(308,490,o),
(323,432,o),
(323,371,cs),
(323,305,l),
(236,247,o),
(33,223,o),
(33,89,cs),
(33,19,o),
(91,-9,o),
(134,-9,cs),
(257,-9,o),
(300,71,o),
(321,178,c),
(321,168,l),
(320,155,l),
(321,-177,o),
(570,-393,o),
(944,-393,cs),
(1254,-393,o),
(1587,-153,o),
(1587,201,cs),
(1587,526,o),
(1322,789,o),
(997,789,cs),
(750,789,o),
(538,646,o),
(335,452,c),
(340,447,l),
(543,640,o),
(753,783,o),
(997,783,cs),
(1318,783,o),
(1581,522,o),
(1581,201,cs),
(1581,-145,o),
(1254,-383,o),
(963,-383,c),
(650,-382,o),
(393,-198,o),
(393,144,cs),
(393,335,ls),
(393,438,o),
(341,500,o),
(236,500,cs),
(122,500,o),
(55,428,o),
(55,356,cs),
(55,326,o),
(67,306,o),
(96,306,cs),
(127,306,o),
(143,330,o),
(143,359,cs)
);
},
{
closed = 1;
nodes = (
(47,134,l),
(-283,-232,o),
(-629,-616,o),
(-1111,-616,cs),
(-1587,-616,o),
(-1974,-229,o),
(-1974,247,cs),
(-1974,723,o),
(-1587,1110,o),
(-1111,1110,cs),
(-900,1110,o),
(-706,1034,o),
(-556,907,c),
(-551,911,l),
(-702,1039,o),
(-898,1116,o),
(-1111,1116,cs),
(-1591,1116,o),
(-1980,727,o),
(-1980,247,cs),
(-1980,-233,o),
(-1591,-622,o),
(-1111,-622,cs),
(-631,-622,o),
(-285,-244,o),
(44,119,c)
);
},
{
closed = 1;
nodes = (
(323,265,ls),
(323,173,o),
(297,28,o),
(185,28,cs),
(124,28,o),
(104,74,o),
(104,109,cs),
(104,204,o),
(235,250,o),
(323,293,c)
);
}
);
width = 462;
},
{
guides = (
{
angle = 90;
position = "{1016, 0}";
}
);
layerId = "EECBB25E-CCC9-4EB7-9066-53ACD40459CA";
shapes = (
{
closed = 1;
nodes = (
(212,388,o),
(196,422,o),
(163,437,c),
(174,464,o),
(208,489,o),
(250,489,cs),
(306,489,o),
(325,433,o),
(325,385,cs),
(325,301,l),
(217,237,o),
(27,221,o),
(27,99,cs),
(27,27,o),
(86,-7,o),
(152,-7,cs),
(252,-7,o),
(303,57,o),
(323,163,c),
(328,163,l),
(327,151,l),
(327,-213,o),
(632,-386,o),
(1016,-386,cs),
(1341,-386,o),
(1604,-124,o),
(1604,201,cs),
(1604,526,o),
(1341,789,o),
(1016,789,cs),
(778,789,o),
(573,658,o),
(377,475,c),
(386,472,l),
(581,653,o),
(782,783,o),
(1016,783,cs),
(1337,783,o),
(1598,522,o),
(1598,201,cs),
(1598,-120,o),
(1337,-380,o),
(1016,-380,cs),
(744,-380,o),
(510,-273,o),
(510,134,cs),
(510,268,ls),
(510,429,o),
(448,500,o),
(284,500,cs),
(127,500,o),
(56,418,o),
(56,351,cs),
(56,299,o),
(84,266,o),
(132,266,cs),
(186,266,o),
(212,310,o),
(212,353,cs)
);
},
{
closed = 1;
nodes = (
(37,111,l),
(-289,-248,o),
(-633,-616,o),
(-1107,-616,cs),
(-1583,-616,o),
(-1970,-229,o),
(-1970,247,cs),
(-1970,723,o),
(-1583,1110,o),
(-1107,1110,cs),
(-896,1110,o),
(-702,1034,o),
(-552,907,c),
(-547,911,l),
(-698,1039,o),
(-894,1116,o),
(-1107,1116,cs),
(-1587,1116,o),
(-1976,727,o),
(-1976,247,cs),
(-1976,-233,o),
(-1587,-622,o),
(-1107,-622,cs),
(-633,-622,o),
(-289,-257,o),
(37,101,c)
);
},
{
closed = 1;
nodes = (
(325,275,ls),
(325,135,o),
(286,49,o),
(244,49,cs),
(215,49,o),
(205,84,o),
(205,120,cs),
(205,200,o),
(265,257,o),
(325,290,c)
);
}
);
width = 564;
}
);
leftKerningGroup = _kern1;
rightKerningGroup = _kern1;
},
{
color = (153, 255, 154, 255);
glyphname = a.7.b;
layers = (
{
anchors = (
{
name = top;
position = "{236, 577}";
}
);
background = {
shapes = (
{
closed = 1;
nodes = (
(337,151,l),
(337,-193,o),
(602,-388,o),
(952,-388,cs),
(1271,-388,o),
(1600,-179,o),
(1604,201,c),
(1616,550,o),
(1341,804,o),
(1016,804,cs),
(770,804,o),
(559,672,o),
(357,456,c),
(362,452,l),
(563,643,o),
(774,758,o),
(1016,758,cs),
(1337,758,o),
(1610,524,o),
(1598,201,c),
(1593,-173,o),
(1265,-382,o),
(952,-382,cs),
(674,-382,o),
(412,-217,o),
(412,144,c)
);
},
{
closed = 1;
nodes = (
(347,308,l),
(256,243,o),
(32,226,o),
(32,89,cs),
(32,19,o),
(90,-9,o),
(133,-9,cs),
(254,-9,o),
(316,82,o),
(340,188,c),
(337,202,l),
(337,200,o),
(337,173,o),
(337,151,c),
(412,144,l),
(412,335,ls),
(412,424,o),
(380,500,o),
(247,500,cs),
(133,500,o),
(60,428,o),
(60,356,cs),
(60,326,o),
(72,306,o),
(101,306,cs),
(132,306,o),
(148,330,o),
(148,359,cs),
(148,386,o),
(134,411,o),
(122,422,c),
(143,465,o),
(186,490,o),
(236,490,cs),
(323,490,o),
(342,432,o),
(342,371,cs),
(342,265,ls),
(342,173,o),
(295,28,o),
(183,28,cs),
(122,28,o),
(102,74,o),
(102,109,cs),
(102,208,o),
(266,254,o),
(353,298,c)
);
},
{
closed = 1;
nodes = (
(51,128,l),
(-278,-217,o),
(-627,-596,o),
(-1107,-596,cs),
(-1583,-596,o),
(-1970,-207,o),
(-1970,247,cs),
(-1970,723,o),
(-1583,1110,o),
(-1107,1110,cs),
(-896,1110,o),
(-702,1034,o),
(-552,907,c),
(-547,911,l),
(-698,1039,o),
(-894,1116,o),
(-1107,1116,cs),
(-1587,1116,o),
(-1976,727,o),
(-1976,247,cs),
(-1976,-255,o),
(-1587,-666,o),
(-1107,-666,cs),
(-623,-666,o),
(-275,-258,o),
(57,128,c)
);
},
{
closed = 1;
nodes = (
(329,305,l),
(238,240,o),
(32,226,o),
(32,89,cs),
(32,22,o),
(85,-9,o),
(145,-9,cs),
(256,-9,o),
(302,75,o),
(321,178,c),
(319,186,l),
(319,182,o),
(319,105,o),
(319,101,cs),
(319,26,o),
(349,-9,o),
(402,-9,cs),
(444,-9,o),
(465,12,o),
(476,35,c),
(472,38,l),
(463,20,o),
(451,11,o),
(433,11,cs),
(397,11,o),
(392,48,o),
(392,106,cs),
(392,335,ls),
(392,428,o),
(353,500,o),
(235,500,cs),
(121,500,o),
(54,431,o),
(54,356,cs),
(54,326,o),
(66,306,o),
(95,306,cs),
(126,306,o),
(142,330,o),
(142,359,cs),
(142,386,o),
(128,411,o),
(116,422,c),
(137,469,o),
(174,495,o),
(224,495,cs),
(307,495,o),
(322,435,o),
(322,371,cs),
(322,252,ls),
(322,160,o),
(296,28,o),
(184,28,cs),
(123,28,o),
(103,74,o),
(103,109,cs),
(103,208,o),
(245,253,o),
(332,297,c)
);
}
);
};
guides = (
{
position = "{0, -536}";
}
);
layerId = "4B09473C-DE20-458D-B091-F76EF41CC662";
shapes = (
{
closed = 1;
nodes = (
(33,19,o),
(91,-9,o),
(134,-9,cs),
(257,-9,o),
(300,71,o),
(321,178,c),
(320,166,l),
(320,155,ls),
(320,-191,o),
(584,-388,o),
(933,-388,cs),
(1252,-388,o),
(1581,-179,o),
(1585,201,c),
(1597,550,o),
(1322,804,o),
(997,804,cs),
(749,804,o),
(538,670,o),
(334,451,c),
(339,448,l),
(541,641,o),
(753,758,o),
(997,758,cs),
(1318,758,o),
(1591,524,o),
(1579,201,c),
(1574,-173,o),
(1246,-382,o),
(933,-382,cs),
(655,-382,o),
(393,-217,o),
(393,144,cs),
(393,335,ls),
(393,438,o),
(341,500,o),
(236,500,cs),
(122,500,o),
(55,428,o),
(55,356,cs),
(55,326,o),
(67,306,o),
(96,306,cs),
(127,306,o),
(143,330,o),
(143,359,cs),
(143,386,o),
(129,411,o),
(117,422,c),
(138,465,o),
(175,490,o),
(225,490,cs),
(308,490,o),
(323,432,o),
(323,371,cs),
(323,305,l),
(237,247,o),
(33,223,o),
(33,89,cs)
);
},
{
closed = 1;
nodes = (
(-547,911,l),
(-698,1039,o),
(-894,1116,o),
(-1107,1116,cs),
(-1587,1116,o),
(-1976,727,o),
(-1976,247,cs),
(-1976,-255,o),
(-1587,-666,o),
(-1107,-666,cs),
(-629,-666,o),
(-284,-269,o),
(44,113,c),
(46,122,l),
(-282,-221,o),
(-630,-596,o),
(-1107,-596,cs),
(-1583,-596,o),
(-1970,-207,o),
(-1970,247,cs),
(-1970,723,o),
(-1583,1110,o),
(-1107,1110,cs),
(-896,1110,o),
(-702,1034,o),
(-552,907,c)
);
},
{
closed = 1;
nodes = (
(323,265,ls),
(323,173,o),
(297,28,o),
(185,28,cs),
(124,28,o),
(104,74,o),
(104,109,cs),
(104,204,o),
(235,250,o),
(323,293,c)
);
}
);
width = 462;
},
{
anchors = (
{
name = top;
position = "{285, 577}";
}
);
guides = (
{
position = "{0, -536}";
}
);
layerId = "EECBB25E-CCC9-4EB7-9066-53ACD40459CA";
shapes = (
{
closed = 1;
nodes = (
(25,28,o),
(82,-7,o),
(152,-7,cs),
(252,-7,o),
(303,57,o),
(323,163,c),
(328,163,l),
(327,151,l),
(327,-219,o),
(628,-396,o),
(1006,-396,cs),
(1337,-396,o),
(1608,-132,o),
(1608,216,cs),
(1608,565,o),
(1341,820,o),
(1016,820,cs),
(778,820,o),
(573,678,o),
(377,474,c),
(386,472,l),
(580,650,o),
(782,760,o),
(1016,760,cs),
(1337,760,o),
(1598,522,o),
(1598,201,cs),
(1598,-120,o),
(1348,-380,o),
(1016,-380,cs),
(744,-380,o),
(510,-273,o),
(510,134,cs),
(510,268,ls),
(510,428,o),
(448,500,o),
(284,500,cs),
(127,500,o),
(56,418,o),
(56,351,cs),
(56,299,o),
(84,266,o),
(132,266,cs),
(186,266,o),
(212,310,o),
(212,353,cs),
(212,388,o),
(196,422,o),
(163,437,c),
(174,464,o),
(208,489,o),
(250,489,cs),
(306,489,o),
(325,433,o),
(325,385,cs),
(325,301,l),
(218,237,o),
(31,221,o),
(27,102,cs)
);
},
{
closed = 1;
nodes = (
(-547,911,l),
(-698,1039,o),
(-893,1116,o),
(-1108,1116,cs),
(-1587,1116,o),
(-1976,738,o),
(-1976,237,cs),
(-1976,-264,o),
(-1587,-702,o),
(-1119,-702,cs),
(-634,-702,o),
(-265,-251,o),
(36,101,c),
(38,113,l),
(-280,-205,o),
(-630,-509,o),
(-1103,-509,cs),
(-1584,-509,o),
(-1966,-189,o),
(-1966,264,cs),
(-1966,717,o),
(-1583,1110,o),
(-1106,1110,cs),
(-891,1110,o),
(-697,1030,o),
(-552,907,c)
);
},
{
closed = 1;
nodes = (
(325,275,ls),
(325,135,o),
(286,49,o),
(244,49,cs),
(215,49,o),
(205,84,o),
(205,120,cs),
(205,200,o),
(265,257,o),
(325,290,c)
);
}
);
width = 564;
}
);
leftKerningGroup = _kern1;
rightKerningGroup = _kern1;
},
{
color = (153, 255, 154, 255);
glyphname = a.7.more;
layers = (
{
background = {
shapes = (
{
closed = 1;
nodes = (
(-623,-622,o),
(-275,-238,o),
(57,128,c),
(47,128,l),
(-282,-236,o),
(-627,-616,o),
(-1107,-616,cs),
(-1583,-616,o),
(-1970,-229,o),
(-1970,247,cs),
(-1970,723,o),
(-1583,1110,o),
(-1107,1110,cs),
(-685,1110,o),
(-414,868,o),
(-32,868,cs),
(139,868,o),
(293,933,o),
(396,1046,c),
(388,1048,l),
(286,938,o),
(136,874,o),
(-32,874,cs),
(-411,874,o),
(-677,1116,o),
(-1107,1116,cs),
(-1587,1116,o),
(-1976,727,o),
(-1976,247,cs),
(-1976,-233,o),
(-1587,-622,o),
(-1107,-622,cs)
);
}
);
};
layerId = "4B09473C-DE20-458D-B091-F76EF41CC662";
shapes = (
{
closed = 1;
nodes = (
(323,305,l),
(237,247,o),
(33,223,o),
(33,89,cs),
(33,19,o),
(91,-9,o),
(134,-9,cs),
(257,-9,o),
(300,71,o),
(321,178,c),
(320,166,l),
(320,155,l),
(321,-177,o),
(570,-393,o),
(944,-393,cs),
(1254,-393,o),
(1587,-153,o),
(1587,201,cs),
(1587,526,o),
(1322,789,o),
(997,789,cs),
(750,789,o),
(538,646,o),
(335,452,c),
(340,447,l),
(543,640,o),
(753,783,o),
(997,783,cs),
(1318,783,o),
(1581,522,o),
(1581,201,cs),
(1581,-145,o),
(1254,-383,o),
(963,-383,c),
(650,-382,o),
(393,-198,o),
(393,144,cs),
(393,335,ls),
(393,438,o),
(341,500,o),
(236,500,cs),
(122,500,o),
(55,428,o),
(55,356,cs),
(55,326,o),
(67,306,o),
(96,306,cs),
(127,306,o),
(143,330,o),
(143,359,cs),
(143,386,o),
(129,411,o),
(117,422,c),
(138,465,o),
(175,490,o),
(225,490,cs),
(308,490,o),
(323,432,o),
(323,371,cs)
);
},
{
closed = 1;
nodes = (
(46,128,l),
(-283,-237,o),
(-627,-616,o),
(-1107,-616,cs),
(-1583,-616,o),
(-1970,-229,o),
(-1970,247,cs),
(-1970,723,o),
(-1583,1110,o),
(-1107,1110,cs),
(-685,1110,o),
(-414,868,o),
(-32,868,cs),
(139,868,o),
(293,933,o),
(396,1046,c),
(388,1048,l),
(286,938,o),
(136,874,o),
(-32,874,cs),
(-411,874,o),
(-677,1116,o),
(-1107,1116,cs),
(-1587,1116,o),
(-1976,727,o),
(-1976,247,cs),
(-1976,-233,o),
(-1587,-622,o),
(-1107,-622,cs),
(-629,-622,o),
(-284,-248,o),
(44,114,c)
);
},
{
closed = 1;
nodes = (
(323,265,ls),
(323,173,o),
(297,28,o),
(185,28,cs),
(124,28,o),
(104,74,o),
(104,109,cs),
(104,204,o),
(235,250,o),
(323,293,c)
);
}
);
width = 462;
},
{
layerId = "EECBB25E-CCC9-4EB7-9066-53ACD40459CA";
shapes = (
{
closed = 1;
nodes = (
(325,301,l),
(217,237,o),
(27,211,o),
(27,94,cs),
(27,36,o),
(81,-7,o),
(152,-7,cs),
(252,-7,o),
(303,57,o),
(323,163,c),
(328,163,l),
(327,151,l),
(327,-213,o),
(632,-386,o),
(1016,-386,cs),
(1341,-386,o),
(1604,-124,o),
(1604,201,cs),
(1604,526,o),
(1341,789,o),
(1016,789,cs),
(778,789,o),
(573,658,o),
(377,475,c),
(386,472,l),
(581,653,o),
(782,783,o),
(1016,783,cs),
(1337,783,o),
(1598,522,o),
(1598,201,cs),
(1598,-120,o),
(1337,-380,o),
(1016,-380,cs),
(744,-380,o),
(510,-273,o),
(510,134,cs),
(510,268,ls),
(510,429,o),
(448,500,o),
(284,500,cs),
(127,500,o),
(56,418,o),
(56,351,cs),
(56,299,o),
(84,266,o),
(132,266,cs),
(186,266,o),
(212,310,o),
(212,353,cs),
(212,388,o),
(196,422,o),
(163,437,c),
(174,464,o),
(208,489,o),
(250,489,cs),
(306,489,o),
(325,433,o),
(325,385,cs)
);
},
{
closed = 1;
nodes = (
(37,111,l),
(-289,-248,o),
(-633,-616,o),
(-1107,-616,cs),
(-1583,-616,o),
(-1970,-229,o),
(-1970,247,cs),
(-1970,723,o),
(-1583,1110,o),
(-1107,1110,cs),
(-685,1110,o),
(-414,868,o),
(-32,868,cs),
(139,868,o),
(293,933,o),
(396,1046,c),
(388,1048,l),
(286,938,o),
(136,874,o),
(-32,874,cs),
(-411,874,o),
(-677,1116,o),
(-1107,1116,cs),
(-1587,1116,o),
(-1976,727,o),
(-1976,247,cs),
(-1976,-233,o),
(-1587,-622,o),
(-1107,-622,cs),
(-633,-622,o),
(-289,-257,o),
(37,101,c)
);
},
{
closed = 1;
nodes = (
(325,275,ls),
(325,135,o),
(286,49,o),
(244,49,cs),
(215,49,o),
(205,84,o),
(205,120,cs),
(205,200,o),
(265,257,o),
(325,290,c)
);
}
);
width = 564;
}
);
leftKerningGroup = _kern1;
rightKerningGroup = _kern1;
},
{
color = (153, 255, 154, 255);
glyphname = a.7.more.acc;
layers = (
{
background = {
shapes = (
{
closed = 1;
nodes = (
(1273,-393,o),
(1606,-153,o),
(1606,201,cs),
(1606,544,o),
(1341,822,o),
(1016,822,cs),
(770,822,o),
(559,667,o),
(357,455,c),
(365,452,l),
(566,643,o),
(774,783,o),
(1016,783,cs),
(1337,783,o),
(1600,522,o),
(1600,201,cs),
(1600,-145,o),
(1273,-383,o),
(982,-383,cs),
(669,-382,o),
(412,-198,o),
(412,144,c),
(337,151,l),
(337,-179,o),
(588,-393,o),
(963,-393,cs)
);
},
{
closed = 1;
nodes = (
(-623,-654,o),
(-275,-253,o),
(57,128,c),
(47,128,l),
(-282,-215,o),
(-627,-564,o),
(-1107,-564,cs),
(-1583,-564,o),
(-1970,-205,o),
(-1970,247,cs),
(-1970,723,o),
(-1583,1110,o),
(-1107,1110,cs),
(-685,1110,o),
(-414,868,o),
(-32,868,cs),
(139,868,o),
(293,933,o),
(396,1046,c),
(388,1048,l),
(286,938,o),
(136,874,o),
(-32,874,cs),
(-411,874,o),
(-677,1116,o),
(-1107,1116,cs),
(-1587,1116,o),
(-1976,727,o),
(-1976,247,cs),
(-1976,-250,o),
(-1586,-654,o),
(-1107,-654,cs)
);
},
{
closed = 1;
nodes = (
(347,308,l),
(256,243,o),
(32,226,o),
(32,89,cs),
(32,19,o),
(90,-9,o),
(133,-9,cs),
(254,-9,o),
(316,82,o),
(340,188,c),
(337,202,l),
(337,200,o),
(337,173,o),
(337,151,c),
(412,144,l),
(412,335,ls),
(412,424,o),
(380,500,o),
(247,500,cs),
(133,500,o),
(60,428,o),
(60,356,cs),
(60,326,o),
(72,306,o),
(101,306,cs),
(132,306,o),
(148,330,o),
(148,359,cs),
(148,386,o),
(134,411,o),
(122,422,c),
(143,465,o),
(186,490,o),
(236,490,cs),
(320,490,o),
(342,432,o),
(342,371,cs),
(342,265,ls),
(342,173,o),
(295,28,o),
(183,28,cs),
(122,28,o),
(102,74,o),
(102,109,cs),
(102,208,o),
(266,254,o),
(353,298,c)
);
}
);
};
layerId = "4B09473C-DE20-458D-B091-F76EF41CC662";
shapes = (
{
closed = 1;
nodes = (
(323,305,l),
(302,291,o),
(273,278,o),
(243,264,cs),
(149,223,o),
(33,179,o),
(33,89,cs),
(33,19,o),
(91,-9,o),
(134,-9,cs),
(257,-9,o),
(300,71,o),
(321,178,c),
(320,166,l),
(320,155,ls),
(320,-177,o),
(570,-393,o),
(944,-393,cs),
(1254,-393,o),
(1587,-153,o),
(1587,201,cs),
(1587,544,o),
(1322,822,o),
(997,822,cs),
(749,822,o),
(538,665,o),
(334,452,c),
(340,447,l),
(543,640,o),
(753,783,o),
(997,783,cs),
(1318,783,o),
(1581,522,o),
(1581,201,cs),
(1581,-145,o),
(1254,-383,o),
(963,-383,c),
(650,-382,o),
(393,-198,o),
(393,144,cs),
(393,335,ls),
(393,438,o),
(341,500,o),
(236,500,cs),
(122,500,o),
(55,428,o),
(55,356,cs),
(55,326,o),
(67,306,o),
(96,306,cs),
(127,306,o),
(143,330,o),
(143,359,cs),
(143,386,o),
(129,411,o),
(117,422,c),
(138,465,o),
(175,490,o),
(225,490,cs),
(308,490,o),
(323,432,o),
(323,371,cs)
);
},
{
closed = 1;
nodes = (
(47,128,l),
(-283,-215,o),
(-627,-564,o),
(-1107,-564,cs),
(-1583,-564,o),
(-1970,-205,o),
(-1970,247,cs),
(-1970,723,o),
(-1583,1110,o),
(-1107,1110,cs),
(-685,1110,o),
(-414,868,o),
(-32,868,cs),
(139,868,o),
(293,933,o),
(396,1046,c),
(388,1048,l),
(286,938,o),
(136,874,o),
(-32,874,cs),
(-411,874,o),
(-677,1116,o),
(-1107,1116,cs),
(-1587,1116,o),
(-1976,727,o),
(-1976,247,cs),
(-1976,-250,o),
(-1586,-654,o),
(-1107,-654,cs),
(-629,-654,o),
(-284,-264,o),
(44,113,c)
);
},
{
closed = 1;
nodes = (
(323,265,ls),
(323,173,o),
(297,28,o),
(185,28,cs),
(124,28,o),
(104,74,o),
(104,109,cs),
(104,204,o),
(235,250,o),
(323,293,c)
);
}
);
width = 462;
},
{
layerId = "EECBB25E-CCC9-4EB7-9066-53ACD40459CA";
shapes = (
{
closed = 1;
nodes = (
(325,301,l),
(294,283,o),
(261,270,o),
(228,258,cs),
(156,231,o),
(26,195,o),
(26,95,cs),
(26,35,o),
(78,-7,o),
(152,-7,cs),
(252,-7,o),
(303,57,o),
(323,163,c),
(328,163,l),
(327,151,l),
(327,-213,o),
(632,-386,o),
(1016,-386,cs),
(1341,-386,o),
(1604,-124,o),
(1604,201,cs),
(1604,539,o),
(1341,823,o),
(1016,823,cs),
(777,823,o),
(572,672,o),
(375,474,c),
(386,472,l),
(581,653,o),
(782,783,o),
(1016,783,cs),
(1337,783,o),
(1598,522,o),
(1598,201,cs),
(1598,-120,o),
(1337,-380,o),
(1016,-380,cs),
(744,-380,o),
(510,-273,o),
(510,134,cs),
(510,268,ls),
(510,434,o),
(442,500,o),
(284,500,cs),
(127,500,o),
(56,418,o),
(56,351,cs),
(56,299,o),
(84,266,o),
(132,266,cs),
(186,266,o),
(212,310,o),
(212,353,cs),
(212,388,o),
(196,422,o),
(163,437,c),
(174,464,o),
(208,489,o),
(250,489,cs),
(306,489,o),
(325,433,o),
(325,385,cs)
);
},
{
closed = 1;
nodes = (
(38,113,l),
(-288,-212,o),
(-633,-544,o),
(-1107,-544,cs),
(-1583,-544,o),
(-1970,-189,o),
(-1970,247,cs),
(-1970,723,o),
(-1583,1110,o),
(-1107,1110,cs),
(-685,1110,o),
(-414,868,o),
(-32,868,cs),
(139,868,o),
(293,933,o),
(396,1046,c),
(388,1048,l),
(286,938,o),
(136,874,o),
(-32,874,cs),
(-411,874,o),
(-677,1116,o),
(-1107,1116,cs),
(-1587,1116,o),
(-1976,727,o),
(-1976,247,cs),
(-1976,-262,o),
(-1587,-674,o),
(-1107,-674,cs),
(-633,-674,o),
(-289,-284,o),
(37,98,c)
);
},
{
closed = 1;
nodes = (
(325,275,ls),
(325,135,o),
(286,49,o),
(244,49,cs),
(215,49,o),
(205,84,o),
(205,120,cs),
(205,200,o),
(265,257,o),
(325,290,c)
);
}
);
width = 564;
}
);
leftKerningGroup = _kern1;
rightKerningGroup = _kern1;
},
{
color = (153, 255, 154, 255);
glyphname = a.4;
layers = (
{
background = {
shapes = (
{
closed = 1;
nodes = (
(338,309,l),
(228,237,o),
(16,226,o),
(16,96,cs),
(16,19,o),
(90,-9,o),
(146,-9,cs),
(250,-9,o),
(302,57,o),
(323,163,c),
(328,163,l),
(328,159,o),
(327,155,o),
(327,151,c),
(515,138,l),
(515,268,ls),
(515,402,o),
(474,499,o),
(284,499,cs),
(127,499,o),
(56,418,o),
(56,350,cs),
(56,298,o),
(84,265,o),
(132,265,cs),
(186,265,o),
(212,309,o),
(212,352,cs),
(212,387,o),
(196,421,o),
(163,436,c),
(174,463,o),
(208,488,o),
(250,488,cs),
(306,488,o),
(325,433,o),
(325,385,cs),
(325,275,ls),
(325,135,o),
(283,49,o),
(238,49,cs),
(209,49,o),
(199,84,o),
(199,120,cs),
(199,208,o),
(275,268,o),
(344,299,c)
);
},
{
closed = 1;
nodes = (
(342,290,l),
(337,99,l),
(337,-231,o),
(629,-413,o),
(971,-413,cs),
(1314,-413,o),
(1591,-136,o),
(1591,207,cs),
(1591,544,o),
(1318,817,o),
(981,817,cs),
(823,817,o),
(679,757,o),
(571,659,c),
(577,655,l),
(684,752,o),
(826,811,o),
(981,811,cs),
(1314,811,o),
(1585,540,o),
(1585,207,cs),
(1585,-126,o),
(1314,-397,o),
(981,-397,cs),
(684,-397,o),
(414,-231,o),
(412,138,c),
(393,258,l)
);
}
);
};
layerId = "4B09473C-DE20-458D-B091-F76EF41CC662";
leftMetricsKey = a;
shapes = (
{
closed = 1;
nodes = (
(322,305,l),
(229,242,o),
(32,224,o),
(32,89,cs),
(32,19,o),
(90,-9,o),
(133,-9,cs),
(250,-9,o),
(298,66,o),
(319,168,c),
(319,114,ls),
(319,-254,o),
(584,-414,o),
(910,-414,cs),
(1263,-414,o),
(1571,-161,o),
(1571,207,cs),
(1571,544,o),
(1298,817,o),
(961,817,cs),
(803,817,o),
(659,757,o),
(551,659,c),
(557,655,l),
(664,752,o),
(806,811,o),
(961,811,cs),
(1294,811,o),
(1565,540,o),
(1565,207,cs),
(1565,-148,o),
(1264,-403,o),
(921,-403,cs),
(640,-403,o),
(392,-232,o),
(392,109,cs),
(392,335,ls),
(392,424,o),
(353,500,o),
(235,500,cs),
(121,500,o),
(54,428,o),
(54,356,cs),
(54,326,o),
(66,306,o),
(95,306,cs),
(126,306,o),
(142,330,o),
(142,359,cs),
(142,386,o),
(128,411,o),
(116,422,c),
(137,465,o),
(174,490,o),
(224,490,cs),
(307,490,o),
(322,432,o),
(322,371,cs)
);
},
{
closed = 1;
nodes = (
(322,265,ls),
(322,173,o),
(296,28,o),
(184,28,cs),
(123,28,o),
(103,74,o),
(103,109,cs),
(103,204,o),
(234,250,o),
(322,293,c)
);
}
);
width = 463;
},
{
layerId = "EECBB25E-CCC9-4EB7-9066-53ACD40459CA";
shapes = (
{
closed = 1;
nodes = (
(321,301,l),
(210,236,o),
(18,221,o),
(18,96,cs),
(18,35,o),
(72,-9,o),
(148,-9,cs),
(248,-9,o),
(299,57,o),
(319,163,c),
(321,156,l),
(333,-199,o),
(646,-413,o),
(1020,-413,cs),
(1363,-413,o),
(1640,-136,o),
(1640,207,cs),
(1640,544,o),
(1367,817,o),
(1030,817,cs),
(872,817,o),
(728,757,o),
(620,659,c),
(626,655,l),
(733,752,o),
(875,811,o),
(1030,811,cs),
(1363,811,o),
(1634,540,o),
(1634,207,cs),
(1634,-126,o),
(1363,-397,o),
(1030,-397,cs),
(759,-397,o),
(511,-231,o),
(511,138,cs),
(511,268,ls),
(511,403,o),
(470,500,o),
(280,500,cs),
(123,500,o),
(52,418,o),
(52,351,cs),
(52,299,o),
(80,266,o),
(128,266,cs),
(182,266,o),
(208,310,o),
(208,353,cs),
(208,388,o),
(192,422,o),
(159,437,c),
(170,464,o),
(204,489,o),
(246,489,cs),
(302,489,o),
(321,433,o),
(321,385,cs)
);
},
{
closed = 1;
nodes = (
(321,275,ls),
(321,135,o),
(282,49,o),
(240,49,cs),
(211,49,o),
(201,84,o),
(201,120,cs),
(201,200,o),
(261,257,o),
(321,290,c)
);
}
);
width = 565;
}
);
leftKerningGroup = _kern1;
rightKerningGroup = _kern1;
},
{
color = (153, 255, 154, 255);
glyphname = a.8;
layers = (
{
layerId = "4B09473C-DE20-458D-B091-F76EF41CC662";
rightMetricsKey = "=n-2";
shapes = (
{
closed = 1;
nodes = (
(-1011,628,l),
(-1125,722,o),
(-1272,779,o),
(-1431,779,cs),
(-1794,779,o),
(-2087,485,o),
(-2087,119,cs),
(-2087,-242,o),
(-1803,-536,o),
(-1409,-536,cs),
(-1031,-536,o),
(-738,-280,o),
(-470,-23,cs),
(-212,224,o),
(31,490,o),
(223,490,cs),
(306,490,o),
(324,432,o),
(324,371,cs),
(324,305,l),
(230,242,o),
(32,224,o),
(32,89,cs),
(32,19,o),
(90,-9,o),
(133,-9,cs),
(249,-9,o),
(293,64,o),
(319,165,c),
(321,165,l),
(319,114,ls),
(314,24,o),
(348,-9,o),
(403,-9,cs),
(439,-9,o),
(472,5,o),
(484,30,c),
(480,36,l),
(471,22,o),
(459,15,o),
(441,15,cs),
(409,15,o),
(394,37,o),
(394,110,cs),
(394,335,ls),
(394,424,o),
(352,500,o),
(234,500,cs),
(34,500,o),
(-212,231,o),
(-478,-22,cs),
(-744,-275,o),
(-1042,-530,o),
(-1405,-530,cs),
(-1802,-530,o),
(-2081,-238,o),
(-2081,118,cs),
(-2081,482,o),
(-1790,773,o),
(-1430,773,cs),
(-1272,773,o),
(-1128,717,o),
(-1015,624,c)
);
},
{
closed = 1;
nodes = (
(324,265,ls),
(324,136,o),
(270,28,o),
(183,28,cs),
(122,28,o),
(102,74,o),
(102,109,cs),
(102,204,o),
(235,250,o),
(324,293,c)
);
},
{
closed = 1;
nodes = (
(133,306,o),
(155,333,o),
(155,366,cs),
(155,399,o),
(133,426,o),
(105,426,cs),
(77,426,o),
(56,399,o),
(56,366,cs),
(56,333,o),
(77,306,o),
(105,306,cs)
);
}
);
width = 474;
},
{
layerId = "EECBB25E-CCC9-4EB7-9066-53ACD40459CA";
shapes = (
{
closed = 1;
nodes = (
(-1016,628,l),
(-1130,722,o),
(-1277,779,o),
(-1436,779,cs),
(-1799,779,o),
(-2092,485,o),
(-2092,119,cs),
(-2092,-242,o),
(-1808,-536,o),
(-1414,-536,cs),
(-1036,-536,o),
(-739,-281,o),
(-472,-24,cs),
(-214,224,o),
(7,489,o),
(228,489,cs),
(302,489,o),
(320,451,o),
(320,385,cs),
(320,301,l),
(209,236,o),
(17,221,o),
(17,96,cs),
(17,35,o),
(71,-9,o),
(147,-9,cs),
(247,-9,o),
(298,57,o),
(318,163,c),
(323,163,l),
(322,151,l),
(322,42,o),
(356,-9,o),
(440,-9,cs),
(483,-9,o),
(529,5,o),
(547,43,c),
(543,49,l),
(538,38,o),
(533,34,o),
(527,34,cs),
(514,34,o),
(510,52,o),
(510,110,cs),
(510,268,ls),
(510,455,o),
(413,503,o),
(255,503,cs),
(20,503,o),
(-213,239,o),
(-483,-22,cs),
(-747,-278,o),
(-1047,-530,o),
(-1410,-530,cs),
(-1807,-530,o),
(-2086,-238,o),
(-2086,118,cs),
(-2086,482,o),
(-1795,773,o),
(-1435,773,cs),
(-1277,773,o),
(-1133,717,o),
(-1020,624,c)
);
},
{
closed = 1;
nodes = (
(320,275,ls),
(320,135,o),
(281,49,o),
(239,49,cs),
(210,49,o),
(200,84,o),
(200,120,cs),
(200,200,o),
(260,257,o),
(320,290,c)
);
},
{
closed = 1;
nodes = (
(176,266,o),
(211,304,o),
(211,351,cs),
(211,398,o),
(176,437,o),
(133,437,cs),
(90,437,o),
(55,398,o),
(55,351,cs),
(55,304,o),
(90,266,o),
(133,266,cs)
);
}
);
width = 563;
}
);
leftKerningGroup = _kern1;
rightKerningGroup = _kern1;
},
{
color = (153, 255, 154, 255);
glyphname = a.8.acc;
layers = (
{
layerId = "4B09473C-DE20-458D-B091-F76EF41CC662";
rightMetricsKey = "=n-2";
shapes = (
{
closed = 1;
nodes = (
(41,500,o),
(-218,256,o),
(-485,-22,cs),
(-729,-276,o),
(-1049,-486,o),
(-1412,-486,cs),
(-1809,-486,o),
(-2088,-214,o),
(-2088,118,cs),
(-2088,482,o),
(-1797,773,o),
(-1437,773,cs),
(-1279,773,o),
(-1135,717,o),
(-1022,624,c),
(-1018,628,l),
(-1132,722,o),
(-1279,779,o),
(-1438,779,cs),
(-1801,779,o),
(-2094,485,o),
(-2094,119,cs),
(-2094,-285,o),
(-1787,-576,o),
(-1412,-576,cs),
(-1035,-576,o),
(-744,-300,o),
(-477,-23,cs),
(-229,234,o),
(38,490,o),
(230,490,cs),
(313,490,o),
(335,432,o),
(335,371,cs),
(335,305,l),
(245,242,o),
(39,224,o),
(39,89,cs),
(39,19,o),
(97,-9,o),
(140,-9,cs),
(248,-9,o),
(306,75,o),
(330,176,c),
(332,176,l),
(330,114,l),
(325,24,o),
(359,-9,o),
(414,-9,cs),
(450,-9,o),
(483,5,o),
(495,30,c),
(491,36,l),
(482,22,o),
(470,15,o),
(452,15,cs),
(420,15,o),
(405,37,o),
(405,110,cs),
(405,335,ls),
(405,424,o),
(359,500,o),
(241,500,cs)
);
},
{
closed = 1;
nodes = (
(335,265,ls),
(335,136,o),
(269,28,o),
(190,28,cs),
(129,28,o),
(109,74,o),
(109,109,cs),
(109,204,o),
(251,250,o),
(335,293,c)
);
},
{
closed = 1;
nodes = (
(140,306,o),
(162,333,o),
(162,366,cs),
(162,399,o),
(140,426,o),
(112,426,cs),
(84,426,o),
(63,399,o),
(63,366,cs),
(63,333,o),
(84,306,o),
(112,306,cs)
);
}
);
width = 485;
},
{
layerId = "EECBB25E-CCC9-4EB7-9066-53ACD40459CA";
shapes = (
{
closed = 1;
nodes = (
(20,503,o),
(-206,270,o),
(-483,-22,cs),
(-722,-274,o),
(-1047,-471,o),
(-1410,-471,cs),
(-1807,-471,o),
(-2086,-205,o),
(-2086,118,cs),
(-2086,482,o),
(-1795,773,o),
(-1435,773,cs),
(-1277,773,o),
(-1133,717,o),
(-1020,624,c),
(-1016,628,l),
(-1130,722,o),
(-1277,779,o),
(-1436,779,cs),
(-1799,779,o),
(-2092,485,o),
(-2092,119,cs),
(-2092,-273,o),
(-1807,-591,o),
(-1412,-591,cs),
(-1035,-591,o),
(-738,-310,o),
(-472,-24,cs),
(-228,238,o),
(7,489,o),
(228,489,cs),
(302,489,o),
(320,451,o),
(320,385,cs),
(320,301,l),
(209,236,o),
(17,221,o),
(17,96,cs),
(17,35,o),
(71,-9,o),
(147,-9,cs),
(247,-9,o),
(298,57,o),
(318,163,c),
(323,163,l),
(322,151,l),
(322,42,o),
(356,-9,o),
(440,-9,cs),
(483,-9,o),
(529,5,o),
(547,43,c),
(543,49,l),
(538,38,o),
(533,34,o),
(527,34,cs),
(514,34,o),
(510,52,o),
(510,110,cs),
(510,268,ls),
(510,455,o),
(413,503,o),
(255,503,cs)
);
},
{
closed = 1;
nodes = (
(320,275,ls),
(320,135,o),
(281,49,o),
(239,49,cs),
(210,49,o),
(200,84,o),
(200,120,cs),
(200,200,o),
(260,257,o),
(320,290,c)
);
},
{
closed = 1;
nodes = (
(176,266,o),
(211,304,o),
(211,351,cs),
(211,398,o),
(176,437,o),
(133,437,cs),
(90,437,o),
(55,398,o),
(55,351,cs),
(55,304,o),
(90,266,o),
(133,266,cs)
);
}
);
width = 563;
}
);
leftKerningGroup = _kern1;
rightKerningGroup = _kern1;
},
{
color = (153, 255, 154, 255);
glyphname = a.9;
layers = (
{
layerId = "4B09473C-DE20-458D-B091-F76EF41CC662";
leftMetricsKey = a;
shapes = (
{
closed = 1;
nodes = (
(322,305,l),
(229,242,o),
(32,224,o),
(32,89,cs),
(32,19,o),
(90,-9,o),
(133,-9,cs),
(256,-9,o),
(299,71,o),
(320,178,c),
(324,-43,o),
(419,-151,o),
(608,-151,cs),
(797,-151,o),
(894,-21,o),
(894,113,cs),
(894,167,o),
(864,216,o),
(811,216,cs),
(773,216,o),
(747,190,o),
(747,159,cs),
(747,129,o),
(771,102,o),
(808,102,cs),
(837,102,o),
(861,119,o),
(870,140,c),
(875,124,o),
(877,110,o),
(877,92,cs),
(877,-31,o),
(778,-129,o),
(636,-129,cs),
(513,-129,o),
(392,-56,o),
(392,161,cs),
(392,335,ls),
(392,424,o),
(353,500,o),
(235,500,cs),
(121,500,o),
(54,428,o),
(54,356,cs),
(54,326,o),
(66,306,o),
(95,306,cs),
(126,306,o),
(142,330,o),
(142,359,cs),
(142,386,o),
(128,411,o),
(116,422,c),
(137,465,o),
(174,490,o),
(224,490,cs),
(307,490,o),
(322,432,o),
(322,371,cs)
);
},
{
closed = 1;
nodes = (
(322,265,ls),
(322,173,o),
(296,28,o),
(184,28,cs),
(123,28,o),
(103,74,o),
(103,109,cs),
(103,204,o),
(234,250,o),
(322,293,c)
);
}
);
width = 949;
},
{
layerId = "EECBB25E-CCC9-4EB7-9066-53ACD40459CA";
shapes = (
{
closed = 1;
nodes = (
(321,301,l),
(210,236,o),
(18,221,o),
(18,96,cs),
(18,35,o),
(72,-9,o),
(148,-9,cs),
(247,-9,o),
(298,60,o),
(318,164,c),
(324,-31,o),
(462,-152,o),
(655,-152,cs),
(860,-152,o),
(977,-14,o),
(977,124,cs),
(977,216,o),
(925,301,o),
(835,301,cs),
(770,301,o),
(726,256,o),
(726,203,cs),
(726,152,o),
(767,105,o),
(830,105,cs),
(879,105,o),
(920,134,o),
(936,171,c),
(944,144,o),
(948,120,o),
(948,94,cs),
(948,-31,o),
(854,-121,o),
(727,-121,cs),
(615,-121,o),
(511,-56,o),
(511,160,cs),
(511,268,ls),
(511,399,o),
(470,500,o),
(285,500,cs),
(120,500,o),
(52,418,o),
(52,351,cs),
(52,299,o),
(80,266,o),
(128,266,cs),
(182,266,o),
(208,310,o),
(208,353,cs),
(208,388,o),
(192,422,o),
(159,437,c),
(170,464,o),
(205,489,o),
(244,489,cs),
(303,489,o),
(321,433,o),
(321,385,cs)
);
},
{
closed = 1;
nodes = (
(321,278,ls),
(321,138,o),
(281,50,o),
(239,50,cs),
(210,50,o),
(201,84,o),
(201,120,cs),
(201,200,o),
(261,257,o),
(321,290,c)
);
}
);
width = 1016;
}
);
},
{
color = (255, 153, 153, 255);
glyphname = b;
layers = (
{
hints = (
{
horizontal = 1;
place = (-6,21);
target = up;
type = BottomGhost;
},
{
horizontal = 1;
place = (736,-20);
target = down;
type = TopGhost;
},
{
place = (71,207);
type = Stem;
},
{
place = (397,201);
type = Stem;
}
);
layerId = "4B09473C-DE20-458D-B091-F76EF41CC662";
leftMetricsKey = l;
shapes = (
{
closed = 1;
nodes = (
(65,-9,ls),
(65,-13,o),
(67,-14,o),
(69,-14,c),
(74,-14,o),
(64,52,o),
(102,52,cs),
(136,52,o),
(158,-8,o),
(256,-8,cs),
(401,-8,o),
(474,122,o),
(474,258,cs),
(474,394,o),
(406,500,o),
(278,500,cs),
(202,500,o),
(145,445,o),
(130,389,cs),
(127,376,o),
(127,387,o),
(127,394,cs),
(127,461,l),
(127,721,l),
(-12,689,l),
(-12,684,l),
(41,684,o),
(65,676,o),
(65,634,cs)
);
},
{
closed = 1;
nodes = (
(174,0,o),
(132,43,o),
(132,144,cs),
(132,319,ls),
(132,403,o),
(170,486,o),
(265,486,cs),
(390,486,o),
(400,344,o),
(400,258,cs),
(400,34,o),
(332,0,o),
(261,0,cs)
);
}
);
width = 502;
},
{
hints = (
{
horizontal = 1;
place = (-6,21);
target = up;
type = BottomGhost;
},
{
horizontal = 1;
place = (736,-20);
target = down;
type = TopGhost;
},
{
place = (81,207);
type = Stem;
},
{
place = (407,201);
type = Stem;
}
);
layerId = "EECBB25E-CCC9-4EB7-9066-53ACD40459CA";
shapes = (
{
closed = 1;
nodes = (
(65,-9,ls),
(65,-13,o),
(67,-14,o),
(69,-14,c),
(75,-14,o),
(69,50,o),
(128,50,cs),
(184,50,o),
(206,-8,o),
(327,-8,cs),
(445,-8,o),
(592,56,o),
(592,265,cs),
(592,401,o),
(503,500,o),
(388,500,cs),
(311,500,o),
(274,461,o),
(261,401,cs),
(260,397,o),
(258,395,o),
(258,399,cs),
(258,465,l),
(258,721,l),
(-12,689,l),
(-12,682,l),
(44,682,o),
(65,686,o),
(65,634,cs)
);
},
{
closed = 1;
nodes = (
(282,1,o),
(263,47,o),
(263,111,cs),
(263,345,ls),
(263,406,o),
(285,474,o),
(336,474,cs),
(385,474,o),
(391,420,o),
(391,246,cs),
(391,32,o),
(373,1,o),
(324,1,cs)
);
}
);
width = 616;
}
);
unicode = 98;
},
{
color = (153, 255, 154, 255);
glyphname = b.6;
layers = (
{
layerId = "4B09473C-DE20-458D-B091-F76EF41CC662";
shapes = (
{
closed = 1;
nodes = (
(304,-192,l),
(438,-314,o),
(618,-389,o),
(815,-389,cs),
(1255,-389,o),
(1609,-29,o),
(1609,421,cs),
(1609,878,o),
(1250,1243,o),
(802,1243,cs),
(406,1243,o),
(75,923,o),
(75,517,cs),
(75,-9,ls),
(75,-13,o),
(77,-14,o),
(79,-14,c),
(84,-14,o),
(74,52,o),
(112,52,cs),
(146,52,o),
(168,-8,o),
(260,-8,cs),
(411,-8,o),
(484,122,o),
(484,258,cs),
(484,394,o),
(416,500,o),
(288,500,cs),
(218,500,o),
(164,453,o),
(144,402,cs),
(143,400,o),
(143,398,o),
(142,396,c),
(142,541,l),
(142,617,ls),
(142,978,o),
(473,1233,o),
(805,1233,cs),
(1246,1233,o),
(1603,872,o),
(1603,421,cs),
(1603,-24,o),
(1250,-382,o),
(815,-382,cs),
(622,-382,o),
(444,-308,o),
(310,-187,c)
);
},
{
closed = 1;
nodes = (
(184,0,o),
(142,52,o),
(142,131,cs),
(142,319,ls),
(142,403,o),
(180,486,o),
(275,486,cs),
(400,486,o),
(410,344,o),
(410,258,cs),
(410,34,o),
(342,0,o),
(260,0,cs)
);
}
);
width = 512;
},
{
layerId = "EECBB25E-CCC9-4EB7-9066-53ACD40459CA";
shapes = (
{
closed = 1;
nodes = (
(318,-192,l),
(452,-314,o),
(632,-389,o),
(829,-389,cs),
(1269,-389,o),
(1623,-29,o),
(1623,421,cs),
(1623,878,o),
(1264,1243,o),
(816,1243,cs),
(347,1243,o),
(55,923,o),
(55,517,cs),
(55,-9,ls),
(55,-13,o),
(57,-14,o),
(59,-14,c),
(65,-14,o),
(59,50,o),
(118,50,cs),
(174,50,o),
(196,-6,o),
(317,-6,c),
(435,-1,o),
(582,56,o),
(582,265,cs),
(582,401,o),
(493,500,o),
(378,500,cs),
(301,500,o),
(264,461,o),
(251,401,cs),
(250,397,o),
(249,394,o),
(245,394,c),
(245,540,l),
(245,617,ls),
(245,978,o),
(490,1233,o),
(819,1233,cs),
(1260,1233,o),
(1617,872,o),
(1617,421,cs),
(1617,-24,o),
(1264,-382,o),
(829,-382,cs),
(636,-382,o),
(458,-308,o),
(324,-187,c)
);
},
{
closed = 1;
nodes = (
(263,4,o),
(253,47,o),
(253,111,cs),
(253,348,ls),
(253,409,o),
(275,477,o),
(326,477,cs),
(375,477,o),
(381,420,o),
(381,246,cs),
(381,32,o),
(354,2,o),
(305,2,c)
);
}
);
width = 610;
}
);
},
{
color = (153, 255, 154, 255);
glyphname = b.44;
layers = (
{
layerId = "4B09473C-DE20-458D-B091-F76EF41CC662";
shapes = (
{
closed = 1;
nodes = (
(-2070,453,l),
(-1933,733,o),
(-1646,928,o),
(-1317,928,cs),
(-384,928,o),
(-155,-401,o),
(806,-389,c),
(1246,-389,o),
(1600,-29,o),
(1600,421,cs),
(1600,878,o),
(1241,1243,o),
(793,1243,cs),
(397,1243,o),
(66,923,o),
(66,517,cs),
(66,-9,ls),
(66,-13,o),
(68,-14,o),
(70,-14,c),
(75,-14,o),
(65,52,o),
(103,52,cs),
(137,52,o),
(159,-8,o),
(251,-8,cs),
(402,-8,o),
(475,122,o),
(475,258,cs),
(475,394,o),
(407,500,o),
(279,500,cs),
(209,500,o),
(155,453,o),
(135,402,cs),
(134,399,o),
(133,390,o),
(133,404,cs),
(133,552,l),
(133,617,ls),
(133,978,o),
(464,1233,o),
(796,1233,cs),
(1237,1233,o),
(1594,872,o),
(1594,421,cs),
(1594,-24,o),
(1241,-383,o),
(806,-383,c),
(-156,-395,o),
(-371,934,o),
(-1317,934,cs),
(-1648,934,o),
(-1938,737,o),
(-2076,455,c)
);
},
{
closed = 1;
nodes = (
(175,0,o),
(133,52,o),
(133,131,cs),
(133,319,ls),
(133,403,o),
(171,486,o),
(266,486,cs),
(391,486,o),
(401,344,o),
(401,258,cs),
(401,34,o),
(333,0,o),
(251,0,cs)
);
}
);
width = 503;
},
{
layerId = "EECBB25E-CCC9-4EB7-9066-53ACD40459CA";
shapes = (
{
closed = 1;
nodes = (
(-2044,453,l),
(-1907,733,o),
(-1620,928,o),
(-1291,928,cs),
(-358,928,o),
(-129,-401,o),
(832,-389,c),
(1272,-389,o),
(1626,-29,o),
(1626,421,cs),
(1626,878,o),
(1267,1243,o),
(819,1243,cs),
(350,1243,o),
(58,923,o),
(58,517,cs),
(58,-9,ls),
(58,-13,o),
(60,-14,o),
(62,-14,c),
(68,-14,o),
(62,50,o),
(121,50,cs),
(177,50,o),
(199,-6,o),
(320,-6,c),
(438,-1,o),
(585,56,o),
(585,265,cs),
(585,401,o),
(496,500,o),
(381,500,cs),
(304,500,o),
(267,461,o),
(254,401,cs),
(253,397,o),
(248,393,o),
(248,400,cs),
(248,551,l),
(248,617,ls),
(248,978,o),
(493,1233,o),
(822,1233,cs),
(1263,1233,o),
(1620,872,o),
(1620,421,cs),
(1620,-24,o),
(1267,-383,o),
(832,-383,c),
(-130,-395,o),
(-345,934,o),
(-1291,934,cs),
(-1622,934,o),
(-1912,737,o),
(-2050,455,c)
);
},
{
closed = 1;
nodes = (
(266,4,o),
(256,47,o),
(256,111,cs),
(256,348,ls),
(256,409,o),
(278,477,o),
(329,477,cs),
(378,477,o),
(384,420,o),
(384,246,cs),
(384,32,o),
(357,2,o),
(308,2,c)
);
}
);
width = 613;
}
);
},
{
color = (153, 255, 154, 255);
glyphname = b.4.acc;
layers = (
{
layerId = "4B09473C-DE20-458D-B091-F76EF41CC662";
shapes = (
{
closed = 1;
nodes = (
(-2068,453,l),
(-1931,733,o),
(-1644,928,o),
(-1315,928,cs),
(-322,928,o),
(-190,-422,o),
(808,-410,c),
(1248,-410,o),
(1602,-40,o),
(1602,421,cs),
(1602,878,o),
(1243,1243,o),
(795,1243,cs),
(399,1243,o),
(68,923,o),
(68,517,cs),
(68,-9,ls),
(68,-13,o),
(70,-14,o),
(72,-14,c),
(77,-14,o),
(67,52,o),
(105,52,cs),
(139,52,o),
(161,-8,o),
(253,-8,cs),
(404,-8,o),
(477,122,o),
(477,258,cs),
(477,394,o),
(409,500,o),
(281,500,cs),
(211,500,o),
(158,454,o),
(138,403,cs),
(137,401,o),
(136,398,o),
(135,396,c),
(135,397,o),
(135,403,o),
(135,405,c),
(135,617,ls),
(135,978,o),
(466,1233,o),
(798,1233,cs),
(1239,1233,o),
(1596,872,o),
(1596,421,cs),
(1596,11,o),
(1243,-340,o),
(808,-340,c),
(-220,-353,o),
(-339,934,o),
(-1315,934,cs),
(-1646,934,o),
(-1936,737,o),
(-2074,455,c)
);
},
{
closed = 1;
nodes = (
(177,0,o),
(135,52,o),
(135,131,cs),
(135,319,ls),
(135,403,o),
(173,486,o),
(268,486,cs),
(393,486,o),
(403,344,o),
(403,258,cs),
(403,34,o),
(335,0,o),
(253,0,cs)
);
}
);
width = 505;
},
{
layerId = "EECBB25E-CCC9-4EB7-9066-53ACD40459CA";
shapes = (
{
closed = 1;
nodes = (
(-2044,453,l),
(-1907,733,o),
(-1620,928,o),
(-1291,928,cs),
(-358,928,o),
(-129,-492,o),
(832,-480,c),
(1272,-480,o),
(1626,-52,o),
(1626,421,cs),
(1626,878,o),
(1267,1243,o),
(819,1243,cs),
(350,1243,o),
(58,923,o),
(58,517,cs),
(58,-9,ls),
(58,-13,o),
(60,-14,o),
(62,-14,c),
(68,-14,o),
(62,50,o),
(121,50,cs),
(177,50,o),
(199,-6,o),
(320,-6,c),
(438,-1,o),
(585,56,o),
(585,265,cs),
(585,401,o),
(496,500,o),
(381,500,cs),
(304,500,o),
(267,461,o),
(254,401,cs),
(253,396,o),
(251,394,o),
(250,394,c),
(249,394,o),
(248,397,o),
(248,399,c),
(248,617,ls),
(248,978,o),
(493,1233,o),
(822,1233,cs),
(1263,1233,o),
(1620,872,o),
(1620,421,cs),
(1620,23,o),
(1267,-350,o),
(832,-350,c),
(-275,-363,o),
(-345,934,o),
(-1291,934,cs),
(-1622,934,o),
(-1912,737,o),
(-2050,455,c)
);
},
{
closed = 1;
nodes = (
(266,4,o),
(256,47,o),
(256,111,cs),
(256,348,ls),
(256,409,o),
(278,477,o),
(329,477,cs),
(378,477,o),
(384,420,o),
(384,246,cs),
(384,32,o),
(357,2,o),
(308,2,c)
);
}
);
width = 613;
}
);
},
{
color = (255, 153, 153, 255);
glyphname = c;
layers = (
{
anchors = (
{
name = top;
position = "{216, 577}";
}
);
hints = (
{
horizontal = 1;
place = (-5,36);
type = Stem;
},
{
horizontal = 1;
place = (255,213);
type = Stem;
},
{
place = (-24,197);
type = Stem;
},
{
place = (265,200);
type = Stem;
},
{
place = (314,151);
type = Stem;
}
);
layerId = "4B09473C-DE20-458D-B091-F76EF41CC662";
leftMetricsKey = e;
rightMetricsKey = e;
shapes = (
{
closed = 1;
nodes = (
(404,124,l),
(382,58,o),
(336,26,o),
(269,26,cs),
(149,26,o),
(103,129,o),
(103,258,cs),
(103,352,o),
(127,490,o),
(262,490,cs),
(304,490,o),
(331,471,o),
(339,449,c),
(325,432,o),
(318,407,o),
(318,386,cs),
(318,356,o),
(333,331,o),
(361,331,cs),
(391,331,o),
(406,358,o),
(406,389,cs),
(406,457,o),
(335,500,o),
(257,500,cs),
(125,500,o),
(28,394,o),
(28,237,cs),
(28,68,o),
(111,-9,o),
(230,-9,cs),
(317,-9,o),
(379,32,o),
(412,121,c)
);
}
);
width = 442;
},
{
anchors = (
{
name = top;
position = "{278, 577}";
}
);
hints = (
{
horizontal = 1;
place = (-5,36);
type = Stem;
},
{
horizontal = 1;
place = (255,213);
type = Stem;
},
{
place = (38,197);
type = Stem;
},
{
place = (327,200);
type = Stem;
},
{
place = (376,151);
type = Stem;
}
);
layerId = "EECBB25E-CCC9-4EB7-9066-53ACD40459CA";
shapes = (
{
closed = 1;
nodes = (
(480,148,l),
(459,84,o),
(414,55,o),
(357,55,cs),
(263,55,o),
(224,119,o),
(224,273,cs),
(224,453,o),
(262,493,o),
(307,493,cs),
(342,493,o),
(368,470,o),
(372,449,c),
(349,423,o),
(337,386,o),
(337,354,cs),
(337,309,o),
(361,271,o),
(409,271,cs),
(459,271,o),
(485,312,o),
(485,364,cs),
(485,453,o),
(402,500,o),
(289,500,cs),
(138,500,o),
(22,414,o),
(22,244,cs),
(22,68,o),
(135,-9,o),
(267,-9,cs),
(369,-9,o),
(452,44,o),
(487,145,c)
);
}
);
width = 500;
}
);
leftKerningGroup = _kern2;
rightKerningGroup = _kern2;
unicode = 99;
},
{
color = (153, 255, 154, 255);
glyphname = c.4;
layers = (
{
layerId = "4B09473C-DE20-458D-B091-F76EF41CC662";
shapes = (
{
closed = 1;
nodes = (
(307,490,o),
(334,471,o),
(342,449,c),
(328,432,o),
(321,407,o),
(321,386,cs),
(321,356,o),
(336,331,o),
(364,331,cs),
(394,331,o),
(409,358,o),
(409,389,cs),
(409,457,o),
(338,500,o),
(260,500,cs),
(121,500,o),
(34,365,o),
(34,203,cs),
(34,-133,o),
(360,-306,o),
(617,-306,cs),
(955,-306,o),
(1293,-47,o),
(1293,310,cs),
(1293,597,o),
(1057,834,o),
(754,834,cs),
(609,834,o),
(481,780,o),
(384,692,c),
(389,688,l),
(485,775,o),
(611,828,o),
(753,828,cs),
(1050,828,o),
(1287,597,o),
(1287,310,cs),
(1287,-7,o),
(998,-280,o),
(659,-280,cs),
(357,-280,o),
(111,-101,o),
(111,231,cs),
(111,343,o),
(140,490,o),
(265,490,cs)
);
}
);
width = 448;
},
{
layerId = "EECBB25E-CCC9-4EB7-9066-53ACD40459CA";
shapes = (
{
closed = 1;
nodes = (
(348,493,o),
(366,469,o),
(370,449,c),
(347,423,o),
(335,386,o),
(335,354,cs),
(335,309,o),
(359,271,o),
(407,271,cs),
(457,271,o),
(483,312,o),
(483,364,cs),
(483,450,o),
(410,500,o),
(303,500,cs),
(135,500,o),
(23,386,o),
(23,205,cs),
(23,-139,o),
(412,-306,o),
(691,-306,cs),
(1065,-306,o),
(1352,-7,o),
(1352,309,cs),
(1352,596,o),
(1116,834,o),
(813,834,cs),
(668,834,o),
(540,780,o),
(443,692,c),
(448,688,l),
(544,775,o),
(670,828,o),
(812,828,cs),
(1109,828,o),
(1346,597,o),
(1346,307,cs),
(1346,2,o),
(1083,-263,o),
(744,-263,cs),
(502,-263,o),
(226,-128,o),
(226,279,cs),
(226,339,o),
(233,493,o),
(309,493,cs)
);
}
);
width = 498;
}
);
leftKerningGroup = _kern2;
rightKerningGroup = _kern2;
},
{
color = (255, 153, 153, 255);
glyphname = d;
layers = (
{
hints = (
{
horizontal = 1;
place = (-6,43);
type = Stem;
},
{
horizontal = 1;
place = (736,-20);
target = down;
type = TopGhost;
},
{
place = (41,213);
type = Stem;
},
{
place = (371,198);
type = Stem;
}
);
layerId = "4B09473C-DE20-458D-B091-F76EF41CC662";
leftMetricsKey = o;
rightMetricsKey = l;
shapes = (
{
closed = 1;
nodes = (
(439,721,l),
(295,689,l),
(295,684,l),
(332,684,o),
(372,686,o),
(372,634,cs),
(372,440,l),
(354,476,o),
(300,500,o),
(252,500,cs),
(121,500,o),
(28,385,o),
(28,229,cs),
(28,88,o),
(103,-9,o),
(216,-9,cs),
(288,-9,o),
(351,31,o),
(372,118,c),
(372,115,ls),
(372,33,o),
(402,-9,o),
(466,-9,cs),
(505,-9,o),
(537,7,o),
(548,24,c),
(544,29,l),
(540,23,o),
(526,15,o),
(502,15,cs),
(455,15,o),
(439,45,o),
(439,122,cs)
);
},
{
closed = 1;
nodes = (
(125,15,o),
(101,157,o),
(101,258,cs),
(101,352,o),
(122,488,o),
(258,488,cs),
(333,488,o),
(372,436,o),
(372,401,cs),
(372,213,ls),
(372,47,o),
(295,15,o),
(240,15,cs)
);
}
);
width = 538;
},
{
hints = (
{
horizontal = 1;
place = (-6,43);
type = Stem;
},
{
horizontal = 1;
place = (736,-20);
target = down;
type = TopGhost;
},
{
place = (20,213);
type = Stem;
},
{
place = (350,198);
type = Stem;
}
);
layerId = "EECBB25E-CCC9-4EB7-9066-53ACD40459CA";
shapes = (
{
closed = 1;
nodes = (
(543,721,l),
(273,689,l),
(273,682,l),
(329,682,o),
(350,686,o),
(350,634,cs),
(350,456,l),
(336,494,o),
(298,500,o),
(264,500,cs),
(118,500,o),
(20,385,o),
(20,227,cs),
(20,88,o),
(96,-9,o),
(209,-9,cs),
(279,-9,o),
(332,29,o),
(350,127,c),
(350,121,ls),
(350,37,o),
(394,-9,o),
(486,-9,cs),
(542,-9,o),
(588,9,o),
(604,30,c),
(598,37,l),
(595,32,o),
(585,24,o),
(573,24,cs),
(549,24,o),
(543,55,o),
(543,125,cs)
);
},
{
closed = 1;
nodes = (
(237,71,o),
(231,180,o),
(231,261,cs),
(231,349,o),
(238,482,o),
(303,482,cs),
(334,482,o),
(347,452,o),
(350,410,c),
(350,213,ls),
(350,94,o),
(315,71,o),
(290,71,cs)
);
}
);
width = 611;
}
);
unicode = 100;
},
{
color = (153, 255, 154, 255);
glyphname = d.5;
rightMetricsKey = l.5;
layers = (
{
hints = (
{
horizontal = 1;
place = (-6,43);
type = Stem;
},
{
horizontal = 1;
place = (736,-20);
target = down;
type = TopGhost;
},
{
place = (41,213);
type = Stem;
},
{
place = (371,198);
type = Stem;
}
);
layerId = "4B09473C-DE20-458D-B091-F76EF41CC662";
shapes = (
{
closed = 1;
nodes = (
(372,440,l),
(354,476,o),
(300,500,o),
(252,500,cs),
(121,500,o),
(28,385,o),
(28,229,cs),
(28,88,o),
(103,-9,o),
(216,-9,cs),
(288,-9,o),
(351,31,o),
(372,135,c),
(372,69,ls),
(372,-108,o),
(464,-230,o),
(622,-230,cs),
(698,-230,o),
(780,-202,o),
(805,-139,c),
(800,-134,l),
(777,-191,o),
(702,-221,o),
(638,-221,cs),
(529,-221,o),
(439,-144,o),
(439,31,cs),
(439,721,l),
(295,689,l),
(295,684,l),
(332,684,o),
(372,686,o),
(372,634,cs)
);
},
{
closed = 1;
nodes = (
(125,15,o),
(101,157,o),
(101,258,cs),
(101,352,o),
(122,488,o),
(258,488,cs),
(333,488,o),
(372,436,o),
(372,401,cs),
(372,213,ls),
(372,47,o),
(295,15,o),
(240,15,cs)
);
}
);
width = 524;
},
{
hints = (
{
horizontal = 1;
place = (-6,43);
type = Stem;
},
{
horizontal = 1;
place = (736,-20);
target = down;
type = TopGhost;
},
{
place = (20,213);
type = Stem;
},
{
place = (350,198);
type = Stem;
}
);
layerId = "EECBB25E-CCC9-4EB7-9066-53ACD40459CA";
shapes = (
{
closed = 1;
nodes = (
(350,456,l),
(336,494,o),
(298,500,o),
(264,500,cs),
(118,500,o),
(20,385,o),
(20,227,cs),
(20,88,o),
(96,-9,o),
(209,-9,cs),
(278,-9,o),
(331,28,o),
(350,123,c),
(350,121,l),
(350,-63,o),
(393,-239,o),
(707,-239,cs),
(795,-239,o),
(890,-208,o),
(919,-139,c),
(914,-134,l),
(891,-192,o),
(815,-222,o),
(750,-222,cs),
(642,-222,o),
(544,-145,o),
(544,31,cs),
(543,721,l),
(273,689,l),
(273,682,l),
(329,682,o),
(350,686,o),
(350,634,cs)
);
},
{
closed = 1;
nodes = (
(236,57,o),
(231,174,o),
(231,251,cs),
(231,348,o),
(239,479,o),
(305,479,cs),
(336,479,o),
(347,450,o),
(350,410,c),
(350,179,l),
(344,78,o),
(308,57,o),
(287,57,cs)
);
}
);
width = 606;
}
);
},
{
color = (153, 255, 154, 255);
glyphname = d.4;
layers = (
{
layerId = "4B09473C-DE20-458D-B091-F76EF41CC662";
leftMetricsKey = o;
shapes = (
{
closed = 1;
nodes = (
(28,88,o),
(103,-9,o),
(216,-9,cs),
(288,-9,o),
(351,31,o),
(372,135,c),
(373,-232,o),
(636,-414,o),
(957,-414,cs),
(1310,-414,o),
(1618,-161,o),
(1618,207,cs),
(1618,544,o),
(1345,817,o),
(1008,817,cs),
(850,817,o),
(706,757,o),
(598,659,c),
(604,655,l),
(711,752,o),
(853,811,o),
(1008,811,cs),
(1341,811,o),
(1612,540,o),
(1612,207,cs),
(1612,-148,o),
(1311,-403,o),
(968,-403,cs),
(687,-403,o),
(439,-232,o),
(439,109,cs),
(439,721,l),
(295,689,l),
(295,684,l),
(332,684,o),
(372,686,o),
(372,634,cs),
(372,440,l),
(354,476,o),
(300,500,o),
(252,500,cs),
(121,500,o),
(28,385,o),
(28,229,cs)
);
},
{
closed = 1;
nodes = (
(125,15,o),
(101,157,o),
(101,258,cs),
(101,352,o),
(122,488,o),
(258,488,cs),
(333,488,o),
(372,436,o),
(372,401,cs),
(372,213,ls),
(372,47,o),
(295,15,o),
(240,15,cs)
);
}
);
width = 512;
},
{
layerId = "EECBB25E-CCC9-4EB7-9066-53ACD40459CA";
shapes = (
{
closed = 1;
nodes = (
(20,88,o),
(96,-9,o),
(209,-9,cs),
(280,-9,o),
(334,30,o),
(352,131,c),
(377,-209,o),
(686,-413,o),
(1051,-413,cs),
(1394,-413,o),
(1671,-136,o),
(1671,207,cs),
(1671,544,o),
(1398,817,o),
(1061,817,cs),
(903,817,o),
(759,757,o),
(651,659,c),
(657,655,l),
(764,752,o),
(906,811,o),
(1061,811,cs),
(1394,811,o),
(1665,540,o),
(1665,207,cs),
(1665,-126,o),
(1394,-397,o),
(1061,-397,cs),
(790,-397,o),
(543,-231,o),
(543,138,cs),
(543,721,l),
(273,689,l),
(273,682,l),
(329,682,o),
(350,686,o),
(350,634,cs),
(350,456,l),
(336,494,o),
(298,500,o),
(264,500,cs),
(118,500,o),
(20,385,o),
(20,227,cs)
);
},
{
closed = 1;
nodes = (
(236,57,o),
(231,174,o),
(231,251,cs),
(231,348,o),
(239,479,o),
(305,479,cs),
(336,479,o),
(347,450,o),
(350,410,c),
(350,179,l),
(344,78,o),
(308,57,o),
(287,57,cs)
);
}
);
width = 611;
}
);
},
{
color = (153, 255, 154, 255);
glyphname = d.6;
layers = (
{
layerId = "4B09473C-DE20-458D-B091-F76EF41CC662";
leftMetricsKey = o;
shapes = (
{
closed = 1;
nodes = (
(601,-192,l),
(735,-314,o),
(915,-389,o),
(1112,-389,cs),
(1552,-389,o),
(1906,-29,o),
(1906,421,cs),
(1906,878,o),
(1547,1243,o),
(1099,1243,cs),
(703,1243,o),
(375,923,o),
(375,517,cs),
(375,436,l),
(375,432,l),
(361,473,o),
(303,500,o),
(252,500,cs),
(121,500,o),
(28,385,o),
(28,229,cs),
(28,88,o),
(103,-9,o),
(216,-9,cs),
(288,-9,o),
(351,31,o),
(372,135,c),
(372,118,ls),
(372,34,o),
(401,-9,o),
(466,-9,cs),
(505,-9,o),
(537,7,o),
(548,24,c),
(544,29,l),
(540,23,o),
(526,15,o),
(502,15,cs),
(455,15,o),
(439,45,o),
(439,122,cs),
(439,617,ls),
(439,978,o),
(770,1233,o),
(1102,1233,cs),
(1543,1233,o),
(1900,872,o),
(1900,421,cs),
(1900,-24,o),
(1547,-382,o),
(1112,-382,cs),
(919,-382,o),
(741,-308,o),
(607,-187,c)
);
},
{
closed = 1;
nodes = (
(125,15,o),
(101,157,o),
(101,258,cs),
(101,352,o),
(122,488,o),
(258,488,cs),
(333,488,o),
(372,436,o),
(372,401,cs),
(372,213,ls),
(372,47,o),
(295,15,o),
(240,15,cs)
);
}
);
width = 540;
},
{
layerId = "EECBB25E-CCC9-4EB7-9066-53ACD40459CA";
shapes = (
{
closed = 1;
nodes = (
(616,-192,l),
(750,-314,o),
(930,-389,o),
(1127,-389,cs),
(1567,-389,o),
(1921,-29,o),
(1921,421,cs),
(1921,878,o),
(1562,1243,o),
(1114,1243,cs),
(645,1243,o),
(360,923,o),
(360,517,cs),
(360,450,l),
(353,446,l),
(342,493,o),
(301,500,o),
(264,500,cs),
(118,500,o),
(20,385,o),
(20,227,cs),
(20,88,o),
(96,-9,o),
(209,-9,cs),
(278,-9,o),
(331,28,o),
(350,123,c),
(350,121,l),
(350,37,o),
(394,-9,o),
(486,-9,cs),
(542,-9,o),
(588,9,o),
(604,30,c),
(598,37,l),
(595,32,o),
(585,24,o),
(573,24,cs),
(549,24,o),
(543,55,o),
(543,125,cs),
(543,617,ls),
(543,978,o),
(788,1233,o),
(1117,1233,cs),
(1558,1233,o),
(1915,872,o),
(1915,421,cs),
(1915,-24,o),
(1562,-382,o),
(1127,-382,cs),
(934,-382,o),
(756,-308,o),
(622,-187,c)
);
},
{
closed = 1;
nodes = (
(236,57,o),
(231,174,o),
(231,251,cs),
(231,348,o),
(239,479,o),
(305,479,cs),
(336,479,o),
(347,450,o),
(350,410,c),
(350,179,l),
(344,78,o),
(308,57,o),
(287,57,cs)
);
}
);
width = 611;
}
);
},
{
color = (153, 255, 154, 255);
glyphname = d.6.more;
layers = (
{
layerId = "4B09473C-DE20-458D-B091-F76EF41CC662";
shapes = (
{
closed = 1;
nodes = (
(-390,-320,l),
(-288,-210,o),
(-138,-146,o),
(30,-146,cs),
(409,-146,o),
(675,-388,o),
(1105,-388,cs),
(1545,-388,o),
(1899,-29,o),
(1899,421,cs),
(1899,878,o),
(1540,1243,o),
(1092,1243,cs),
(696,1243,o),
(368,923,o),
(368,517,cs),
(368,437,l),
(368,436,o),
(368,432,o),
(368,432,c),
(354,473,o),
(296,500,o),
(245,500,cs),
(114,500,o),
(21,385,o),
(21,229,cs),
(21,88,o),
(96,-9,o),
(209,-9,cs),
(281,-9,o),
(344,31,o),
(365,135,c),
(365,118,ls),
(365,34,o),
(394,-9,o),
(459,-9,cs),
(498,-9,o),
(530,7,o),
(541,24,c),
(541,24,o),
(537,29,o),
(537,29,c),
(533,23,o),
(519,15,o),
(495,15,cs),
(448,15,o),
(432,45,o),
(432,122,cs),
(432,617,ls),
(432,978,o),
(763,1233,o),
(1095,1233,cs),
(1536,1233,o),
(1893,872,o),
(1893,421,cs),
(1893,-24,o),
(1540,-382,o),
(1105,-382,cs),
(683,-382,o),
(412,-140,o),
(30,-140,cs),
(-141,-140,o),
(-295,-205,o),
(-398,-318,c)
);
},
{
closed = 1;
nodes = (
(118,15,o),
(94,157,o),
(94,258,cs),
(94,352,o),
(115,488,o),
(251,488,cs),
(326,488,o),
(365,436,o),
(365,401,cs),
(365,389,o),
(365,230,o),
(365,213,cs),
(365,47,o),
(288,15,o),
(233,15,cs)
);
}
);
width = 533;
},
{
layerId = "EECBB25E-CCC9-4EB7-9066-53ACD40459CA";
shapes = (
{
closed = 1;
nodes = (
(-368,-320,l),
(-266,-210,o),
(-116,-146,o),
(52,-146,cs),
(431,-146,o),
(697,-388,o),
(1127,-388,cs),
(1565,-388,o),
(1921,-28,o),
(1921,421,cs),
(1921,878,o),
(1562,1243,o),
(1114,1243,cs),
(645,1243,o),
(360,923,o),
(360,517,cs),
(360,444,l),
(359,444,o),
(354,444,o),
(354,444,c),
(343,492,o),
(301,500,o),
(264,500,cs),
(118,500,o),
(20,385,o),
(20,227,cs),
(20,88,o),
(96,-9,o),
(209,-9,cs),
(278,-9,o),
(331,28,o),
(350,123,c),
(350,121,l),
(350,37,o),
(394,-9,o),
(486,-9,cs),
(542,-9,o),
(588,9,o),
(604,30,c),
(603,31,o),
(599,36,o),
(598,37,c),
(595,32,o),
(585,24,o),
(573,24,cs),
(549,24,o),
(543,55,o),
(543,125,cs),
(543,617,ls),
(543,978,o),
(788,1233,o),
(1117,1233,cs),
(1558,1233,o),
(1915,872,o),
(1915,421,cs),
(1915,-24,o),
(1562,-382,o),
(1127,-382,cs),
(705,-382,o),
(434,-140,o),
(52,-140,cs),
(-119,-140,o),
(-273,-205,o),
(-376,-318,c)
);
},
{
closed = 1;
nodes = (
(236,57,o),
(231,174,o),
(231,251,cs),
(231,348,o),
(239,479,o),
(305,479,cs),
(336,479,o),
(347,450,o),
(350,410,c),
(350,395,o),
(350,200,o),
(350,179,c),
(344,78,o),
(308,57,o),
(287,57,cs)
);
}
);
width = 611;
}
);
},
{
color = (153, 255, 154, 255);
glyphname = d.6.more.acc;
layers = (
{
layerId = "4B09473C-DE20-458D-B091-F76EF41CC662";
shapes = (
{
closed = 1;
nodes = (
(-390,-320,l),
(-288,-210,o),
(-138,-146,o),
(30,-146,cs),
(409,-146,o),
(675,-442,o),
(1105,-442,cs),
(1545,-442,o),
(1899,-29,o),
(1899,421,cs),
(1899,878,o),
(1540,1243,o),
(1092,1243,cs),
(696,1243,o),
(368,923,o),
(368,517,cs),
(368,436,l),
(368,432,l),
(354,473,o),
(296,500,o),
(245,500,cs),
(114,500,o),
(21,385,o),
(21,229,cs),
(21,88,o),
(96,-9,o),
(209,-9,cs),
(281,-9,o),
(344,31,o),
(365,135,c),
(365,118,ls),
(365,34,o),
(394,-9,o),
(459,-9,cs),
(498,-9,o),
(530,7,o),
(541,24,c),
(537,29,l),
(533,23,o),
(519,15,o),
(495,15,cs),
(448,15,o),
(432,45,o),
(432,122,cs),
(432,617,ls),
(432,978,o),
(763,1233,o),
(1095,1233,cs),
(1536,1233,o),
(1893,872,o),
(1893,421,cs),
(1893,-24,o),
(1540,-382,o),
(1105,-382,cs),
(683,-382,o),
(412,-140,o),
(30,-140,cs),
(-141,-140,o),
(-295,-205,o),
(-398,-318,c)
);
},
{
closed = 1;
nodes = (
(118,15,o),
(94,157,o),
(94,258,cs),
(94,352,o),
(115,488,o),
(251,488,cs),
(326,488,o),
(365,436,o),
(365,401,cs),
(365,213,ls),
(365,47,o),
(288,15,o),
(233,15,cs)
);
}
);
width = 533;
},
{
layerId = "EECBB25E-CCC9-4EB7-9066-53ACD40459CA";
shapes = (
{
closed = 1;
nodes = (
(-368,-320,l),
(-266,-210,o),
(-116,-146,o),
(52,-146,cs),
(431,-146,o),
(697,-462,o),
(1127,-462,cs),
(1565,-462,o),
(1921,-28,o),
(1921,421,cs),
(1921,878,o),
(1562,1243,o),
(1114,1243,cs),
(645,1243,o),
(360,923,o),
(360,517,cs),
(360,444,l),
(354,444,l),
(343,492,o),
(301,500,o),
(264,500,cs),
(118,500,o),
(20,385,o),
(20,227,cs),
(20,88,o),
(96,-9,o),
(209,-9,cs),
(278,-9,o),
(331,28,o),
(350,123,c),
(350,121,l),
(350,37,o),
(394,-9,o),
(486,-9,cs),
(542,-9,o),
(588,9,o),
(604,30,c),
(598,37,l),
(595,32,o),
(585,24,o),
(573,24,cs),
(549,24,o),
(543,55,o),
(543,125,cs),
(543,617,ls),
(543,978,o),
(788,1233,o),
(1117,1233,cs),
(1558,1233,o),
(1915,872,o),
(1915,421,cs),
(1915,-24,o),
(1562,-332,o),
(1127,-332,cs),
(705,-332,o),
(434,-140,o),
(52,-140,cs),
(-119,-140,o),
(-273,-205,o),
(-376,-318,c)
);
},
{
closed = 1;
nodes = (
(236,57,o),
(231,174,o),
(231,251,cs),
(231,348,o),
(239,479,o),
(305,479,cs),
(336,479,o),
(347,450,o),
(350,410,c),
(350,179,l),
(344,78,o),
(308,57,o),
(287,57,cs)
);
}
);
width = 611;
}
);
},
{
color = (153, 255, 154, 255);
glyphname = d.9;
layers = (
{
layerId = "4B09473C-DE20-458D-B091-F76EF41CC662";
leftMetricsKey = d;
shapes = (
{
closed = 1;
nodes = (
(372,440,l),
(354,476,o),
(300,500,o),
(252,500,cs),
(121,500,o),
(28,385,o),
(28,229,cs),
(28,88,o),
(103,-9,o),
(216,-9,cs),
(290,-9,o),
(355,34,o),
(374,145,c),
(388,-11,o),
(482,-125,o),
(658,-125,cs),
(847,-125,o),
(944,5,o),
(944,139,cs),
(944,193,o),
(914,242,o),
(861,242,cs),
(823,242,o),
(797,216,o),
(797,185,cs),
(797,155,o),
(821,128,o),
(858,128,cs),
(887,128,o),
(911,145,o),
(920,166,c),
(925,150,o),
(927,136,o),
(927,118,cs),
(927,-5,o),
(828,-103,o),
(686,-103,cs),
(563,-103,o),
(442,-30,o),
(442,187,cs),
(442,721,l),
(298,689,l),
(298,684,l),
(335,684,o),
(372,686,o),
(372,634,cs)
);
},
{
closed = 1;
nodes = (
(125,15,o),
(101,157,o),
(101,258,cs),
(101,352,o),
(122,488,o),
(258,488,cs),
(333,488,o),
(372,436,o),
(372,401,cs),
(372,213,ls),
(372,47,o),
(295,15,o),
(240,15,cs)
);
}
);
width = 977;
},
{
layerId = "EECBB25E-CCC9-4EB7-9066-53ACD40459CA";
shapes = (
{
closed = 1;
nodes = (
(350,456,l),
(336,494,o),
(298,500,o),
(264,500,cs),
(118,500,o),
(20,385,o),
(20,227,cs),
(20,88,o),
(96,-9,o),
(209,-9,cs),
(281,-9,o),
(335,31,o),
(352,135,c),
(371,-43,o),
(503,-152,o),
(687,-152,cs),
(892,-152,o),
(1009,-14,o),
(1009,124,cs),
(1009,216,o),
(957,301,o),
(867,301,cs),
(802,301,o),
(758,256,o),
(758,203,cs),
(758,152,o),
(799,105,o),
(862,105,cs),
(911,105,o),
(952,134,o),
(968,171,c),
(976,144,o),
(980,120,o),
(980,94,cs),
(980,-31,o),
(886,-121,o),
(759,-121,cs),
(647,-121,o),
(543,-56,o),
(543,160,cs),
(543,721,l),
(273,689,l),
(273,682,l),
(329,682,o),
(350,686,o),
(350,634,cs)
);
},
{
closed = 1;
nodes = (
(236,57,o),
(231,174,o),
(231,251,cs),
(231,348,o),
(239,479,o),
(305,479,cs),
(336,479,o),
(347,450,o),
(350,410,c),
(350,179,l),
(344,78,o),
(308,57,o),
(287,57,cs)
);
}
);
width = 1048;
}
);
},
{
color = (255, 153, 153, 255);
glyphname = e;
layers = (
{
anchors = (
{
name = top;
position = "{246, 577}";
},
{
name = bottom;
position = "{217, -77}";
}
);
guides = (
{
position = "{0, -77}";
}
);
hints = (
{
horizontal = 1;
place = (-5,27);
type = Stem;
},
{
horizontal = 1;
place = (468,-20);
target = down;
type = TopGhost;
},
{
place = (-22,253);
type = Stem;
},
{
place = (300,220);
type = Stem;
}
);
layerId = "4B09473C-DE20-458D-B091-F76EF41CC662";
leftMetricsKey = o;
shapes = (
{
closed = 1;
nodes = (
(415,124,l),
(393,58,o),
(336,26,o),
(269,26,cs),
(137,26,o),
(103,151,o),
(103,258,cs),
(103,352,o),
(127,490,o),
(255,490,cs),
(320,490,o),
(358,456,o),
(358,397,cs),
(358,301,o),
(230,221,o),
(89,191,c),
(100,180,l),
(144,203,o),
(250,211,o),
(326,249,cs),
(382,277,o),
(423,312,o),
(423,379,cs),
(423,451,o),
(353,500,o),
(255,500,cs),
(126,500,o),
(28,394,o),
(28,237,cs),
(28,68,o),
(112,-9,o),
(230,-9,cs),
(317,-9,o),
(390,32,o),
(423,121,c)
);
}
);
width = 453;
},
{
anchors = (
{
name = top;
position = "{289, 577}";
},
{
name = bottom;
position = "{267, -77}";
}
);
guides = (
{
position = "{0, -77}";
}
);
hints = (
{
horizontal = 1;
place = (-5,27);
type = Stem;
},
{
horizontal = 1;
place = (468,-20);
target = down;
type = TopGhost;
},
{
place = (28,203);
type = Stem;
},
{
place = (350,170);
type = Stem;
}
);
layerId = "EECBB25E-CCC9-4EB7-9066-53ACD40459CA";
shapes = (
{
closed = 1;
nodes = (
(490,145,l),
(467,81,o),
(416,51,o),
(353,51,cs),
(232,51,o),
(224,182,o),
(224,273,cs),
(224,453,o),
(257,490,o),
(302,490,cs),
(329,490,o),
(350,464,o),
(350,416,cs),
(350,327,o),
(284,246,o),
(214,210,c),
(215,204,l),
(264,225,o),
(333,232,o),
(391,253,cs),
(446,273,o),
(491,311,o),
(491,367,cs),
(491,456,o),
(402,500,o),
(289,500,cs),
(138,500,o),
(22,422,o),
(22,244,cs),
(22,68,o),
(123,-9,o),
(267,-9,cs),
(379,-9,o),
(461,39,o),
(498,142,c)
);
}
);
width = 511;
}
);
leftKerningGroup = _kern2;
rightKerningGroup = _kern2;
unicode = 101;
},
{
color = (153, 255, 154, 255);
glyphname = e.55;
layers = (
{
background = {
shapes = (
{
closed = 1;
nodes = (
(493,145,l),
(470,81,o),
(419,51,o),
(356,51,cs),
(254,51,o),
(227,140,o),
(227,273,cs),
(227,453,o),
(260,490,o),
(305,490,cs),
(332,490,o),
(353,464,o),
(353,416,cs),
(353,321,o),
(278,235,o),
(204,204,cs),
(196,201,o),
(168,172,o),
(175,179,cs),
(216,220,o),
(317,225,o),
(394,253,cs),
(449,273,o),
(494,311,o),
(494,367,cs),
(494,456,o),
(405,500,o),
(292,500,cs),
(141,500,o),
(25,422,o),
(25,244,cs),
(25,68,o),
(126,-9,o),
(270,-9,cs),
(382,-9,o),
(464,39,o),
(501,142,c)
);
}
);
};
layerId = "4B09473C-DE20-458D-B091-F76EF41CC662";
leftMetricsKey = o;
shapes = (
{
closed = 1;
nodes = (
(417,124,l),
(395,58,o),
(338,26,o),
(271,26,cs),
(175,26,o),
(127,92,o),
(111,184,c),
(157,206,o),
(254,223,o),
(324,255,c),
(542,345,o),
(672,485,o),
(672,640,cs),
(672,831,o),
(518,985,o),
(327,985,cs),
(217,985,o),
(119,933,o),
(56,853,c),
(60,848,l),
(122,928,o),
(218,979,o),
(327,979,cs),
(514,979,o),
(666,827,o),
(666,640,cs),
(666,503,o),
(558,376,o),
(378,287,c),
(405,310,o),
(421,339,o),
(421,381,cs),
(421,462,o),
(339,500,o),
(257,500,cs),
(126,500,o),
(28,394,o),
(28,237,cs),
(28,68,o),
(112,-9,o),
(232,-9,cs),
(319,-9,o),
(392,32,o),
(425,121,c)
);
},
{
closed = 1;
nodes = (
(106,215,o),
(105,236,o),
(105,258,cs),
(105,352,o),
(129,490,o),
(259,490,cs),
(323,490,o),
(354,454,o),
(354,399,cs),
(354,309,o),
(239,229,o),
(109,195,c)
);
}
);
width = 457;
},
{
layerId = "EECBB25E-CCC9-4EB7-9066-53ACD40459CA";
shapes = (
{
closed = 1;
nodes = (
(493,145,l),
(470,81,o),
(419,51,o),
(356,51,cs),
(271,51,o),
(238,112,o),
(230,209,c),
(278,226,o),
(341,234,o),
(394,253,c),
(631,332,o),
(745,485,o),
(745,640,cs),
(745,831,o),
(591,985,o),
(400,985,cs),
(290,985,o),
(192,933,o),
(129,853,c),
(133,848,l),
(195,928,o),
(291,979,o),
(400,979,cs),
(587,979,o),
(739,827,o),
(739,640,cs),
(739,501,o),
(642,363,o),
(446,280,c),
(475,302,o),
(494,331,o),
(494,367,cs),
(494,456,o),
(405,500,o),
(292,500,cs),
(141,500,o),
(25,422,o),
(25,244,cs),
(25,68,o),
(126,-9,o),
(270,-9,cs),
(382,-9,o),
(464,39,o),
(501,142,c)
);
},
{
closed = 1;
nodes = (
(228,234,o),
(227,253,o),
(227,273,cs),
(227,453,o),
(260,490,o),
(305,490,cs),
(332,490,o),
(353,464,o),
(353,416,cs),
(353,332,o),
(294,255,o),
(229,217,c)
);
}
);
width = 514;
}
);
leftKerningGroup = _kern2;
rightKerningGroup = _kern2;
},
{
color = (153, 255, 154, 255);
glyphname = e.4;
layers = (
{
background = {
shapes = (
{
closed = 1;
nodes = (
(299,490,l),
(304,490,ls),
(332,490,o),
(353,459,o),
(353,405,cs),
(353,298,o),
(277,201,o),
(203,166,cs),
(195,163,o),
(167,130,o),
(174,138,cs),
(215,184,o),
(316,190,o),
(394,221,cs),
(449,244,o),
(494,287,o),
(494,350,cs),
(494,448,o),
(409,498,o),
(298,500,c)
);
},
{
closed = 1;
nodes = (
(226,251,l),
(226,260,o),
(226,270,o),
(226,279,cs),
(226,420,o),
(259,490,o),
(300,490,c),
(299,500,l),
(292,500,ls),
(131,500,o),
(23,386,o),
(23,205,cs),
(23,193,o),
(24,180,o),
(25,168,c)
);
},
{
closed = 1;
nodes = (
(25,168,l),
(51,-151,o),
(422,-306,o),
(691,-306,cs),
(1065,-306,o),
(1352,-7,o),
(1352,309,cs),
(1352,596,o),
(1116,834,o),
(813,834,cs),
(668,834,o),
(540,780,o),
(443,692,c),
(448,688,l),
(544,775,o),
(670,828,o),
(812,828,cs),
(1109,828,o),
(1346,597,o),
(1346,307,cs),
(1346,2,o),
(1083,-263,o),
(744,-263,cs),
(508,-263,o),
(239,-134,o),
(226,251,c)
);
}
);
};
layerId = "4B09473C-DE20-458D-B091-F76EF41CC662";
shapes = (
{
closed = 1;
nodes = (
(389,688,l),
(485,775,o),
(611,828,o),
(753,828,cs),
(1050,828,o),
(1287,597,o),
(1287,310,cs),
(1287,-7,o),
(998,-280,o),
(659,-280,cs),
(372,-280,o),
(135,-118,o),
(113,184,c),
(159,206,o),
(250,218,o),
(319,255,cs),
(373,284,o),
(416,319,o),
(416,380,cs),
(416,464,o),
(336,500,o),
(260,500,cs),
(130,500,o),
(34,365,o),
(34,203,cs),
(34,-133,o),
(360,-306,o),
(617,-306,cs),
(955,-306,o),
(1293,-47,o),
(1293,310,cs),
(1293,597,o),
(1057,834,o),
(754,834,cs),
(609,834,o),
(481,780,o),
(384,692,c)
);
},
{
closed = 1;
nodes = (
(111,207,o),
(111,219,o),
(111,231,cs),
(111,343,o),
(139,490,o),
(260,490,cs),
(317,490,o),
(349,466,o),
(349,411,cs),
(349,309,o),
(242,229,o),
(112,195,c)
);
}
);
width = 448;
},
{
layerId = "EECBB25E-CCC9-4EB7-9066-53ACD40459CA";
shapes = (
{
closed = 1;
nodes = (
(448,688,l),
(544,775,o),
(670,828,o),
(812,828,cs),
(1109,828,o),
(1346,597,o),
(1346,307,cs),
(1346,2,o),
(1083,-263,o),
(744,-263,cs),
(524,-263,o),
(277,-152,o),
(233,173,c),
(281,191,o),
(342,200,o),
(394,221,cs),
(449,244,o),
(494,287,o),
(494,350,cs),
(494,448,o),
(410,500,o),
(299,500,cs),
(138,500,o),
(23,386,o),
(23,201,cs),
(23,-139,o),
(412,-306,o),
(691,-306,cs),
(1065,-306,o),
(1352,-7,o),
(1352,309,cs),
(1352,596,o),
(1116,834,o),
(813,834,cs),
(668,834,o),
(540,780,o),
(443,692,c)
);
},
{
closed = 1;
nodes = (
(228,213,o),
(226,245,o),
(226,279,cs),
(226,419,o),
(259,489,o),
(300,490,c),
(333,490,o),
(353,459,o),
(353,405,cs),
(353,312,o),
(295,226,o),
(232,183,c)
);
}
);
width = 514;
}
);
leftKerningGroup = _kern2;
rightKerningGroup = _kern2;
},
{
color = (153, 255, 154, 255);
glyphname = e.8;
layers = (
{
background = {
};
layerId = "4B09473C-DE20-458D-B091-F76EF41CC662";
shapes = (
{
closed = 1;
nodes = (
(-2584,346,l),
(-2447,626,o),
(-2160,821,o),
(-1831,821,cs),
(-1299,821,o),
(-888,401,o),
(-506,4,cs),
(-166,-350,o),
(156,-685,o),
(540,-685,cs),
(909,-685,o),
(1109,-429,o),
(1109,-180,cs),
(1109,58,o),
(927,290,o),
(540,290,cs),
(480,290,o),
(393,274,o),
(334,259,c),
(387,289,o),
(424,320,o),
(424,381,cs),
(424,462,o),
(342,500,o),
(260,500,cs),
(129,500,o),
(31,394,o),
(31,237,cs),
(31,68,o),
(115,-9,o),
(235,-9,cs),
(322,-9,o),
(395,32,o),
(428,121,c),
(420,124,l),
(398,58,o),
(341,26,o),
(274,26,cs),
(178,26,o),
(130,92,o),
(114,184,c),
(211,223,o),
(436,284,o),
(540,284,cs),
(923,284,o),
(1103,54,o),
(1103,-180,cs),
(1103,-427,o),
(905,-679,o),
(540,-679,cs),
(163,-679,o),
(-167,-340,o),
(-502,8,cs),
(-875,396,o),
(-1291,827,o),
(-1831,827,cs),
(-2162,827,o),
(-2452,630,o),
(-2590,348,c)
);
},
{
closed = 1;
nodes = (
(326,490,o),
(357,454,o),
(357,399,cs),
(357,309,o),
(242,229,o),
(112,195,c),
(109,215,o),
(108,236,o),
(108,258,cs),
(108,352,o),
(132,490,o),
(262,490,cs)
);
}
);
width = 458;
},
{
layerId = "EECBB25E-CCC9-4EB7-9066-53ACD40459CA";
shapes = (
{
closed = 1;
nodes = (
(-2533,346,l),
(-2396,626,o),
(-2109,821,o),
(-1780,821,cs),
(-1248,821,o),
(-836,401,o),
(-455,4,cs),
(-114,-350,o),
(207,-685,o),
(591,-685,cs),
(960,-685,o),
(1160,-429,o),
(1160,-180,cs),
(1160,58,o),
(978,290,o),
(591,290,cs),
(545,290,o),
(483,281,o),
(429,269,c),
(467,291,o),
(494,324,o),
(494,367,cs),
(494,456,o),
(405,500,o),
(292,500,cs),
(141,500,o),
(25,422,o),
(25,244,cs),
(25,68,o),
(126,-9,o),
(270,-9,cs),
(382,-9,o),
(464,39,o),
(501,142,c),
(493,145,l),
(470,81,o),
(419,51,o),
(356,51,cs),
(271,51,o),
(238,112,o),
(230,209,c),
(326,242,o),
(491,284,o),
(591,284,cs),
(974,284,o),
(1154,54,o),
(1154,-180,cs),
(1154,-427,o),
(956,-679,o),
(591,-679,cs),
(214,-679,o),
(-116,-340,o),
(-451,8,cs),
(-824,396,o),
(-1240,827,o),
(-1780,827,cs),
(-2111,827,o),
(-2401,630,o),
(-2539,348,c)
);
},
{
closed = 1;
nodes = (
(332,490,o),
(353,464,o),
(353,416,cs),
(353,332,o),
(294,255,o),
(229,217,c),
(228,234,o),
(227,253,o),
(227,273,cs),
(227,453,o),
(260,490,o),
(305,490,cs)
);
}
);
width = 514;
}
);
leftKerningGroup = _kern2;
rightKerningGroup = _kern2;
},
{
color = (153, 255, 154, 255);
glyphname = e.8.acc;
layers = (
{
background = {
};
layerId = "4B09473C-DE20-458D-B091-F76EF41CC662";
shapes = (
{
closed = 1;
nodes = (
(-2584,346,l),
(-2447,626,o),
(-2160,821,o),
(-1831,821,cs),
(-1299,821,o),
(-888,401,o),
(-506,4,cs),
(-166,-350,o),
(156,-714,o),
(556,-714,cs),
(909,-714,o),
(1109,-429,o),
(1109,-180,cs),
(1109,58,o),
(927,290,o),
(540,290,cs),
(480,290,o),
(393,274,o),
(334,259,c),
(387,289,o),
(424,320,o),
(424,381,cs),
(424,462,o),
(342,500,o),
(260,500,cs),
(129,500,o),
(31,394,o),
(31,237,cs),
(31,68,o),
(115,-9,o),
(235,-9,cs),
(322,-9,o),
(395,32,o),
(428,121,c),
(420,124,l),
(398,58,o),
(341,26,o),
(274,26,cs),
(178,26,o),
(130,92,o),
(114,184,c),
(211,225,o),
(436,284,o),
(540,284,cs),
(923,284,o),
(1103,54,o),
(1103,-181,cs),
(1103,-427,o),
(905,-654,o),
(568,-654,cs),
(163,-654,o),
(-167,-340,o),
(-502,8,cs),
(-875,396,o),
(-1291,827,o),
(-1831,827,cs),
(-2162,827,o),
(-2452,630,o),
(-2590,348,c)
);
},
{
closed = 1;
nodes = (
(109,215,o),
(108,236,o),
(108,258,cs),
(108,352,o),
(132,490,o),
(262,490,cs),
(326,490,o),
(357,454,o),
(357,399,cs),
(357,309,o),
(242,229,o),
(112,195,c)
);
}
);
width = 458;
},
{
layerId = "EECBB25E-CCC9-4EB7-9066-53ACD40459CA";
shapes = (
{
closed = 1;
nodes = (
(-2533,346,l),
(-2396,626,o),
(-2109,821,o),
(-1780,821,cs),
(-1248,821,o),
(-836,401,o),
(-455,4,cs),
(-114,-350,o),
(207,-778,o),
(603,-778,cs),
(975,-778,o),
(1166,-519,o),
(1166,-251,cs),
(1166,105,o),
(921,290,o),
(591,290,cs),
(545,290,o),
(483,281,o),
(429,269,c),
(467,291,o),
(494,324,o),
(494,367,cs),
(494,456,o),
(405,500,o),
(292,500,cs),
(141,500,o),
(25,422,o),
(25,244,cs),
(25,68,o),
(126,-9,o),
(270,-9,cs),
(382,-9,o),
(464,39,o),
(501,142,c),
(493,145,l),
(470,81,o),
(419,51,o),
(356,51,cs),
(271,51,o),
(238,112,o),
(230,209,c),
(327,243,o),
(490,284,o),
(591,284,cs),
(974,284,o),
(1154,30,o),
(1154,-181,cs),
(1154,-427,o),
(956,-648,o),
(616,-648,cs),
(214,-648,o),
(-116,-340,o),
(-451,8,cs),
(-824,396,o),
(-1240,827,o),
(-1780,827,cs),
(-2111,827,o),
(-2401,630,o),
(-2539,348,c)
);
},
{
closed = 1;
nodes = (
(228,234,o),
(227,253,o),
(227,273,cs),
(227,453,o),
(260,490,o),
(305,490,cs),
(332,490,o),
(353,464,o),
(353,416,cs),
(353,332,o),
(294,255,o),
(229,217,c)
);
}
);
width = 514;
}
);
leftKerningGroup = _kern2;
rightKerningGroup = _kern2;
},
{
color = (153, 255, 154, 255);
glyphname = e.999;
layers = (
{
anchors = (
{
name = top;
position = "{245, 577}";
},
{
name = bottom;
position = "{216, -77}";
}
);
guides = (
{
position = "{0, -77}";
}
);
hints = (
{
horizontal = 1;
place = (-5,27);
type = Stem;
},
{
horizontal = 1;
place = (468,-20);
target = down;
type = TopGhost;
},
{
place = (-23,253);
type = Stem;
},
{
place = (299,220);
type = Stem;
}
);
layerId = "4B09473C-DE20-458D-B091-F76EF41CC662";
leftMetricsKey = o;
shapes = (
{
closed = 1;
nodes = (
(152,203,o),
(255,214,o),
(327,250,cs),
(386,279,o),
(424,312,o),
(424,376,cs),
(424,457,o),
(347,500,o),
(265,500,cs),
(126,500,o),
(28,371,o),
(28,212,cs),
(28,29,o),
(133,-93,o),
(314,-93,cs),
(486,-93,o),
(576,9,o),
(576,125,cs),
(576,191,o),
(547,237,o),
(497,237,cs),
(461,237,o),
(436,212,o),
(436,183,cs),
(436,155,o),
(459,129,o),
(494,129,cs),
(522,129,o),
(544,145,o),
(553,165,c),
(558,150,o),
(560,136,o),
(560,119,cs),
(560,1,o),
(475,-70,o),
(358,-70,cs),
(203,-70,o),
(123,34,o),
(105,182,c)
);
},
{
closed = 1;
nodes = (
(102,213,o),
(101,232,o),
(101,251,cs),
(101,377,o),
(162,490,o),
(263,490,cs),
(328,490,o),
(359,449,o),
(359,398,cs),
(359,305,o),
(239,227,o),
(104,194,c)
);
}
);
width = 618;
},
{
anchors = (
{
name = top;
position = "{289, 577}";
},
{
name = bottom;
position = "{267, -77}";
}
);
guides = (
{
position = "{0, -77}";
}
);
hints = (
{
horizontal = 1;
place = (-5,27);
type = Stem;
},
{
horizontal = 1;
place = (468,-20);
target = down;
type = TopGhost;
},
{
place = (28,203);
type = Stem;
},
{
place = (350,170);
type = Stem;
}
);
layerId = "EECBB25E-CCC9-4EB7-9066-53ACD40459CA";
shapes = (
{
closed = 1;
nodes = (
(276,226,o),
(339,234,o),
(391,253,cs),
(446,273,o),
(491,311,o),
(491,367,cs),
(491,456,o),
(402,500,o),
(289,500,cs),
(138,500,o),
(22,404,o),
(22,226,cs),
(22,-1,o),
(196,-102,o),
(372,-102,cs),
(648,-102,o),
(746,49,o),
(746,181,cs),
(746,267,o),
(699,337,o),
(619,337,cs),
(554,337,o),
(510,292,o),
(510,239,cs),
(510,188,o),
(551,141,o),
(614,141,cs),
(663,141,o),
(704,170,o),
(720,207,c),
(723,190,o),
(725,173,o),
(725,157,cs),
(725,34,o),
(623,-63,o),
(493,-63,cs),
(396,-63,o),
(252,0,o),
(228,209,c)
);
},
{
closed = 1;
nodes = (
(225,235,o),
(224,253,o),
(224,273,cs),
(224,453,o),
(257,490,o),
(302,490,cs),
(329,490,o),
(350,464,o),
(350,416,cs),
(350,332,o),
(291,255,o),
(227,217,c)
);
}
);
width = 763;
}
);
leftKerningGroup = _kern2;
rightKerningGroup = _kern2;
},
{
glyphname = e.9;
layers = (
{
layerId = "4B09473C-DE20-458D-B091-F76EF41CC662";
shapes = (
{
closed = 1;
nodes = (
(623,887,l),
(782,1024,o),
(988,1107,o),
(1213,1107,cs),
(1712,1107,o),
(2118,699,o),
(2118,199,cs),
(2118,-343,o),
(1644,-713,o),
(1092,-713,cs),
(558,-713,o),
(104,-362,o),
(104,180,c),
(150,203,o),
(242,218,o),
(320,259,cs),
(373,288,o),
(410,329,o),
(410,393,cs),
(410,464,o),
(338,500,o),
(271,500,cs),
(98,500,o),
(28,276,o),
(28,134,cs),
(28,-424,o),
(583,-725,o),
(1056,-725,cs),
(1637,-725,o),
(2124,-366,o),
(2124,199,cs),
(2124,711,o),
(1716,1113,o),
(1214,1113,cs),
(984,1113,o),
(775,1028,o),
(615,889,c)
);
},
{
closed = 1;
nodes = (
(105,203,o),
(106,215,o),
(106,226,c),
(113,342,o),
(144,492,o),
(265,492,cs),
(310,492,o),
(342,467,o),
(342,415,cs),
(342,309,o),
(235,226,o),
(105,192,c)
);
}
);
width = 448;
},
{
layerId = "EECBB25E-CCC9-4EB7-9066-53ACD40459CA";
shapes = (
{
closed = 1;
nodes = (
(683,887,l),
(842,1024,o),
(1048,1107,o),
(1273,1107,cs),
(1772,1107,o),
(2178,701,o),
(2178,201,cs),
(2178,-330,o),
(1720,-706,o),
(1173,-706,cs),
(661,-706,o),
(247,-378,o),
(215,150,c),
(268,171,o),
(335,178,o),
(391,202,cs),
(446,226,o),
(495,270,o),
(495,350,cs),
(495,462,o),
(400,499,o),
(302,500,cs),
(150,501,o),
(22,385,o),
(22,139,cs),
(22,-388,o),
(562,-725,o),
(1116,-725,cs),
(1686,-725,o),
(2184,-369,o),
(2184,196,cs),
(2184,708,o),
(1776,1113,o),
(1274,1113,cs),
(1044,1113,o),
(835,1028,o),
(675,889,c)
);
},
{
closed = 1;
nodes = (
(213,180,o),
(213,198,o),
(213,217,cs),
(213,407,o),
(261,490,o),
(301,490,cs),
(337,490,o),
(353,456,o),
(353,403,cs),
(353,294,o),
(285,202,o),
(214,162,c)
);
}
);
width = 514;
}
);
leftKerningGroup = _kern2;
rightKerningGroup = _kern2;
},
{
color = (255, 153, 153, 255);
glyphname = f;
layers = (
{
background = {
shapes = (
{
closed = 1;
nodes = (
(221,497,l),
(221,623,ls),
(221,670,o),
(238,727,o),
(291,727,cs),
(314,727,o),
(325,716,o),
(328,709,c),
(295,694,o),
(279,660,o),
(279,626,cs),
(279,582,o),
(305,538,o),
(358,538,cs),
(407,538,o),
(435,575,o),
(435,624,cs),
(435,682,o),
(397,737,o),
(265,737,cs),
(88,737,o),
(24,639,o),
(24,505,cs),
(24,444,l)
);
},
{
closed = 1;
nodes = (
(24,505,l),
(24,0,l),
(221,0,l),
(221,505,l)
);
}
);
};
hints = (
{
horizontal = 1;
place = (-6,21);
target = up;
type = BottomGhost;
},
{
horizontal = 1;
place = (446,157);
type = Stem;
},
{
horizontal = 1;
place = (523,80);
type = Stem;
},
{
horizontal = 1;
place = (712,24);
type = Stem;
},
{
place = (22,57);
type = Stem;
},
{
place = (38,197);
type = Stem;
}
);
layerId = "4B09473C-DE20-458D-B091-F76EF41CC662";
shapes = (
{
closed = 1;
nodes = (
(92,0,l),
(160,0,l),
(160,473,l),
(296,473,l),
(296,481,l),
(160,481,l),
(160,608,ls),
(160,688,o),
(198,728,o),
(245,728,cs),
(267,728,o),
(281,719,o),
(284,705,c),
(264,696,o),
(249,674,o),
(249,650,cs),
(249,626,o),
(264,601,o),
(296,601,cs),
(327,601,o),
(344,624,o),
(344,656,cs),
(344,706,o),
(302,736,o),
(238,736,cs),
(131,736,o),
(92,653,o),
(92,552,cs),
(92,481,l),
(10,481,l),
(10,473,l),
(92,473,l)
);
}
);
width = 294;
},
{
hints = (
{
horizontal = 1;
place = (-6,21);
target = up;
type = BottomGhost;
},
{
horizontal = 1;
place = (446,157);
type = Stem;
},
{
horizontal = 1;
place = (523,80);
type = Stem;
},
{
horizontal = 1;
place = (712,24);
type = Stem;
},
{
place = (70,57);
type = Stem;
},
{
place = (86,197);
type = Stem;
}
);
layerId = "EECBB25E-CCC9-4EB7-9066-53ACD40459CA";
shapes = (
{
closed = 1;
nodes = (
(67,0,l),
(264,0,l),
(264,473,l),
(339,473,l),
(339,481,l),
(264,481,l),
(264,623,ls),
(264,670,o),
(281,727,o),
(334,727,cs),
(357,727,o),
(368,716,o),
(371,709,c),
(338,694,o),
(322,660,o),
(322,626,cs),
(322,582,o),
(348,538,o),
(401,538,cs),
(450,538,o),
(478,575,o),
(478,624,cs),
(478,682,o),
(440,737,o),
(308,737,cs),
(131,737,o),
(67,639,o),
(67,505,cs),
(67,481,l),
(21,481,l),
(21,473,l),
(67,473,l)
);
}
);
width = 337;
}
);
unicode = 102;
},
{
color = (153, 255, 154, 255);
glyphname = f.7;
layers = (
{
layerId = "4B09473C-DE20-458D-B091-F76EF41CC662";
shapes = (
{
closed = 1;
nodes = (
(10,473,l),
(92,473,l),
(92,138,ls),
(92,-234,o),
(-170,-401,o),
(-445,-401,cs),
(-779,-401,o),
(-1051,-128,o),
(-1051,207,cs),
(-1051,540,o),
(-780,811,o),
(-447,811,cs),
(-292,811,o),
(-150,752,o),
(-43,655,c),
(-37,659,l),
(-145,757,o),
(-289,817,o),
(-447,817,cs),
(-784,817,o),
(-1057,544,o),
(-1057,207,cs),
(-1057,-136,o),
(-780,-413,o),
(-437,-413,cs),
(-117,-413,o),
(164,-192,o),
(164,173,cs),
(164,277,o),
(138,378,o),
(127,473,c),
(296,473,l),
(296,481,l),
(126,481,l),
(123,506,o),
(121,531,o),
(121,555,cs),
(121,698,o),
(184,729,o),
(232,729,cs),
(249,729,o),
(280,725,o),
(284,705,c),
(264,696,o),
(249,674,o),
(249,650,cs),
(249,626,o),
(264,601,o),
(296,601,cs),
(327,601,o),
(344,624,o),
(344,656,cs),
(344,706,o),
(302,736,o),
(243,736,cs),
(131,736,o),
(92,626,o),
(92,525,cs),
(92,481,l),
(10,481,l)
);
}
);
width = 247;
},
{
layerId = "EECBB25E-CCC9-4EB7-9066-53ACD40459CA";
shapes = (
{
closed = 1;
nodes = (
(16,473,l),
(62,473,l),
(62,138,ls),
(62,-231,o),
(-187,-397,o),
(-452,-397,cs),
(-791,-397,o),
(-1060,-126,o),
(-1060,207,cs),
(-1060,540,o),
(-789,811,o),
(-456,811,cs),
(-301,811,o),
(-159,752,o),
(-52,655,c),
(-46,659,l),
(-154,757,o),
(-298,817,o),
(-456,817,cs),
(-793,817,o),
(-1066,546,o),
(-1066,203,cs),
(-1066,-136,o),
(-800,-413,o),
(-422,-413,cs),
(-81,-413,o),
(263,-187,o),
(263,164,cs),
(263,282,o),
(224,387,o),
(190,473,c),
(334,473,l),
(334,481,l),
(187,481,l),
(162,543,o),
(141,596,o),
(141,637,cs),
(141,697,o),
(186,729,o),
(237,729,cs),
(250,729,o),
(276,727,o),
(281,709,c),
(248,694,o),
(232,660,o),
(232,626,cs),
(232,582,o),
(258,538,o),
(311,538,cs),
(360,538,o),
(388,575,o),
(388,625,cs),
(388,681,o),
(352,737,o),
(249,737,cs),
(98,737,o),
(62,616,o),
(62,505,cs),
(62,481,l),
(16,481,l)
);
}
);
width = 316;
}
);
},
{
color = (255, 153, 153, 255);
glyphname = g;
layers = (
{
hints = (
{
horizontal = 1;
place = (-281,21);
target = up;
type = BottomGhost;
},
{
horizontal = 1;
place = (-95,166);
type = Stem;
},
{
horizontal = 1;
place = (-95,226);
type = Stem;
},
{
horizontal = 1;
place = (459,198);
type = Stem;
},
{
horizontal = 1;
place = (511,146);
type = Stem;
},
{
horizontal = 1;
place = (560,97);
type = Stem;
},
{
place = (31,96);
type = Stem;
},
{
place = (53,28);
type = Stem;
},
{
place = (53,181);
type = Stem;
},
{
place = (345,219);
type = Stem;
},
{
place = (362,183);
type = Stem;
},
{
place = (499,65);
type = Stem;
},
{
place = (513,51);
type = Stem;
}
);
layerId = "4B09473C-DE20-458D-B091-F76EF41CC662";
shapes = (
{
closed = 1;
nodes = (
(134,13,l),
(74,23,o),
(10,-9,o),
(10,-76,cs),
(10,-188,o),
(152,-211,o),
(249,-211,cs),
(418,-211,o),
(503,-123,o),
(503,-38,cs),
(503,37,o),
(445,89,o),
(360,89,cs),
(304,89,o),
(241,75,o),
(171,75,cs),
(114,75,o),
(75,90,o),
(75,124,cs),
(75,159,o),
(112,187,o),
(150,193,c),
(155,198,l),
(97,192,o),
(34,161,o),
(34,93,cs),
(34,36,o),
(86,8,o),
(168,9,cs),
(233,10,o),
(287,22,o),
(344,22,cs),
(422,22,o),
(466,-1,o),
(466,-79,cs),
(466,-137,o),
(404,-205,o),
(249,-205,cs),
(167,-205,o),
(58,-178,o),
(58,-94,cs),
(58,-29,o),
(104,15,o),
(168,9,c)
);
},
{
closed = 1;
nodes = (
(347,172,o),
(440,211,o),
(440,335,cs),
(440,462,o),
(329,500,o),
(251,500,cs),
(173,500,o),
(62,462,o),
(62,335,cs),
(62,211,o),
(155,172,o),
(251,172,cs)
);
},
{
closed = 1;
nodes = (
(226,450,l),
(268,469,o),
(303,533,o),
(303,585,cs),
(303,622,o),
(286,651,o),
(246,651,cs),
(216,651,o),
(196,635,o),
(196,611,cs),
(196,592,o),
(208,572,o),
(238,572,cs),
(253,572,o),
(275,577,o),
(284,590,c),
(292,553,o),
(273,476,o),
(221,450,c)
);
},
{
closed = 1;
nodes = (
(335,494,o),
(372,414,o),
(372,336,cs),
(372,260,o),
(335,178,o),
(251,178,cs),
(167,178,o),
(130,260,o),
(130,336,cs),
(130,414,o),
(167,494,o),
(251,494,cs)
);
}
);
width = 489;
},
{
hints = (
{
horizontal = 1;
place = (-281,21);
target = up;
type = BottomGhost;
},
{
horizontal = 1;
place = (-95,166);
type = Stem;
},
{
horizontal = 1;
place = (-95,226);
type = Stem;
},
{
horizontal = 1;
place = (459,198);
type = Stem;
},
{
horizontal = 1;
place = (511,146);
type = Stem;
},
{
horizontal = 1;
place = (560,97);
type = Stem;
},
{
place = (53,96);
type = Stem;
},
{
place = (75,28);
type = Stem;
},
{
place = (75,181);
type = Stem;
},
{
place = (367,219);
type = Stem;
},
{
place = (384,183);
type = Stem;
},
{
place = (521,65);
type = Stem;
},
{
place = (535,51);
type = Stem;
}
);
layerId = "EECBB25E-CCC9-4EB7-9066-53ACD40459CA";
shapes = (
{
closed = 1;
nodes = (
(45,-30,l),
(25,-27,o),
(3,-69,o),
(3,-104,cs),
(3,-178,o),
(48,-255,o),
(267,-255,cs),
(469,-255,o),
(560,-155,o),
(560,-61,cs),
(560,24,o),
(493,104,o),
(365,104,cs),
(306,104,o),
(245,95,o),
(194,97,cs),
(134,99,o),
(92,107,o),
(92,139,cs),
(92,164,o),
(124,172,o),
(161,173,c),
(143,180,l),
(62,165,o),
(-4,129,o),
(-4,57,cs),
(-4,-49,o),
(102,-67,o),
(185,-67,cs),
(252,-67,o),
(294,-60,o),
(361,-60,cs),
(433,-60,o),
(484,-71,o),
(484,-133,cs),
(484,-188,o),
(434,-249,o),
(267,-249,cs),
(102,-249,o),
(46,-189,o),
(46,-139,cs),
(46,-96,o),
(87,-58,o),
(135,-63,c)
);
},
{
closed = 1;
nodes = (
(394,156,o),
(520,190,o),
(520,329,cs),
(520,463,o),
(372,500,o),
(270,500,cs),
(171,500,o),
(28,468,o),
(28,327,cs),
(28,189,o),
(157,156,o),
(268,156,cs)
);
},
{
closed = 1;
nodes = (
(258,438,l),
(321,492,o),
(356,542,o),
(356,600,cs),
(356,656,o),
(318,679,o),
(277,679,cs),
(236,679,o),
(206,656,o),
(206,621,cs),
(206,594,o),
(224,564,o),
(276,564,cs),
(289,564,o),
(309,568,o),
(326,577,c),
(326,533,o),
(311,491,o),
(252,438,c)
);
},
{
closed = 1;
nodes = (
(317,494,o),
(339,410,o),
(339,328,cs),
(339,246,o),
(315,162,o),
(268,162,cs),
(222,162,o),
(200,244,o),
(200,328,cs),
(200,412,o),
(224,494,o),
(270,494,cs)
);
}
);
width = 540;
}
);
unicode = 103;
},
{
color = (153, 255, 154, 255);
glyphname = g.7;
layers = (
{
background = {
shapes = (
{
closed = 1;
nodes = (
(352,156,o),
(453,197,o),
(453,327,cs),
(453,457,o),
(337,500,o),
(255,500,cs),
(172,500,o),
(53,457,o),
(53,327,cs),
(53,197,o),
(125,156,o),
(251,156,cs)
);
},
{
closed = 1;
nodes = (
(343,492,o),
(382,409,o),
(382,328,cs),
(382,247,o),
(343,164,o),
(255,164,cs),
(169,164,o),
(125,245,o),
(125,328,cs),
(125,411,o),
(169,492,o),
(255,492,cs)
);
}
);
};
layerId = "4B09473C-DE20-458D-B091-F76EF41CC662";
shapes = (
{
closed = 1;
nodes = (
(46,481,l),
(63,475,l),
(79,468,o),
(95,461,o),
(112,454,c),
(83,428,o),
(62,390,o),
(62,335,cs),
(62,264,o),
(92,221,o),
(136,197,c),
(84,187,o),
(34,155,o),
(34,93,cs),
(34,52,o),
(61,26,o),
(108,15,c),
(57,13,o),
(10,-19,o),
(10,-76,cs),
(10,-188,o),
(152,-211,o),
(249,-211,cs),
(418,-211,o),
(503,-123,o),
(503,-38,cs),
(503,37,o),
(445,89,o),
(360,89,cs),
(304,89,o),
(241,75,o),
(171,75,cs),
(114,75,o),
(75,90,o),
(75,124,cs),
(75,158,o),
(109,185,o),
(146,192,c),
(177,178,o),
(214,172,o),
(251,172,cs),
(347,172,o),
(440,211,o),
(440,335,cs),
(440,390,o),
(419,428,o),
(389,454,c),
(495,504,o),
(572,608,o),
(572,721,cs),
(572,857,o),
(462,1014,o),
(260,1014,cs),
(-81,1014,o),
(-315,548,o),
(-716,548,cs),
(-872,548,o),
(-999,675,o),
(-999,831,cs),
(-999,987,o),
(-872,1115,o),
(-716,1115,cs),
(-644,1115,o),
(-578,1087,o),
(-528,1043,c),
(-523,1047,l),
(-574,1093,o),
(-642,1121,o),
(-716,1121,cs),
(-875,1121,o),
(-1006,991,o),
(-1006,831,cs),
(-1006,671,o),
(-874,542,o),
(-716,542,cs),
(-316,542,o),
(-69,1008,o),
(258,1008,cs),
(447,1008,o),
(546,858,o),
(546,723,cs),
(546,610,o),
(477,510,o),
(381,461,c),
(343,489,o),
(292,500,o),
(251,500,cs),
(209,500,o),
(157,489,o),
(118,458,c),
(99,466,o),
(82,474,o),
(65,481,c),
(48,487,l)
);
},
{
closed = 1;
nodes = (
(155,9,o),
(161,9,o),
(168,9,cs),
(233,10,o),
(287,22,o),
(344,22,cs),
(422,22,o),
(466,-1,o),
(466,-79,cs),
(466,-136,o),
(404,-203,o),
(249,-203,cs),
(167,-203,o),
(58,-177,o),
(58,-94,cs),
(58,-36,o),
(95,6,o),
(149,9,c)
);
},
{
closed = 1;
nodes = (
(185,429,o),
(217,423,o),
(252,423,cs),
(285,423,o),
(316,428,o),
(346,438,c),
(364,409,o),
(372,372,o),
(372,336,cs),
(372,261,o),
(335,180,o),
(251,180,cs),
(167,180,o),
(130,261,o),
(130,336,cs),
(130,372,o),
(138,409,o),
(156,438,c)
);
},
{
closed = 1;
nodes = (
(179,473,o),
(209,492,o),
(251,492,cs),
(292,492,o),
(322,473,o),
(342,444,c),
(314,434,o),
(283,429,o),
(252,429,cs),
(219,429,o),
(188,435,o),
(159,444,c)
);
}
);
width = 498;
},
{
layerId = "EECBB25E-CCC9-4EB7-9066-53ACD40459CA";
shapes = (
{
closed = 1;
nodes = (
(63,481,l),
(80,475,l),
(89,471,o),
(97,467,o),
(106,463,c),
(61,437,o),
(28,395,o),
(28,327,cs),
(28,246,o),
(73,201,o),
(132,178,c),
(56,162,o),
(-4,126,o),
(-4,57,cs),
(-4,16,o),
(12,-12,o),
(37,-31,c),
(19,-38,o),
(3,-74,o),
(3,-104,cs),
(3,-178,o),
(48,-255,o),
(267,-255,cs),
(469,-255,o),
(560,-155,o),
(560,-61,cs),
(560,24,o),
(493,104,o),
(365,104,cs),
(306,104,o),
(245,95,o),
(194,97,cs),
(134,99,o),
(92,107,o),
(92,139,cs),
(92,161,o),
(117,170,o),
(148,172,c),
(185,160,o),
(228,156,o),
(268,156,cs),
(394,156,o),
(520,190,o),
(520,329,cs),
(520,398,o),
(481,441,o),
(430,466,c),
(523,520,o),
(589,617,o),
(589,721,cs),
(589,857,o),
(479,1014,o),
(277,1014,cs),
(-64,1014,o),
(-298,548,o),
(-699,548,cs),
(-855,548,o),
(-982,675,o),
(-982,831,cs),
(-982,987,o),
(-855,1115,o),
(-699,1115,cs),
(-627,1115,o),
(-561,1087,o),
(-511,1043,c),
(-506,1047,l),
(-557,1093,o),
(-625,1121,o),
(-699,1121,cs),
(-858,1121,o),
(-989,991,o),
(-989,831,cs),
(-989,671,o),
(-857,542,o),
(-699,542,cs),
(-299,542,o),
(-52,1008,o),
(275,1008,cs),
(464,1008,o),
(563,858,o),
(563,723,cs),
(563,618,o),
(504,524,o),
(418,472,c),
(371,492,o),
(316,500,o),
(270,500,cs),
(221,500,o),
(161,492,o),
(113,467,c),
(103,472,o),
(92,477,o),
(82,481,cs),
(65,487,l)
);
},
{
closed = 1;
nodes = (
(143,-66,o),
(165,-67,o),
(185,-67,cs),
(252,-67,o),
(294,-60,o),
(361,-60,cs),
(433,-60,o),
(484,-71,o),
(484,-133,cs),
(484,-189,o),
(434,-251,o),
(267,-251,cs),
(102,-251,o),
(46,-190,o),
(46,-139,cs),
(46,-100,o),
(80,-65,o),
(122,-63,c)
);
},
{
closed = 1;
nodes = (
(231,425,o),
(249,423,o),
(269,423,cs),
(288,423,o),
(307,425,o),
(326,428,c),
(335,399,o),
(339,363,o),
(339,328,cs),
(339,247,o),
(315,164,o),
(268,164,cs),
(222,164,o),
(200,245,o),
(200,328,cs),
(200,364,o),
(204,399,o),
(213,428,c)
);
},
{
closed = 1;
nodes = (
(227,469,o),
(245,492,o),
(270,492,cs),
(295,492,o),
(313,469,o),
(324,435,c),
(306,431,o),
(288,429,o),
(269,429,cs),
(250,429,o),
(232,431,o),
(215,434,c)
);
}
);
width = 543;
}
);
},
{
color = (153, 255, 154, 255);
glyphname = g.77;
layers = (
{
background = {
shapes = (
{
closed = 1;
nodes = (
(350,156,o),
(451,197,o),
(451,327,cs),
(451,457,o),
(335,500,o),
(253,500,cs),
(170,500,o),
(51,457,o),
(51,327,cs),
(51,197,o),
(123,156,o),
(249,156,cs)
);
},
{
closed = 1;
nodes = (
(341,492,o),
(380,409,o),
(380,328,cs),
(380,247,o),
(341,164,o),
(253,164,cs),
(167,164,o),
(123,245,o),
(123,328,cs),
(123,411,o),
(167,492,o),
(253,492,cs)
);
}
);
};
layerId = "4B09473C-DE20-458D-B091-F76EF41CC662";
shapes = (
{
closed = 1;
nodes = (
(-515,-291,l),
(-665,-418,o),
(-859,-494,o),
(-1070,-494,cs),
(-1546,-494,o),
(-1933,-107,o),
(-1933,369,cs),
(-1933,845,o),
(-1546,1232,o),
(-1070,1232,cs),
(-531,1232,o),
(-129,628,o),
(257,500,c),
(255,500,o),
(252,500,o),
(250,500,cs),
(149,498,o),
(61,448,o),
(61,335,cs),
(61,264,o),
(91,221,o),
(135,197,c),
(83,187,o),
(33,155,o),
(33,93,cs),
(33,52,o),
(60,26,o),
(107,15,c),
(56,13,o),
(9,-19,o),
(9,-76,cs),
(9,-188,o),
(151,-211,o),
(248,-211,cs),
(417,-211,o),
(502,-123,o),
(502,-38,cs),
(502,37,o),
(444,89,o),
(359,89,cs),
(303,89,o),
(240,75,o),
(170,75,cs),
(113,75,o),
(74,90,o),
(74,124,cs),
(74,158,o),
(108,185,o),
(145,192,c),
(176,178,o),
(213,172,o),
(250,172,cs),
(346,172,o),
(439,211,o),
(439,335,cs),
(439,411,o),
(399,455,o),
(350,479,c),
(365,477,o),
(379,476,o),
(394,476,cs),
(589,476,o),
(740,637,o),
(740,831,cs),
(740,1026,o),
(583,1183,o),
(388,1183,cs),
(281,1183,o),
(185,1136,o),
(121,1061,c),
(127,1060,l),
(188,1132,o),
(281,1177,o),
(388,1177,cs),
(580,1177,o),
(727,1034,o),
(727,842,cs),
(727,651,o),
(567,495,o),
(375,495,cs),
(-47,495,o),
(-463,1238,o),
(-1070,1238,cs),
(-1550,1238,o),
(-1939,849,o),
(-1939,369,cs),
(-1939,-111,o),
(-1550,-500,o),
(-1070,-500,cs),
(-857,-500,o),
(-661,-423,o),
(-510,-295,c)
);
},
{
closed = 1;
nodes = (
(154,9,o),
(160,9,o),
(167,9,cs),
(232,10,o),
(286,22,o),
(343,22,cs),
(421,22,o),
(465,-1,o),
(465,-79,cs),
(465,-136,o),
(403,-203,o),
(248,-203,cs),
(166,-203,o),
(57,-177,o),
(57,-94,cs),
(57,-36,o),
(94,6,o),
(148,9,c)
);
},
{
closed = 1;
nodes = (
(166,180,o),
(129,261,o),
(129,336,cs),
(129,413,o),
(166,492,o),
(250,492,cs),
(334,492,o),
(371,413,o),
(371,336,cs),
(371,261,o),
(334,180,o),
(250,180,cs)
);
}
);
width = 497;
},
{
layerId = "EECBB25E-CCC9-4EB7-9066-53ACD40459CA";
shapes = (
{
closed = 1;
nodes = (
(-497,-291,l),
(-647,-418,o),
(-841,-494,o),
(-1052,-494,cs),
(-1528,-494,o),
(-1915,-107,o),
(-1915,369,cs),
(-1915,845,o),
(-1528,1232,o),
(-1052,1232,cs),
(-513,1232,o),
(-111,629,o),
(274,500,c),
(271,500,o),
(269,500,o),
(266,500,cs),
(156,498,o),
(28,461,o),
(28,327,cs),
(28,246,o),
(73,201,o),
(132,178,c),
(56,162,o),
(-4,126,o),
(-4,57,cs),
(-4,16,o),
(12,-12,o),
(37,-31,c),
(19,-38,o),
(3,-74,o),
(3,-104,cs),
(3,-178,o),
(48,-255,o),
(267,-255,cs),
(469,-255,o),
(560,-155,o),
(560,-61,cs),
(560,24,o),
(493,104,o),
(365,104,cs),
(306,104,o),
(245,95,o),
(194,97,cs),
(134,99,o),
(92,107,o),
(92,139,cs),
(92,161,o),
(117,170,o),
(148,172,c),
(185,160,o),
(228,156,o),
(268,156,cs),
(394,156,o),
(520,190,o),
(520,329,cs),
(520,407,o),
(470,452,o),
(408,476,c),
(410,476,o),
(411,476,o),
(412,476,c),
(607,476,o),
(758,637,o),
(758,831,cs),
(758,1026,o),
(601,1183,o),
(406,1183,cs),
(299,1183,o),
(203,1136,o),
(139,1061,c),
(145,1060,l),
(206,1132,o),
(299,1177,o),
(406,1177,cs),
(598,1177,o),
(745,1034,o),
(745,842,cs),
(745,651,o),
(585,495,o),
(393,495,cs),
(-29,495,o),
(-445,1238,o),
(-1052,1238,cs),
(-1532,1238,o),
(-1921,849,o),
(-1921,369,cs),
(-1921,-111,o),
(-1532,-500,o),
(-1052,-500,cs),
(-839,-500,o),
(-643,-423,o),
(-492,-295,c)
);
},
{
closed = 1;
nodes = (
(143,-66,o),
(165,-67,o),
(185,-67,cs),
(252,-67,o),
(294,-60,o),
(361,-60,cs),
(433,-60,o),
(484,-71,o),
(484,-133,cs),
(484,-189,o),
(434,-249,o),
(267,-249,cs),
(102,-249,o),
(46,-190,o),
(46,-139,cs),
(46,-100,o),
(80,-65,o),
(122,-63,c)
);
},
{
closed = 1;
nodes = (
(222,164,o),
(200,245,o),
(200,328,cs),
(200,411,o),
(224,492,o),
(270,492,cs),
(317,492,o),
(339,409,o),
(339,328,cs),
(339,247,o),
(315,164,o),
(268,164,cs)
);
}
);
width = 543;
}
);
},
{
color = (153, 255, 154, 255);
glyphname = g.7777;
layers = (
{
background = {
shapes = (
{
closed = 1;
nodes = (
(356,156,o),
(457,197,o),
(457,327,cs),
(457,457,o),
(341,500,o),
(259,500,cs),
(176,500,o),
(57,457,o),
(57,327,cs),
(57,197,o),
(129,156,o),
(255,156,cs)
);
},
{
closed = 1;
nodes = (
(347,492,o),
(386,409,o),
(386,328,cs),
(386,247,o),
(347,164,o),
(259,164,cs),
(173,164,o),
(129,245,o),
(129,328,cs),
(129,411,o),
(173,492,o),
(259,492,cs)
);
}
);
};
layerId = "4B09473C-DE20-458D-B091-F76EF41CC662";
shapes = (
{
closed = 1;
nodes = (
(1313,-296,l),
(1464,-424,o),
(1660,-501,o),
(1873,-501,cs),
(2353,-501,o),
(2742,-112,o),
(2742,368,cs),
(2742,848,o),
(2353,1237,o),
(1873,1237,cs),
(1256,1237,o),
(834,498,o),
(405,498,cs),
(225,498,o),
(76,652,o),
(76,841,cs),
(76,1033,o),
(223,1176,o),
(415,1176,cs),
(522,1176,o),
(615,1131,o),
(676,1059,c),
(682,1060,l),
(618,1135,o),
(522,1182,o),
(415,1182,cs),
(220,1182,o),
(63,1025,o),
(63,830,cs),
(63,678,o),
(151,547,o),
(278,499,c),
(269,500,o),
(260,500,o),
(252,500,cs),
(174,500,o),
(63,462,o),
(63,335,cs),
(63,264,o),
(93,221,o),
(137,197,c),
(85,187,o),
(35,155,o),
(35,93,cs),
(35,52,o),
(62,26,o),
(109,15,c),
(58,13,o),
(11,-19,o),
(11,-76,cs),
(11,-188,o),
(153,-211,o),
(250,-211,cs),
(419,-211,o),
(504,-123,o),
(504,-38,cs),
(504,37,o),
(446,89,o),
(361,89,cs),
(305,89,o),
(242,75,o),
(172,75,cs),
(115,75,o),
(76,90,o),
(76,124,cs),
(76,158,o),
(110,185,o),
(147,192,c),
(178,178,o),
(215,172,o),
(252,172,cs),
(348,172,o),
(441,211,o),
(441,335,cs),
(441,415,o),
(397,460,o),
(345,482,c),
(358,480,o),
(372,479,o),
(386,479,cs),
(822,479,o),
(1260,1231,o),
(1873,1231,cs),
(2349,1231,o),
(2736,844,o),
(2736,368,cs),
(2736,-108,o),
(2349,-495,o),
(1873,-495,cs),
(1662,-495,o),
(1468,-419,o),
(1318,-292,c)
);
},
{
closed = 1;
nodes = (
(156,9,o),
(162,9,o),
(169,9,cs),
(234,10,o),
(288,22,o),
(345,22,cs),
(423,22,o),
(467,-1,o),
(467,-79,cs),
(467,-136,o),
(405,-203,o),
(250,-203,cs),
(168,-203,o),
(59,-177,o),
(59,-94,cs),
(59,-36,o),
(96,6,o),
(150,9,c)
);
},
{
closed = 1;
nodes = (
(168,180,o),
(131,261,o),
(131,336,cs),
(131,413,o),
(168,492,o),
(252,492,cs),
(336,492,o),
(373,413,o),
(373,336,cs),
(373,261,o),
(336,180,o),
(252,180,cs)
);
}
);
width = 500;
},
{
layerId = "EECBB25E-CCC9-4EB7-9066-53ACD40459CA";
shapes = (
{
closed = 1;
nodes = (
(1329,-296,l),
(1480,-424,o),
(1676,-501,o),
(1889,-501,cs),
(2369,-501,o),
(2758,-112,o),
(2758,368,cs),
(2758,848,o),
(2369,1237,o),
(1889,1237,cs),
(1282,1237,o),
(866,494,o),
(444,494,cs),
(252,494,o),
(92,650,o),
(92,841,cs),
(92,1033,o),
(239,1176,o),
(431,1176,cs),
(538,1176,o),
(631,1131,o),
(692,1059,c),
(698,1060,l),
(634,1135,o),
(538,1182,o),
(431,1182,cs),
(236,1182,o),
(79,1025,o),
(79,830,cs),
(79,681,o),
(168,551,o),
(299,499,c),
(289,500,o),
(279,500,o),
(270,500,cs),
(171,500,o),
(28,468,o),
(28,327,cs),
(28,246,o),
(73,201,o),
(132,178,c),
(56,162,o),
(-4,126,o),
(-4,57,cs),
(-4,16,o),
(12,-12,o),
(37,-31,c),
(19,-38,o),
(3,-74,o),
(3,-104,cs),
(3,-178,o),
(48,-255,o),
(267,-255,cs),
(469,-255,o),
(560,-155,o),
(560,-61,cs),
(560,24,o),
(493,104,o),
(365,104,cs),
(306,104,o),
(245,95,o),
(194,97,cs),
(134,99,o),
(92,107,o),
(92,139,cs),
(92,161,o),
(117,170,o),
(148,172,c),
(185,160,o),
(228,156,o),
(268,156,cs),
(394,156,o),
(520,190,o),
(520,329,cs),
(520,406,o),
(471,451,o),
(410,475,c),
(415,475,o),
(420,475,o),
(425,475,cs),
(854,475,o),
(1286,1231,o),
(1889,1231,cs),
(2365,1231,o),
(2752,844,o),
(2752,368,cs),
(2752,-108,o),
(2365,-495,o),
(1889,-495,cs),
(1678,-495,o),
(1484,-419,o),
(1334,-292,c)
);
},
{
closed = 1;
nodes = (
(143,-66,o),
(165,-67,o),
(185,-67,cs),
(252,-67,o),
(294,-60,o),
(361,-60,cs),
(433,-60,o),
(484,-71,o),
(484,-133,cs),
(484,-189,o),
(434,-251,o),
(267,-251,cs),
(102,-251,o),
(46,-190,o),
(46,-139,cs),
(46,-100,o),
(80,-65,o),
(122,-63,c)
);
},
{
closed = 1;
nodes = (
(222,164,o),
(200,245,o),
(200,328,cs),
(200,411,o),
(224,492,o),
(270,492,cs),
(317,492,o),
(339,409,o),
(339,328,cs),
(339,247,o),
(315,164,o),
(268,164,cs)
);
}
);
width = 540;
}
);
},
{
color = (154, 153, 255, 255);
glyphname = g.778;
layers = (
{
background = {
shapes = (
{
closed = 1;
nodes = (
(367,156,o),
(468,197,o),
(468,327,cs),
(468,457,o),
(352,500,o),
(270,500,cs),
(187,500,o),
(68,457,o),
(68,327,cs),
(68,197,o),
(140,156,o),
(266,156,cs)
);
},
{
closed = 1;
nodes = (
(358,492,o),
(397,409,o),
(397,328,cs),
(397,247,o),
(358,164,o),
(270,164,cs),
(184,164,o),
(140,245,o),
(140,328,cs),
(140,411,o),
(184,492,o),
(270,492,cs)
);
}
);
};
guides = (
{
angle = 90;
position = "{270, 0}";
}
);
layerId = "4B09473C-DE20-458D-B091-F76EF41CC662";
shapes = (
{
closed = 1;
nodes = (
(1451,-179,l),
(1569,-299,o),
(1732,-372,o),
(1914,-372,cs),
(2274,-372,o),
(2565,-82,o),
(2565,278,cs),
(2565,638,o),
(2274,929,o),
(1914,929,cs),
(1526,929,o),
(1257,580,o),
(927,129,cs),
(750,-114,o),
(513,-283,o),
(297,-283,cs),
(108,-283,o),
(8,-132,o),
(4,-37,cs),
(0,57,o),
(50,155,o),
(140,204,c),
(175,180,o),
(221,171,o),
(268,171,cs),
(317,171,o),
(365,181,o),
(400,207,c),
(435,190,o),
(465,167,o),
(487,137,c),
(493,137,l),
(471,168,o),
(442,194,o),
(406,212,c),
(437,238,o),
(457,276,o),
(457,334,cs),
(457,413,o),
(414,458,o),
(362,480,c),
(379,478,o),
(395,477,o),
(412,477,cs),
(607,477,o),
(758,638,o),
(758,832,cs),
(758,1027,o),
(605,1184,o),
(406,1184,cs),
(299,1184,o),
(203,1137,o),
(139,1062,c),
(145,1061,l),
(206,1133,o),
(299,1178,o),
(406,1178,cs),
(598,1178,o),
(745,1035,o),
(745,843,cs),
(745,652,o),
(585,496,o),
(393,496,cs),
(360,496,o),
(327,501,o),
(294,509,c),
(307,533,o),
(315,560,o),
(315,585,cs),
(315,622,o),
(298,651,o),
(258,651,cs),
(228,651,o),
(208,635,o),
(208,611,cs),
(208,592,o),
(220,572,o),
(250,572,cs),
(265,572,o),
(287,577,o),
(296,590,c),
(300,570,o),
(297,539,o),
(285,511,c),
(-101,617,o),
(-497,1239,o),
(-1052,1239,cs),
(-1532,1239,o),
(-1921,850,o),
(-1921,370,cs),
(-1921,-110,o),
(-1532,-499,o),
(-1052,-499,cs),
(-839,-499,o),
(-643,-422,o),
(-492,-294,c),
(-497,-288,l),
(-647,-415,o),
(-841,-491,o),
(-1052,-491,cs),
(-1528,-491,o),
(-1915,-105,o),
(-1915,370,cs),
(-1915,846,o),
(-1528,1233,o),
(-1052,1233,cs),
(-511,1233,o),
(-107,624,o),
(280,499,c),
(280,499,o),
(279,499,o),
(268,499,cs),
(190,499,o),
(79,461,o),
(79,334,cs),
(79,274,o),
(101,233,o),
(134,208,c),
(39,156,o),
(-17,53,o),
(-17,-53,c),
(-18,-226,o),
(109,-349,o),
(302,-349,cs),
(551,-349,o),
(759,-123,o),
(970,171,cs),
(1266,583,o),
(1548,923,o),
(1914,923,cs),
(2270,923,o),
(2559,634,o),
(2559,278,cs),
(2559,-78,o),
(2270,-366,o),
(1914,-366,cs),
(1734,-366,o),
(1571,-293,o),
(1455,-175,c)
);
},
{
closed = 1;
nodes = (
(238,450,l),
(255,458,o),
(271,473,o),
(284,492,c),
(357,482,o),
(389,408,o),
(389,335,cs),
(389,298,o),
(380,259,o),
(361,229,c),
(333,237,o),
(303,242,o),
(270,242,cs),
(236,242,o),
(205,237,o),
(176,227,c),
(156,257,o),
(147,297,o),
(147,335,cs),
(147,413,o),
(184,493,o),
(268,493,cs),
(271,493,o),
(273,493,o),
(276,493,c),
(266,475,o),
(251,459,o),
(233,450,c)
);
},
{
closed = 1;
nodes = (
(207,231,o),
(238,236,o),
(270,236,cs),
(301,236,o),
(330,232,o),
(357,224,c),
(337,196,o),
(308,177,o),
(268,177,cs),
(229,177,o),
(200,195,o),
(180,222,c)
);
}
);
width = 521;
},
{
guides = (
{
angle = 90;
position = "{273, 0}";
}
);
layerId = "EECBB25E-CCC9-4EB7-9066-53ACD40459CA";
shapes = (
{
closed = 1;
nodes = (
(1451,-194,l),
(1569,-314,o),
(1732,-387,o),
(1914,-387,cs),
(2274,-387,o),
(2565,-97,o),
(2565,263,cs),
(2565,623,o),
(2274,914,o),
(1914,914,cs),
(1519,914,o),
(1271,554,o),
(927,114,cs),
(754,-107,o),
(520,-260,o),
(308,-260,cs),
(112,-260,o),
(15,-129,o),
(15,-14,cs),
(15,60,o),
(53,135,o),
(123,180,c),
(166,162,o),
(218,156,o),
(266,156,cs),
(321,156,o),
(376,162,o),
(421,181,c),
(447,165,o),
(469,146,o),
(487,122,c),
(493,122,l),
(476,146,o),
(453,167,o),
(427,184,c),
(481,209,o),
(518,254,o),
(518,329,cs),
(518,407,o),
(468,452,o),
(406,476,c),
(408,476,o),
(410,476,o),
(412,476,c),
(607,476,o),
(758,637,o),
(758,831,cs),
(758,1026,o),
(605,1183,o),
(406,1183,cs),
(299,1183,o),
(203,1136,o),
(139,1061,c),
(145,1060,l),
(206,1132,o),
(299,1177,o),
(406,1177,cs),
(598,1177,o),
(745,1034,o),
(745,842,cs),
(745,651,o),
(585,495,o),
(393,495,cs),
(369,495,o),
(344,497,o),
(320,502,c),
(343,533,o),
(356,565,o),
(356,600,cs),
(356,656,o),
(318,679,o),
(277,679,cs),
(236,679,o),
(206,656,o),
(206,621,cs),
(206,594,o),
(224,564,o),
(276,564,cs),
(289,564,o),
(309,568,o),
(326,577,c),
(326,553,o),
(322,530,o),
(308,505,c),
(-86,592,o),
(-486,1238,o),
(-1052,1238,cs),
(-1532,1238,o),
(-1921,849,o),
(-1921,369,cs),
(-1921,-111,o),
(-1532,-500,o),
(-1052,-500,cs),
(-839,-500,o),
(-643,-423,o),
(-492,-295,c),
(-497,-289,l),
(-647,-416,o),
(-841,-492,o),
(-1052,-492,cs),
(-1528,-492,o),
(-1915,-106,o),
(-1915,369,cs),
(-1915,845,o),
(-1528,1232,o),
(-1052,1232,cs),
(-513,1232,o),
(-111,629,o),
(275,500,c),
(272,500,o),
(268,500,o),
(264,500,cs),
(154,498,o),
(26,462,o),
(26,327,cs),
(26,253,o),
(63,209,o),
(115,184,c),
(22,127,o),
(-33,22,o),
(-33,-86,cs),
(-33,-253,o),
(100,-406,o),
(301,-406,cs),
(551,-406,o),
(747,-147,o),
(976,156,cs),
(1300,585,o),
(1548,908,o),
(1914,908,cs),
(2270,908,o),
(2559,619,o),
(2559,263,cs),
(2559,-93,o),
(2270,-381,o),
(1914,-381,cs),
(1734,-381,o),
(1571,-308,o),
(1455,-190,c)
);
},
{
closed = 1;
nodes = (
(258,438,l),
(274,452,o),
(288,465,o),
(300,478,c),
(325,450,o),
(337,388,o),
(337,328,cs),
(337,291,o),
(332,253,o),
(322,223,c),
(305,226,o),
(288,227,o),
(270,227,cs),
(250,227,o),
(231,226,o),
(212,222,c),
(203,252,o),
(198,290,o),
(198,328,cs),
(198,412,o),
(222,494,o),
(268,494,cs),
(278,494,o),
(286,491,o),
(294,484,c),
(283,470,o),
(270,454,o),
(252,438,c)
);
},
{
closed = 1;
nodes = (
(232,219,o),
(250,221,o),
(270,221,cs),
(287,221,o),
(304,220,o),
(320,217,c),
(308,184,o),
(290,162,o),
(266,162,cs),
(242,162,o),
(225,184,o),
(214,216,c)
);
}
);
width = 540;
}
);
},
{
color = (255, 153, 153, 255);
glyphname = g.777;
layers = (
{
background = {
shapes = (
{
closed = 1;
nodes = (
(367,156,o),
(468,197,o),
(468,327,cs),
(468,457,o),
(352,500,o),
(270,500,cs),
(187,500,o),
(68,457,o),
(68,327,cs),
(68,197,o),
(140,156,o),
(266,156,cs)
);
},
{
closed = 1;
nodes = (
(358,492,o),
(397,409,o),
(397,328,cs),
(397,247,o),
(358,164,o),
(270,164,cs),
(184,164,o),
(140,245,o),
(140,328,cs),
(140,411,o),
(184,492,o),
(270,492,cs)
);
}
);
};
guides = (
{
angle = 90;
position = "{270, 0}";
}
);
layerId = "4B09473C-DE20-458D-B091-F76EF41CC662";
shapes = (
{
closed = 1;
nodes = (
(238,450,l),
(280,469,o),
(315,533,o),
(315,585,cs),
(315,622,o),
(298,651,o),
(258,651,cs),
(228,651,o),
(208,635,o),
(208,611,cs),
(208,592,o),
(220,572,o),
(250,572,cs),
(265,572,o),
(287,577,o),
(296,590,c),
(304,553,o),
(285,476,o),
(233,450,c)
);
},
{
closed = 1;
nodes = (
(364,171,o),
(457,210,o),
(457,334,cs),
(457,461,o),
(346,499,o),
(268,499,cs),
(190,499,o),
(79,461,o),
(79,334,cs),
(79,210,o),
(172,171,o),
(268,171,cs)
);
},
{
closed = 1;
nodes = (
(352,493,o),
(389,413,o),
(389,335,cs),
(389,259,o),
(352,177,o),
(268,177,cs),
(184,177,o),
(147,259,o),
(147,335,cs),
(147,413,o),
(184,493,o),
(268,493,cs)
);
},
{
closed = 1;
nodes = (
(1451,-179,l),
(1569,-299,o),
(1732,-372,o),
(1914,-372,cs),
(2274,-372,o),
(2565,-82,o),
(2565,278,cs),
(2565,638,o),
(2274,929,o),
(1914,929,cs),
(1526,929,o),
(1257,580,o),
(927,129,cs),
(750,-114,o),
(513,-283,o),
(297,-283,cs),
(108,-283,o),
(8,-132,o),
(4,-37,cs),
(-2,96,o),
(101,236,o),
(270,236,cs),
(361,236,o),
(441,199,o),
(487,137,c),
(493,137,l),
(448,200,o),
(371,242,o),
(270,242,cs),
(96,242,o),
(-17,97,o),
(-17,-53,cs),
(-18,-226,o),
(109,-349,o),
(302,-349,cs),
(551,-349,o),
(759,-123,o),
(970,171,cs),
(1266,583,o),
(1548,923,o),
(1914,923,cs),
(2270,923,o),
(2559,634,o),
(2559,278,cs),
(2559,-78,o),
(2270,-366,o),
(1914,-366,cs),
(1734,-366,o),
(1571,-293,o),
(1455,-175,c)
);
}
);
width = 521;
},
{
guides = (
{
angle = 90;
position = "{273, 0}";
}
);
layerId = "EECBB25E-CCC9-4EB7-9066-53ACD40459CA";
shapes = (
{
closed = 1;
nodes = (
(258,438,l),
(321,492,o),
(356,542,o),
(356,600,cs),
(356,656,o),
(318,679,o),
(277,679,cs),
(236,679,o),
(206,656,o),
(206,621,cs),
(206,594,o),
(224,564,o),
(276,564,cs),
(289,564,o),
(309,568,o),
(326,577,c),
(326,533,o),
(311,491,o),
(252,438,c)
);
},
{
closed = 1;
nodes = (
(392,156,o),
(518,190,o),
(518,329,cs),
(518,463,o),
(370,500,o),
(268,500,cs),
(169,500,o),
(26,468,o),
(26,327,cs),
(26,189,o),
(155,156,o),
(266,156,cs)
);
},
{
closed = 1;
nodes = (
(315,494,o),
(337,410,o),
(337,328,cs),
(337,246,o),
(313,162,o),
(266,162,cs),
(220,162,o),
(198,244,o),
(198,328,cs),
(198,412,o),
(222,494,o),
(268,494,cs)
);
},
{
closed = 1;
nodes = (
(1451,-194,l),
(1569,-314,o),
(1732,-387,o),
(1914,-387,cs),
(2274,-387,o),
(2565,-97,o),
(2565,263,cs),
(2565,623,o),
(2274,914,o),
(1914,914,cs),
(1519,914,o),
(1271,554,o),
(927,114,cs),
(754,-107,o),
(520,-260,o),
(308,-260,cs),
(112,-260,o),
(15,-129,o),
(15,-14,cs),
(15,101,o),
(108,221,o),
(270,221,cs),
(361,221,o),
(441,184,o),
(487,122,c),
(493,122,l),
(448,185,o),
(371,227,o),
(270,227,cs),
(87,227,o),
(-33,73,o),
(-33,-86,cs),
(-33,-253,o),
(100,-406,o),
(301,-406,cs),
(551,-406,o),
(747,-147,o),
(976,156,cs),
(1300,585,o),
(1548,908,o),
(1914,908,cs),
(2270,908,o),
(2559,619,o),
(2559,263,cs),
(2559,-93,o),
(2270,-381,o),
(1914,-381,cs),
(1734,-381,o),
(1571,-308,o),
(1455,-190,c)
);
}
);
width = 546;
}
);
},
{
color = (153, 255, 154, 255);
glyphname = g.77.acc;
layers = (
{
background = {
shapes = (
{
closed = 1;
nodes = (
(359,156,o),
(460,197,o),
(460,327,cs),
(460,457,o),
(344,500,o),
(262,500,cs),
(179,500,o),
(60,457,o),
(60,327,cs),
(60,197,o),
(132,156,o),
(258,156,cs)
);
},
{
closed = 1;
nodes = (
(350,492,o),
(389,409,o),
(389,328,cs),
(389,247,o),
(350,164,o),
(262,164,cs),
(176,164,o),
(132,245,o),
(132,328,cs),
(132,411,o),
(176,492,o),
(262,492,cs)
);
}
);
};
layerId = "4B09473C-DE20-458D-B091-F76EF41CC662";
shapes = (
{
closed = 1;
nodes = (
(-511,-291,l),
(-661,-418,o),
(-855,-494,o),
(-1066,-494,cs),
(-1542,-494,o),
(-1929,-107,o),
(-1929,369,cs),
(-1929,845,o),
(-1542,1232,o),
(-1066,1232,cs),
(-527,1232,o),
(-125,628,o),
(261,500,c),
(157,500,o),
(65,451,o),
(65,335,cs),
(65,264,o),
(95,221,o),
(139,197,c),
(87,187,o),
(37,155,o),
(37,93,cs),
(37,52,o),
(64,26,o),
(111,15,c),
(60,13,o),
(13,-19,o),
(13,-76,cs),
(13,-188,o),
(155,-211,o),
(252,-211,cs),
(421,-211,o),
(506,-123,o),
(506,-38,cs),
(506,37,o),
(448,89,o),
(363,89,cs),
(307,89,o),
(244,75,o),
(174,75,cs),
(117,75,o),
(78,90,o),
(78,124,cs),
(78,158,o),
(112,185,o),
(149,192,c),
(180,178,o),
(217,172,o),
(254,172,cs),
(350,172,o),
(443,211,o),
(443,335,cs),
(443,411,o),
(403,455,o),
(354,479,c),
(369,477,o),
(383,476,o),
(398,476,cs),
(593,476,o),
(744,637,o),
(744,831,cs),
(744,1026,o),
(587,1183,o),
(392,1183,cs),
(285,1183,o),
(189,1136,o),
(125,1061,c),
(131,1060,l),
(192,1132,o),
(285,1177,o),
(392,1177,cs),
(584,1177,o),
(731,1034,o),
(731,842,cs),
(731,651,o),
(571,495,o),
(379,495,cs),
(-84,495,o),
(-459,1302,o),
(-1066,1302,cs),
(-1546,1302,o),
(-1935,849,o),
(-1935,369,cs),
(-1935,-111,o),
(-1546,-500,o),
(-1066,-500,cs),
(-853,-500,o),
(-657,-423,o),
(-506,-295,c)
);
},
{
closed = 1;
nodes = (
(158,9,o),
(164,9,o),
(171,9,cs),
(236,10,o),
(290,22,o),
(347,22,cs),
(425,22,o),
(469,-1,o),
(469,-79,cs),
(469,-136,o),
(407,-203,o),
(252,-203,cs),
(170,-203,o),
(61,-177,o),
(61,-94,cs),
(61,-36,o),
(98,6,o),
(152,9,c)
);
},
{
closed = 1;
nodes = (
(170,180,o),
(133,261,o),
(133,336,cs),
(133,413,o),
(170,492,o),
(254,492,cs),
(338,492,o),
(375,413,o),
(375,336,cs),
(375,261,o),
(338,180,o),
(254,180,cs)
);
}
);
width = 501;
},
{
layerId = "EECBB25E-CCC9-4EB7-9066-53ACD40459CA";
shapes = (
{
closed = 1;
nodes = (
(-497,-291,l),
(-647,-418,o),
(-841,-494,o),
(-1052,-494,cs),
(-1528,-494,o),
(-1915,-107,o),
(-1915,369,cs),
(-1915,845,o),
(-1528,1181,o),
(-1052,1181,cs),
(-516,1181,o),
(-115,623,o),
(269,500,c),
(170,500,o),
(28,468,o),
(28,327,cs),
(28,246,o),
(73,201,o),
(132,178,c),
(56,162,o),
(-4,126,o),
(-4,57,cs),
(-4,16,o),
(12,-12,o),
(37,-31,c),
(19,-38,o),
(3,-74,o),
(3,-104,cs),
(3,-178,o),
(48,-255,o),
(267,-255,cs),
(469,-255,o),
(560,-155,o),
(560,-61,cs),
(560,24,o),
(493,104,o),
(365,104,cs),
(306,104,o),
(245,95,o),
(194,97,cs),
(134,99,o),
(92,107,o),
(92,139,cs),
(92,161,o),
(117,170,o),
(148,172,c),
(185,160,o),
(228,156,o),
(268,156,cs),
(394,156,o),
(520,190,o),
(520,329,cs),
(520,407,o),
(470,452,o),
(408,476,c),
(410,476,o),
(411,476,o),
(412,476,c),
(607,476,o),
(758,637,o),
(758,831,cs),
(758,1026,o),
(601,1183,o),
(406,1183,cs),
(299,1183,o),
(203,1136,o),
(139,1061,c),
(145,1060,l),
(206,1132,o),
(299,1177,o),
(406,1177,cs),
(598,1177,o),
(745,1034,o),
(745,842,cs),
(745,651,o),
(585,495,o),
(393,495,cs),
(-109,495,o),
(-445,1341,o),
(-1052,1341,cs),
(-1532,1341,o),
(-1921,849,o),
(-1921,369,cs),
(-1921,-111,o),
(-1532,-500,o),
(-1052,-500,cs),
(-839,-500,o),
(-643,-423,o),
(-492,-295,c)
);
},
{
closed = 1;
nodes = (
(143,-66,o),
(165,-67,o),
(185,-67,cs),
(252,-67,o),
(294,-60,o),
(361,-60,cs),
(433,-60,o),
(484,-71,o),
(484,-133,cs),
(484,-189,o),
(434,-251,o),
(267,-251,cs),
(102,-251,o),
(46,-190,o),
(46,-139,cs),
(46,-100,o),
(80,-65,o),
(122,-63,c)
);
},
{
closed = 1;
nodes = (
(222,164,o),
(200,245,o),
(200,328,cs),
(200,411,o),
(224,492,o),
(270,492,cs),
(317,492,o),
(339,409,o),
(339,328,cs),
(339,247,o),
(315,164,o),
(268,164,cs)
);
}
);
width = 543;
}
);
},
{
color = (153, 255, 154, 255);
glyphname = g.7777.acc;
layers = (
{
background = {
shapes = (
{
closed = 1;
nodes = (
(355,156,o),
(456,197,o),
(456,327,cs),
(456,457,o),
(340,500,o),
(258,500,cs),
(175,500,o),
(56,457,o),
(56,327,cs),
(56,197,o),
(128,156,o),
(254,156,cs)
);
},
{
closed = 1;
nodes = (
(346,492,o),
(385,409,o),
(385,328,cs),
(385,247,o),
(346,164,o),
(258,164,cs),
(172,164,o),
(128,245,o),
(128,328,cs),
(128,411,o),
(172,492,o),
(258,492,cs)
);
}
);
};
layerId = "4B09473C-DE20-458D-B091-F76EF41CC662";
shapes = (
{
closed = 1;
nodes = (
(1315,-296,l),
(1466,-424,o),
(1662,-501,o),
(1875,-501,cs),
(2355,-501,o),
(2744,-112,o),
(2744,368,cs),
(2744,848,o),
(2355,1301,o),
(1875,1301,cs),
(1258,1301,o),
(884,498,o),
(407,498,cs),
(227,498,o),
(78,652,o),
(78,841,cs),
(78,1033,o),
(225,1176,o),
(417,1176,cs),
(524,1176,o),
(617,1131,o),
(678,1059,c),
(684,1060,l),
(620,1135,o),
(524,1182,o),
(417,1182,cs),
(222,1182,o),
(65,1025,o),
(65,830,cs),
(65,678,o),
(153,547,o),
(280,499,c),
(271,500,o),
(262,500,o),
(254,500,cs),
(176,500,o),
(65,462,o),
(65,335,cs),
(65,264,o),
(95,221,o),
(139,197,c),
(87,187,o),
(37,155,o),
(37,93,cs),
(37,52,o),
(64,26,o),
(111,15,c),
(60,13,o),
(13,-19,o),
(13,-76,cs),
(13,-188,o),
(155,-211,o),
(252,-211,cs),
(421,-211,o),
(506,-123,o),
(506,-38,cs),
(506,37,o),
(448,89,o),
(363,89,cs),
(307,89,o),
(244,75,o),
(174,75,cs),
(117,75,o),
(78,90,o),
(78,124,cs),
(78,158,o),
(112,185,o),
(149,192,c),
(180,178,o),
(217,172,o),
(254,172,cs),
(350,172,o),
(443,211,o),
(443,335,cs),
(443,415,o),
(399,460,o),
(347,482,c),
(360,480,o),
(374,479,o),
(388,479,cs),
(824,479,o),
(1262,1231,o),
(1875,1231,cs),
(2351,1231,o),
(2738,844,o),
(2738,368,cs),
(2738,-108,o),
(2351,-495,o),
(1875,-495,cs),
(1664,-495,o),
(1470,-419,o),
(1320,-292,c)
);
},
{
closed = 1;
nodes = (
(158,9,o),
(164,9,o),
(171,9,cs),
(236,10,o),
(290,22,o),
(347,22,cs),
(425,22,o),
(469,-1,o),
(469,-79,cs),
(469,-136,o),
(407,-203,o),
(252,-203,cs),
(170,-203,o),
(61,-177,o),
(61,-94,cs),
(61,-36,o),
(98,6,o),
(152,9,c)
);
},
{
closed = 1;
nodes = (
(170,180,o),
(133,261,o),
(133,336,cs),
(133,413,o),
(170,492,o),
(254,492,cs),
(338,492,o),
(375,413,o),
(375,336,cs),
(375,261,o),
(338,180,o),
(254,180,cs)
);
}
);
width = 502;
},
{
layerId = "EECBB25E-CCC9-4EB7-9066-53ACD40459CA";
shapes = (
{
closed = 1;
nodes = (
(1329,-296,l),
(1480,-424,o),
(1676,-501,o),
(1889,-501,cs),
(2369,-501,o),
(2758,-112,o),
(2758,368,cs),
(2758,848,o),
(2369,1342,o),
(1889,1342,cs),
(1282,1342,o),
(955,494,o),
(444,494,cs),
(252,494,o),
(92,650,o),
(92,841,cs),
(92,1033,o),
(239,1176,o),
(431,1176,cs),
(538,1176,o),
(631,1131,o),
(692,1059,c),
(698,1060,l),
(634,1135,o),
(538,1182,o),
(431,1182,cs),
(236,1182,o),
(79,1025,o),
(79,830,cs),
(79,681,o),
(168,551,o),
(299,499,c),
(289,500,o),
(279,500,o),
(270,500,cs),
(171,500,o),
(28,468,o),
(28,327,cs),
(28,246,o),
(73,201,o),
(132,178,c),
(56,162,o),
(-4,126,o),
(-4,57,cs),
(-4,16,o),
(12,-12,o),
(37,-31,c),
(19,-38,o),
(3,-74,o),
(3,-104,cs),
(3,-178,o),
(48,-255,o),
(267,-255,cs),
(469,-255,o),
(560,-155,o),
(560,-61,cs),
(560,24,o),
(493,104,o),
(365,104,cs),
(306,104,o),
(245,95,o),
(194,97,cs),
(134,99,o),
(92,107,o),
(92,139,cs),
(92,161,o),
(117,170,o),
(148,172,c),
(185,160,o),
(228,156,o),
(268,156,cs),
(394,156,o),
(520,190,o),
(520,329,cs),
(520,406,o),
(471,451,o),
(410,475,c),
(415,475,o),
(420,475,o),
(425,475,cs),
(854,475,o),
(1286,1182,o),
(1889,1182,cs),
(2365,1182,o),
(2752,844,o),
(2752,368,cs),
(2752,-108,o),
(2365,-495,o),
(1889,-495,cs),
(1678,-495,o),
(1484,-419,o),
(1334,-292,c)
);
},
{
closed = 1;
nodes = (
(143,-66,o),
(165,-67,o),
(185,-67,cs),
(252,-67,o),
(294,-60,o),
(361,-60,cs),
(433,-60,o),
(484,-71,o),
(484,-133,cs),
(484,-189,o),
(434,-251,o),
(267,-251,cs),
(102,-251,o),
(46,-190,o),
(46,-139,cs),
(46,-100,o),
(80,-65,o),
(122,-63,c)
);
},
{
closed = 1;
nodes = (
(222,164,o),
(200,245,o),
(200,328,cs),
(200,411,o),
(224,492,o),
(270,492,cs),
(317,492,o),
(339,409,o),
(339,328,cs),
(339,247,o),
(315,164,o),
(268,164,cs)
);
}
);
width = 540;
}
);
},
{
color = (154, 153, 255, 255);
glyphname = g.778.acc;
layers = (
{
background = {
shapes = (
{
closed = 1;
nodes = (
(367,156,o),
(468,197,o),
(468,327,cs),
(468,457,o),
(352,500,o),
(270,500,cs),
(187,500,o),
(68,457,o),
(68,327,cs),
(68,197,o),
(140,156,o),
(266,156,cs)
);
},
{
closed = 1;
nodes = (
(358,492,o),
(397,409,o),
(397,328,cs),
(397,247,o),
(358,164,o),
(270,164,cs),
(184,164,o),
(140,245,o),
(140,328,cs),
(140,411,o),
(184,492,o),
(270,492,cs)
);
}
);
};
guides = (
{
angle = 90;
position = "{270, 0}";
}
);
layerId = "4B09473C-DE20-458D-B091-F76EF41CC662";
shapes = (
{
closed = 1;
nodes = (
(243,450,l),
(285,469,o),
(320,533,o),
(320,585,cs),
(320,622,o),
(303,651,o),
(263,651,cs),
(233,651,o),
(213,635,o),
(213,611,cs),
(213,592,o),
(225,572,o),
(255,572,cs),
(270,572,o),
(292,577,o),
(301,590,c),
(309,553,o),
(290,476,o),
(238,450,c)
);
},
{
closed = 1;
nodes = (
(364,172,o),
(457,211,o),
(457,335,cs),
(457,462,o),
(346,500,o),
(268,500,cs),
(190,500,o),
(79,462,o),
(79,335,cs),
(79,211,o),
(172,172,o),
(268,172,cs)
);
},
{
closed = 1;
nodes = (
(352,494,o),
(389,414,o),
(389,336,cs),
(389,260,o),
(352,178,o),
(268,178,cs),
(184,178,o),
(147,260,o),
(147,336,cs),
(147,414,o),
(184,494,o),
(268,494,cs)
);
},
{
closed = 1;
nodes = (
(1451,-178,l),
(1569,-298,o),
(1732,-371,o),
(1914,-371,cs),
(2274,-371,o),
(2565,-81,o),
(2565,279,cs),
(2565,639,o),
(2274,952,o),
(1914,952,cs),
(1526,952,o),
(1257,581,o),
(927,130,cs),
(750,-113,o),
(513,-282,o),
(297,-282,cs),
(108,-282,o),
(8,-131,o),
(4,-36,cs),
(-2,98,o),
(101,239,o),
(270,239,cs),
(361,239,o),
(442,200,o),
(488,137,c),
(493,138,l),
(448,202,o),
(371,245,o),
(270,245,cs),
(96,245,o),
(-17,99,o),
(-17,-52,cs),
(-17,-225,o),
(109,-348,o),
(302,-348,cs),
(551,-348,o),
(754,-120,o),
(968,172,cs),
(1268,581,o),
(1548,882,o),
(1914,882,cs),
(2270,882,o),
(2559,635,o),
(2559,279,cs),
(2559,-77,o),
(2270,-365,o),
(1914,-365,cs),
(1733,-365,o),
(1570,-291,o),
(1453,-172,c)
);
},
{
closed = 1;
nodes = (
(146,1058,l),
(207,1131,o),
(299,1177,o),
(406,1177,cs),
(598,1177,o),
(745,1034,o),
(745,842,cs),
(745,651,o),
(585,495,o),
(393,495,cs),
(-76,495,o),
(-445,1302,o),
(-1052,1302,cs),
(-1532,1302,o),
(-1921,849,o),
(-1921,369,cs),
(-1921,-111,o),
(-1532,-500,o),
(-1052,-500,cs),
(-839,-500,o),
(-643,-423,o),
(-492,-295,c),
(-497,-289,l),
(-647,-416,o),
(-841,-492,o),
(-1052,-492,cs),
(-1527,-492,o),
(-1913,-106,o),
(-1913,369,cs),
(-1913,845,o),
(-1527,1232,o),
(-1052,1232,cs),
(-449,1232,o),
(-17,476,o),
(412,476,cs),
(607,476,o),
(758,637,o),
(758,831,cs),
(758,1026,o),
(603,1183,o),
(406,1183,cs),
(299,1183,o),
(203,1136,o),
(139,1061,c)
);
}
);
width = 521;
},
{
guides = (
{
angle = 90;
position = "{273, 0}";
}
);
layerId = "EECBB25E-CCC9-4EB7-9066-53ACD40459CA";
shapes = (
{
closed = 1;
nodes = (
(258,438,l),
(321,492,o),
(356,542,o),
(356,600,cs),
(356,656,o),
(318,679,o),
(277,679,cs),
(236,679,o),
(206,656,o),
(206,621,cs),
(206,594,o),
(224,564,o),
(276,564,cs),
(289,564,o),
(309,568,o),
(326,577,c),
(326,533,o),
(311,491,o),
(252,438,c)
);
},
{
closed = 1;
nodes = (
(392,156,o),
(518,190,o),
(518,329,cs),
(518,463,o),
(370,500,o),
(268,500,cs),
(169,500,o),
(26,468,o),
(26,327,cs),
(26,189,o),
(155,156,o),
(266,156,cs)
);
},
{
closed = 1;
nodes = (
(315,494,o),
(337,410,o),
(337,328,cs),
(337,246,o),
(313,162,o),
(266,162,cs),
(220,162,o),
(198,244,o),
(198,328,cs),
(198,412,o),
(222,494,o),
(268,494,cs)
);
},
{
closed = 1;
nodes = (
(1451,-194,l),
(1569,-314,o),
(1732,-387,o),
(1914,-387,cs),
(2274,-387,o),
(2565,-97,o),
(2565,263,cs),
(2565,623,o),
(2274,948,o),
(1914,948,cs),
(1519,948,o),
(1271,554,o),
(927,114,cs),
(754,-107,o),
(520,-260,o),
(308,-260,cs),
(112,-260,o),
(15,-129,o),
(15,-14,cs),
(15,102,o),
(108,223,o),
(270,223,cs),
(361,223,o),
(442,184,o),
(488,121,c),
(493,122,l),
(448,186,o),
(371,229,o),
(270,229,cs),
(87,229,o),
(-33,74,o),
(-33,-86,cs),
(-33,-253,o),
(100,-406,o),
(301,-406,cs),
(551,-406,o),
(738,-149,o),
(967,154,cs),
(1291,583,o),
(1548,820,o),
(1914,820,cs),
(2270,820,o),
(2559,619,o),
(2559,263,cs),
(2559,-93,o),
(2270,-381,o),
(1914,-381,cs),
(1733,-381,o),
(1570,-307,o),
(1453,-188,c)
);
},
{
closed = 1;
nodes = (
(146,1058,l),
(207,1131,o),
(299,1177,o),
(406,1177,cs),
(598,1177,o),
(745,1034,o),
(745,842,cs),
(745,651,o),
(585,495,o),
(393,495,cs),
(-119,495,o),
(-445,1341,o),
(-1052,1341,cs),
(-1532,1341,o),
(-1921,849,o),
(-1921,369,cs),
(-1921,-111,o),
(-1532,-500,o),
(-1052,-500,cs),
(-839,-500,o),
(-643,-423,o),
(-492,-295,c),
(-496,-290,l),
(-646,-417,o),
(-841,-494,o),
(-1052,-494,cs),
(-1528,-494,o),
(-1915,-107,o),
(-1915,369,cs),
(-1915,845,o),
(-1528,1181,o),
(-1052,1181,cs),
(-449,1181,o),
(-17,476,o),
(412,476,cs),
(607,476,o),
(758,637,o),
(758,831,cs),
(758,1026,o),
(605,1183,o),
(406,1183,cs),
(299,1183,o),
(203,1136,o),
(139,1061,c)
);
}
);
width = 540;
}
);
},
{
color = (255, 153, 153, 255);
glyphname = g.777.acc;
layers = (
{
background = {
shapes = (
{
closed = 1;
nodes = (
(367,156,o),
(468,197,o),
(468,327,cs),
(468,457,o),
(352,500,o),
(270,500,cs),
(187,500,o),
(68,457,o),
(68,327,cs),
(68,197,o),
(140,156,o),
(266,156,cs)
);
},
{
closed = 1;
nodes = (
(358,492,o),
(397,409,o),
(397,328,cs),
(397,247,o),
(358,164,o),
(270,164,cs),
(184,164,o),
(140,245,o),
(140,328,cs),
(140,411,o),
(184,492,o),
(270,492,cs)
);
}
);
};
guides = (
{
angle = 90;
position = "{270, 0}";
}
);
layerId = "4B09473C-DE20-458D-B091-F76EF41CC662";
shapes = (
{
closed = 1;
nodes = (
(243,450,l),
(285,469,o),
(320,533,o),
(320,585,cs),
(320,622,o),
(303,651,o),
(263,651,cs),
(233,651,o),
(213,635,o),
(213,611,cs),
(213,592,o),
(225,572,o),
(255,572,cs),
(270,572,o),
(292,577,o),
(301,590,c),
(309,553,o),
(290,476,o),
(238,450,c)
);
},
{
closed = 1;
nodes = (
(364,172,o),
(457,211,o),
(457,335,cs),
(457,462,o),
(346,500,o),
(268,500,cs),
(190,500,o),
(79,462,o),
(79,335,cs),
(79,211,o),
(172,172,o),
(268,172,cs)
);
},
{
closed = 1;
nodes = (
(352,494,o),
(389,414,o),
(389,336,cs),
(389,260,o),
(352,178,o),
(268,178,cs),
(184,178,o),
(147,260,o),
(147,336,cs),
(147,414,o),
(184,494,o),
(268,494,cs)
);
},
{
closed = 1;
nodes = (
(1451,-178,l),
(1569,-298,o),
(1732,-371,o),
(1914,-371,cs),
(2274,-371,o),
(2565,-81,o),
(2565,279,cs),
(2565,639,o),
(2274,952,o),
(1914,952,cs),
(1526,952,o),
(1257,581,o),
(927,130,cs),
(750,-113,o),
(513,-282,o),
(297,-282,cs),
(108,-282,o),
(8,-131,o),
(4,-36,cs),
(-2,98,o),
(101,239,o),
(270,239,cs),
(361,239,o),
(442,200,o),
(488,137,c),
(493,138,l),
(448,202,o),
(371,245,o),
(270,245,cs),
(96,245,o),
(-17,99,o),
(-17,-52,cs),
(-17,-225,o),
(109,-348,o),
(302,-348,cs),
(551,-348,o),
(754,-120,o),
(968,172,cs),
(1268,581,o),
(1548,882,o),
(1914,882,cs),
(2270,882,o),
(2559,635,o),
(2559,279,cs),
(2559,-77,o),
(2270,-365,o),
(1914,-365,cs),
(1733,-365,o),
(1570,-291,o),
(1453,-172,c)
);
}
);
width = 521;
},
{
guides = (
{
angle = 90;
position = "{273, 0}";
}
);
layerId = "EECBB25E-CCC9-4EB7-9066-53ACD40459CA";
shapes = (
{
closed = 1;
nodes = (
(258,438,l),
(321,492,o),
(356,542,o),
(356,600,cs),
(356,656,o),
(318,679,o),
(277,679,cs),
(236,679,o),
(206,656,o),
(206,621,cs),
(206,594,o),
(224,564,o),
(276,564,cs),
(289,564,o),
(309,568,o),
(326,577,c),
(326,533,o),
(311,491,o),
(252,438,c)
);
},
{
closed = 1;
nodes = (
(392,156,o),
(518,190,o),
(518,329,cs),
(518,463,o),
(370,500,o),
(268,500,cs),
(169,500,o),
(26,468,o),
(26,327,cs),
(26,189,o),
(155,156,o),
(266,156,cs)
);
},
{
closed = 1;
nodes = (
(315,494,o),
(337,410,o),
(337,328,cs),
(337,246,o),
(313,162,o),
(266,162,cs),
(220,162,o),
(198,244,o),
(198,328,cs),
(198,412,o),
(222,494,o),
(268,494,cs)
);
},
{
closed = 1;
nodes = (
(1451,-194,l),
(1569,-314,o),
(1732,-387,o),
(1914,-387,cs),
(2274,-387,o),
(2565,-97,o),
(2565,263,cs),
(2565,623,o),
(2274,948,o),
(1914,948,cs),
(1519,948,o),
(1271,554,o),
(927,114,cs),
(754,-107,o),
(520,-260,o),
(308,-260,cs),
(112,-260,o),
(15,-129,o),
(15,-14,cs),
(15,102,o),
(108,223,o),
(270,223,cs),
(361,223,o),
(442,184,o),
(488,121,c),
(493,122,l),
(448,186,o),
(371,229,o),
(270,229,cs),
(87,229,o),
(-33,74,o),
(-33,-86,cs),
(-33,-253,o),
(100,-406,o),
(301,-406,cs),
(551,-406,o),
(738,-149,o),
(967,154,cs),
(1291,583,o),
(1548,820,o),
(1914,820,cs),
(2270,820,o),
(2559,619,o),
(2559,263,cs),
(2559,-93,o),
(2270,-381,o),
(1914,-381,cs),
(1733,-381,o),
(1570,-307,o),
(1453,-188,c)
);
}
);
width = 546;
}
);
},
{
color = (255, 153, 153, 255);
glyphname = h;
layers = (
{
hints = (
{
horizontal = 1;
place = (-6,38);
type = Stem;
},
{
horizontal = 1;
place = (436,31);
type = Stem;
},
{
horizontal = 1;
place = (736,-20);
target = down;
type = TopGhost;
},
{
place = (19,207);
type = Stem;
},
{
place = (340,198);
type = Stem;
}
);
layerId = "4B09473C-DE20-458D-B091-F76EF41CC662";
leftMetricsKey = l;
rightMetricsKey = n;
shapes = (
{
closed = 1;
nodes = (
(65,0,l),
(132,0,l),
(132,278,ls),
(132,383,o),
(194,470,o),
(284,470,cs),
(351,470,o),
(382,422,o),
(382,345,cs),
(382,101,ls),
(382,26,o),
(414,-9,o),
(467,-9,cs),
(509,-9,o),
(530,12,o),
(541,35,c),
(536,42,l),
(527,24,o),
(516,15,o),
(498,15,cs),
(462,15,o),
(452,50,o),
(452,106,cs),
(452,335,ls),
(452,436,o),
(411,500,o),
(312,500,cs),
(230,500,o),
(165,440,o),
(132,348,c),
(132,351,l),
(132,471,l),
(132,721,l),
(-12,689,l),
(-12,682,l),
(44,682,o),
(65,686,o),
(65,634,cs)
);
}
);
width = 533;
},
{
hints = (
{
horizontal = 1;
place = (-6,38);
type = Stem;
},
{
horizontal = 1;
place = (436,31);
type = Stem;
},
{
horizontal = 1;
place = (736,-20);
target = down;
type = TopGhost;
},
{
place = (79,207);
type = Stem;
},
{
place = (400,198);
type = Stem;
}
);
layerId = "EECBB25E-CCC9-4EB7-9066-53ACD40459CA";
shapes = (
{
closed = 1;
nodes = (
(65,0,l),
(262,0,l),
(262,278,ls),
(262,374,o),
(298,453,o),
(345,453,cs),
(377,453,o),
(382,424,o),
(382,345,cs),
(382,184,ls),
(382,47,o),
(430,-9,o),
(525,-9,cs),
(586,-9,o),
(615,14,o),
(627,47,c),
(622,54,l),
(617,37,o),
(608,32,o),
(601,32,cs),
(587,32,o),
(584,60,o),
(584,106,cs),
(584,295,l),
(585,420,o),
(554,500,o),
(427,500,cs),
(295,500,o),
(268,379,o),
(259,351,c),
(251,351,l),
(251,471,l),
(251,721,l),
(-12,689,l),
(-12,682,l),
(44,682,o),
(65,686,o),
(65,634,cs)
);
}
);
width = 644;
}
);
unicode = 104;
},
{
color = (153, 255, 154, 255);
glyphname = h.4;
layers = (
{
layerId = "4B09473C-DE20-458D-B091-F76EF41CC662";
leftMetricsKey = h;
shapes = (
{
closed = 1;
nodes = (
(-12,689,l),
(-12,684,l),
(44,684,o),
(65,686,o),
(65,634,cs),
(65,0,l),
(132,0,l),
(132,278,ls),
(132,383,o),
(194,470,o),
(284,470,cs),
(351,470,o),
(382,422,o),
(382,345,cs),
(382,137,ls),
(382,-231,o),
(647,-414,o),
(970,-414,cs),
(1323,-414,o),
(1631,-161,o),
(1631,207,cs),
(1631,544,o),
(1358,817,o),
(1021,817,cs),
(863,817,o),
(719,757,o),
(611,659,c),
(617,655,l),
(724,752,o),
(866,811,o),
(1021,811,cs),
(1354,811,o),
(1625,540,o),
(1625,207,cs),
(1625,-148,o),
(1324,-403,o),
(981,-403,cs),
(700,-403,o),
(452,-232,o),
(452,109,cs),
(452,330,ls),
(452,431,o),
(421,500,o),
(322,500,cs),
(235,500,o),
(166,447,o),
(133,351,c),
(133,350,o),
(132,349,o),
(132,348,c),
(132,349,o),
(132,350,o),
(132,351,c),
(132,721,l)
);
}
);
width = 531;
},
{
layerId = "EECBB25E-CCC9-4EB7-9066-53ACD40459CA";
shapes = (
{
closed = 1;
nodes = (
(-12,689,l),
(-12,682,l),
(44,682,o),
(65,686,o),
(65,634,cs),
(65,0,l),
(262,0,l),
(262,278,ls),
(262,374,o),
(298,453,o),
(345,453,cs),
(377,453,o),
(382,424,o),
(382,345,cs),
(382,173,l),
(384,-192,o),
(706,-413,o),
(1092,-413,cs),
(1435,-413,o),
(1712,-136,o),
(1712,207,cs),
(1712,544,o),
(1439,817,o),
(1102,817,cs),
(944,817,o),
(800,757,o),
(692,659,c),
(698,655,l),
(805,752,o),
(947,811,o),
(1102,811,cs),
(1435,811,o),
(1706,540,o),
(1706,207,cs),
(1706,-126,o),
(1435,-397,o),
(1102,-397,cs),
(831,-397,o),
(584,-231,o),
(584,138,cs),
(584,295,ls),
(584,420,o),
(554,500,o),
(427,500,cs),
(295,500,o),
(267,379,o),
(259,351,cs),
(257,346,o),
(255,344,o),
(254,344,c),
(252,344,o),
(251,347,o),
(251,351,cs),
(251,721,l)
);
}
);
width = 644;
}
);
},
{
color = (153, 255, 154, 255);
glyphname = h.6;
layers = (
{
layerId = "4B09473C-DE20-458D-B091-F76EF41CC662";
shapes = (
{
closed = 1;
nodes = (
(70,0,l),
(137,0,l),
(137,269,ls),
(137,374,o),
(199,470,o),
(289,470,cs),
(356,470,o),
(387,422,o),
(387,345,cs),
(387,101,ls),
(387,26,o),
(419,-9,o),
(472,-9,cs),
(514,-9,o),
(535,12,o),
(546,35,c),
(541,42,l),
(532,24,o),
(521,15,o),
(503,15,cs),
(467,15,o),
(457,50,o),
(457,106,cs),
(457,330,ls),
(457,431,o),
(426,500,o),
(327,500,cs),
(241,500,o),
(173,441,o),
(137,348,c),
(137,353,o),
(137,357,o),
(137,361,cs),
(137,617,ls),
(137,978,o),
(468,1233,o),
(800,1233,cs),
(1241,1233,o),
(1598,872,o),
(1598,421,cs),
(1598,-24,o),
(1245,-382,o),
(810,-382,cs),
(617,-382,o),
(439,-308,o),
(305,-187,c),
(299,-192,l),
(433,-314,o),
(613,-389,o),
(810,-389,cs),
(1250,-389,o),
(1604,-29,o),
(1604,421,cs),
(1604,878,o),
(1245,1243,o),
(797,1243,cs),
(401,1243,o),
(70,923,o),
(70,517,cs)
);
}
);
width = 537;
},
{
layerId = "EECBB25E-CCC9-4EB7-9066-53ACD40459CA";
shapes = (
{
closed = 1;
nodes = (
(65,0,l),
(262,0,l),
(262,278,ls),
(262,374,o),
(298,453,o),
(345,453,cs),
(377,453,o),
(382,424,o),
(382,345,cs),
(382,184,ls),
(382,47,o),
(430,-9,o),
(525,-9,cs),
(586,-9,o),
(615,14,o),
(627,47,c),
(622,54,l),
(617,37,o),
(608,32,o),
(601,32,cs),
(587,32,o),
(584,60,o),
(584,106,cs),
(584,295,l),
(585,420,o),
(554,500,o),
(427,500,cs),
(295,500,o),
(267,379,o),
(259,351,cs),
(255,339,o),
(251,344,o),
(251,351,cs),
(251,617,ls),
(251,978,o),
(497,1233,o),
(829,1233,cs),
(1270,1233,o),
(1627,872,o),
(1627,421,cs),
(1627,-24,o),
(1274,-382,o),
(839,-382,cs),
(646,-382,o),
(468,-308,o),
(334,-187,c),
(328,-192,l),
(462,-314,o),
(642,-389,o),
(839,-389,cs),
(1279,-389,o),
(1633,-29,o),
(1633,421,cs),
(1633,878,o),
(1274,1243,o),
(826,1243,cs),
(357,1243,o),
(65,923,o),
(65,517,cs)
);
}
);
width = 644;
}
);
},
{
color = (153, 255, 154, 255);
glyphname = h.6.more;
layers = (
{
layerId = "4B09473C-DE20-458D-B091-F76EF41CC662";
shapes = (
{
closed = 1;
nodes = (
(-656,-320,l),
(-554,-210,o),
(-404,-146,o),
(-236,-146,cs),
(143,-146,o),
(380,-388,o),
(810,-388,cs),
(1250,-388,o),
(1604,-29,o),
(1604,421,cs),
(1604,878,o),
(1245,1243,o),
(797,1243,cs),
(401,1243,o),
(70,923,o),
(70,517,cs),
(70,0,l),
(137,0,l),
(137,278,ls),
(137,383,o),
(199,470,o),
(289,470,cs),
(356,470,o),
(387,422,o),
(387,345,cs),
(387,101,ls),
(387,26,o),
(419,-9,o),
(472,-9,cs),
(514,-9,o),
(535,12,o),
(546,35,c),
(541,42,l),
(532,24,o),
(521,15,o),
(503,15,cs),
(467,15,o),
(457,50,o),
(457,106,cs),
(457,330,ls),
(457,431,o),
(426,500,o),
(327,500,cs),
(240,500,o),
(171,447,o),
(138,351,cs),
(132,333,o),
(137,354,o),
(137,383,cs),
(137,617,ls),
(137,978,o),
(468,1233,o),
(800,1233,cs),
(1241,1233,o),
(1598,872,o),
(1598,421,cs),
(1598,-24,o),
(1245,-382,o),
(810,-382,cs),
(388,-382,o),
(146,-140,o),
(-236,-140,cs),
(-407,-140,o),
(-561,-205,o),
(-664,-318,c)
);
}
);
width = 537;
},
{
layerId = "EECBB25E-CCC9-4EB7-9066-53ACD40459CA";
shapes = (
{
closed = 1;
nodes = (
(-656,-320,l),
(-554,-210,o),
(-404,-146,o),
(-236,-146,cs),
(143,-146,o),
(409,-388,o),
(839,-388,cs),
(1277,-388,o),
(1633,-28,o),
(1633,421,cs),
(1633,878,o),
(1274,1243,o),
(826,1243,cs),
(357,1243,o),
(65,923,o),
(65,517,cs),
(65,0,l),
(262,0,l),
(262,278,ls),
(262,374,o),
(298,453,o),
(345,453,cs),
(377,453,o),
(382,424,o),
(382,345,cs),
(382,184,ls),
(382,47,o),
(430,-9,o),
(525,-9,cs),
(586,-9,o),
(615,14,o),
(627,47,c),
(622,54,l),
(617,37,o),
(608,32,o),
(601,32,cs),
(587,32,o),
(584,60,o),
(584,106,cs),
(584,295,l),
(585,420,o),
(554,500,o),
(427,500,cs),
(295,500,o),
(267,379,o),
(259,351,cs),
(255,339,o),
(251,344,o),
(251,351,cs),
(251,617,l),
(256,978,o),
(500,1233,o),
(829,1233,cs),
(1270,1233,o),
(1627,872,o),
(1627,421,cs),
(1627,-24,o),
(1274,-382,o),
(839,-382,cs),
(417,-382,o),
(146,-140,o),
(-236,-140,cs),
(-407,-140,o),
(-561,-205,o),
(-664,-318,c)
);
}
);
width = 644;
}
);
},
{
color = (153, 255, 154, 255);
glyphname = h.44;
layers = (
{
layerId = "4B09473C-DE20-458D-B091-F76EF41CC662";
shapes = (
{
closed = 1;
nodes = (
(-2053,454,l),
(-1916,734,o),
(-1629,929,o),
(-1300,929,cs),
(-371,929,o),
(-140,-388,o),
(810,-388,cs),
(1250,-388,o),
(1604,-29,o),
(1604,421,cs),
(1604,878,o),
(1245,1243,o),
(797,1243,cs),
(401,1243,o),
(70,923,o),
(70,517,cs),
(70,0,l),
(137,0,l),
(137,278,ls),
(137,383,o),
(199,470,o),
(289,470,cs),
(356,470,o),
(387,422,o),
(387,345,cs),
(387,101,ls),
(387,26,o),
(419,-9,o),
(472,-9,cs),
(514,-9,o),
(535,12,o),
(546,35,c),
(541,42,l),
(532,24,o),
(521,15,o),
(503,15,cs),
(467,15,o),
(457,50,o),
(457,106,cs),
(457,330,ls),
(457,431,o),
(426,500,o),
(327,500,cs),
(240,500,o),
(172,447,o),
(138,351,cs),
(133,338,o),
(137,393,o),
(137,422,cs),
(137,617,ls),
(137,978,o),
(468,1233,o),
(800,1233,cs),
(1241,1233,o),
(1598,872,o),
(1598,421,cs),
(1598,-24,o),
(1245,-382,o),
(810,-382,cs),
(-141,-382,o),
(-358,935,o),
(-1300,935,cs),
(-1631,935,o),
(-1921,738,o),
(-2059,456,c)
);
}
);
width = 537;
},
{
layerId = "EECBB25E-CCC9-4EB7-9066-53ACD40459CA";
shapes = (
{
closed = 1;
nodes = (
(-2037,453,l),
(-1900,733,o),
(-1613,928,o),
(-1284,928,cs),
(-355,928,o),
(-124,-389,o),
(826,-389,cs),
(1284,-389,o),
(1633,-19,o),
(1633,421,cs),
(1633,878,o),
(1274,1243,o),
(826,1243,cs),
(364,1243,o),
(74,933,o),
(65,536,c),
(65,0,l),
(262,0,l),
(262,278,ls),
(262,374,o),
(298,453,o),
(345,453,cs),
(377,453,o),
(382,424,o),
(382,345,cs),
(382,184,ls),
(382,47,o),
(430,-9,o),
(525,-9,cs),
(586,-9,o),
(615,14,o),
(627,47,c),
(622,54,l),
(617,37,o),
(608,32,o),
(601,32,cs),
(587,32,o),
(584,60,o),
(584,106,cs),
(584,295,l),
(585,420,o),
(554,500,o),
(427,500,cs),
(295,500,o),
(267,379,o),
(259,351,cs),
(255,339,o),
(251,344,o),
(251,351,cs),
(251,619,ls),
(251,980,o),
(500,1233,o),
(829,1233,cs),
(1270,1233,o),
(1627,872,o),
(1627,421,cs),
(1627,-35,o),
(1266,-383,o),
(826,-383,cs),
(-125,-383,o),
(-342,934,o),
(-1284,934,cs),
(-1615,934,o),
(-1905,737,o),
(-2043,455,c)
);
}
);
width = 644;
}
);
},
{
color = (153, 255, 154, 255);
glyphname = h.6.more.acc;
layers = (
{
layerId = "4B09473C-DE20-458D-B091-F76EF41CC662";
shapes = (
{
closed = 1;
nodes = (
(-656,-320,l),
(-554,-210,o),
(-404,-146,o),
(-236,-146,cs),
(143,-146,o),
(380,-416,o),
(810,-416,cs),
(1250,-416,o),
(1604,-29,o),
(1604,421,cs),
(1604,878,o),
(1245,1243,o),
(797,1243,cs),
(401,1243,o),
(70,923,o),
(70,517,cs),
(70,0,l),
(137,0,l),
(137,278,ls),
(137,383,o),
(199,470,o),
(289,470,cs),
(356,470,o),
(387,422,o),
(387,345,cs),
(387,101,ls),
(387,26,o),
(419,-9,o),
(472,-9,cs),
(514,-9,o),
(535,12,o),
(546,35,c),
(541,42,l),
(532,24,o),
(521,15,o),
(503,15,cs),
(467,15,o),
(457,50,o),
(457,106,cs),
(457,330,ls),
(457,431,o),
(426,500,o),
(327,500,cs),
(240,500,o),
(172,447,o),
(138,351,cs),
(132,334,o),
(137,393,o),
(137,422,cs),
(137,617,ls),
(137,978,o),
(468,1233,o),
(800,1233,cs),
(1241,1233,o),
(1598,872,o),
(1598,421,cs),
(1598,-24,o),
(1245,-346,o),
(810,-346,cs),
(388,-346,o),
(146,-140,o),
(-236,-140,cs),
(-407,-140,o),
(-561,-205,o),
(-664,-318,c)
);
}
);
width = 537;
},
{
layerId = "EECBB25E-CCC9-4EB7-9066-53ACD40459CA";
shapes = (
{
closed = 1;
nodes = (
(-656,-320,l),
(-554,-210,o),
(-404,-146,o),
(-236,-146,cs),
(143,-146,o),
(409,-466,o),
(839,-466,cs),
(1277,-466,o),
(1633,-28,o),
(1633,421,cs),
(1633,878,o),
(1274,1243,o),
(826,1243,cs),
(357,1243,o),
(65,923,o),
(65,517,cs),
(65,0,l),
(262,0,l),
(262,278,ls),
(262,374,o),
(298,453,o),
(345,453,cs),
(377,453,o),
(382,424,o),
(382,345,cs),
(382,184,ls),
(382,47,o),
(430,-9,o),
(525,-9,cs),
(586,-9,o),
(615,14,o),
(627,47,c),
(622,54,l),
(617,37,o),
(608,32,o),
(601,32,cs),
(587,32,o),
(584,60,o),
(584,106,cs),
(584,295,l),
(585,420,o),
(554,500,o),
(427,500,cs),
(295,500,o),
(267,379,o),
(259,351,cs),
(255,339,o),
(251,344,o),
(251,351,cs),
(251,617,l),
(256,978,o),
(500,1233,o),
(829,1233,cs),
(1270,1233,o),
(1627,872,o),
(1627,421,cs),
(1627,-24,o),
(1274,-306,o),
(839,-306,cs),
(417,-306,o),
(146,-140,o),
(-236,-140,cs),
(-407,-140,o),
(-561,-205,o),
(-664,-318,c)
);
}
);
width = 644;
}
);
},
{
color = (153, 255, 154, 255);
glyphname = h.44.acc;
layers = (
{
layerId = "4B09473C-DE20-458D-B091-F76EF41CC662";
shapes = (
{
closed = 1;
nodes = (
(-2061,454,l),
(-1924,734,o),
(-1637,929,o),
(-1308,929,cs),
(-828,929,o),
(-519,570,o),
(-209,222,cs),
(81,-103,o),
(372,-418,o),
(802,-418,cs),
(1242,-418,o),
(1596,-29,o),
(1596,421,cs),
(1596,878,o),
(1237,1243,o),
(789,1243,cs),
(393,1243,o),
(62,923,o),
(62,517,cs),
(62,0,l),
(129,0,l),
(129,278,ls),
(129,383,o),
(191,470,o),
(281,470,cs),
(348,470,o),
(379,422,o),
(379,345,cs),
(379,101,ls),
(379,26,o),
(411,-9,o),
(464,-9,cs),
(506,-9,o),
(527,12,o),
(538,35,c),
(533,42,l),
(524,24,o),
(513,15,o),
(495,15,cs),
(459,15,o),
(449,50,o),
(449,106,cs),
(449,330,ls),
(449,431,o),
(418,500,o),
(319,500,cs),
(232,500,o),
(163,447,o),
(130,351,cs),
(124,335,o),
(129,393,o),
(129,422,cs),
(129,617,ls),
(129,978,o),
(460,1233,o),
(792,1233,cs),
(1233,1233,o),
(1590,872,o),
(1590,421,cs),
(1590,-24,o),
(1237,-348,o),
(802,-348,cs),
(349,-348,o),
(65,-70,o),
(-204,227,cs),
(-514,568,o),
(-804,935,o),
(-1308,935,cs),
(-1639,935,o),
(-1929,738,o),
(-2067,456,c)
);
}
);
width = 529;
},
{
layerId = "EECBB25E-CCC9-4EB7-9066-53ACD40459CA";
shapes = (
{
closed = 1;
nodes = (
(-2037,453,l),
(-1900,733,o),
(-1613,928,o),
(-1284,928,cs),
(-862,928,o),
(-562,643,o),
(-299,314,cs),
(27,-93,o),
(344,-488,o),
(826,-488,cs),
(1284,-488,o),
(1633,-19,o),
(1633,421,cs),
(1633,878,o),
(1274,1243,o),
(826,1243,cs),
(364,1243,o),
(74,933,o),
(65,536,c),
(65,0,l),
(262,0,l),
(262,278,ls),
(262,374,o),
(298,453,o),
(345,453,cs),
(377,453,o),
(382,424,o),
(382,345,cs),
(382,184,ls),
(382,47,o),
(430,-9,o),
(525,-9,cs),
(586,-9,o),
(615,14,o),
(627,47,c),
(622,54,l),
(617,37,o),
(608,32,o),
(601,32,cs),
(587,32,o),
(584,60,o),
(584,106,cs),
(584,295,l),
(585,420,o),
(554,500,o),
(427,500,cs),
(295,500,o),
(267,379,o),
(259,351,cs),
(255,339,o),
(251,344,o),
(251,351,cs),
(251,619,ls),
(251,980,o),
(500,1233,o),
(829,1233,cs),
(1270,1233,o),
(1627,872,o),
(1627,421,cs),
(1627,-35,o),
(1266,-328,o),
(826,-328,cs),
(294,-328,o),
(9,-57,o),
(-295,318,cs),
(-557,641,o),
(-846,934,o),
(-1284,934,cs),
(-1615,934,o),
(-1905,737,o),
(-2043,455,c)
);
}
);
width = 644;
}
);
},
{
color = (153, 255, 154, 255);
glyphname = h.9;
layers = (
{
layerId = "4B09473C-DE20-458D-B091-F76EF41CC662";
leftMetricsKey = l;
rightMetricsKey = n;
shapes = (
{
closed = 1;
nodes = (
(65,0,l),
(132,0,l),
(132,278,ls),
(132,383,o),
(194,470,o),
(284,470,cs),
(351,470,o),
(382,422,o),
(382,345,cs),
(382,187,ls),
(382,10,o),
(476,-125,o),
(668,-125,cs),
(857,-125,o),
(954,5,o),
(954,139,cs),
(954,193,o),
(924,242,o),
(871,242,cs),
(833,242,o),
(807,216,o),
(807,185,cs),
(807,155,o),
(831,128,o),
(868,128,cs),
(897,128,o),
(921,145,o),
(930,166,c),
(935,150,o),
(937,136,o),
(937,118,cs),
(937,-5,o),
(838,-103,o),
(696,-103,cs),
(573,-103,o),
(452,-30,o),
(452,187,cs),
(452,330,ls),
(452,431,o),
(421,500,o),
(322,500,cs),
(235,500,o),
(165,447,o),
(133,351,cs),
(128,335,o),
(132,389,o),
(132,418,cs),
(132,721,l),
(-12,689,l),
(-12,682,l),
(44,682,o),
(65,686,o),
(65,634,cs)
);
}
);
width = 946;
},
{
layerId = "EECBB25E-CCC9-4EB7-9066-53ACD40459CA";
shapes = (
{
closed = 1;
nodes = (
(65,0,l),
(262,0,l),
(262,278,ls),
(262,374,o),
(298,453,o),
(345,453,cs),
(374,453,o),
(386,424,o),
(386,345,cs),
(386,180,ls),
(386,-23,o),
(527,-150,o),
(728,-150,cs),
(933,-150,o),
(1050,-12,o),
(1050,126,cs),
(1050,218,o),
(998,303,o),
(908,303,cs),
(843,303,o),
(799,258,o),
(799,205,cs),
(799,154,o),
(840,107,o),
(903,107,cs),
(952,107,o),
(993,136,o),
(1009,173,c),
(1017,146,o),
(1021,122,o),
(1021,96,cs),
(1021,-29,o),
(927,-119,o),
(800,-119,cs),
(688,-119,o),
(584,-54,o),
(584,162,cs),
(584,295,l),
(585,420,o),
(554,500,o),
(427,500,cs),
(295,500,o),
(267,379,o),
(259,351,cs),
(255,339,o),
(251,344,o),
(251,351,cs),
(251,721,l),
(-12,689,l),
(-12,682,l),
(44,682,o),
(65,686,o),
(65,634,cs)
);
}
);
width = 1089;
}
);
},
{
color = (255, 153, 153, 255);
glyphname = i;
layers = (
{
anchors = (
{
name = top;
position = "{108, 577}";
}
);
background = {
shapes = (
{
closed = 0;
nodes = (
(152,-9,ls),
(188,-9,o),
(221,5,o),
(233,30,c),
(229,36,l),
(220,22,o),
(208,15,o),
(190,15,cs)
);
}
);
};
hints = (
{
horizontal = 1;
place = (-6,38);
type = Stem;
},
{
horizontal = 1;
place = (580,174);
type = Stem;
},
{
place = (75,197);
type = Stem;
},
{
place = (75,250);
type = Stem;
},
{
place = (87,185);
type = Stem;
}
);
layerId = "4B09473C-DE20-458D-B091-F76EF41CC662";
leftMetricsKey = n;
rightMetricsKey = a;
shapes = (
{
closed = 1;
nodes = (
(229,36,l),
(219,22,o),
(208,15,o),
(190,15,cs),
(147,15,o),
(145,51,o),
(145,168,cs),
(145,500,l),
(106,487,o),
(57,481,o),
(0,481,c),
(0,473,l),
(56,473,o),
(77,468,o),
(77,416,cs),
(77,113,ls),
(77,29,o),
(98,-9,o),
(155,-9,cs),
(194,-9,o),
(223,9,o),
(233,30,c)
);
},
{
closed = 1;
nodes = (
(45,612,o),
(71,589,o),
(104,589,cs),
(137,589,o),
(163,612,o),
(163,642,cs),
(163,672,o),
(137,695,o),
(104,695,cs),
(71,695,o),
(45,672,o),
(45,642,cs)
);
}
);
width = 229;
},
{
anchors = (
{
name = top;
position = "{157, 577}";
}
);
hints = (
{
horizontal = 1;
place = (-6,38);
type = Stem;
},
{
horizontal = 1;
place = (580,174);
type = Stem;
},
{
place = (65,197);
type = Stem;
},
{
place = (65,250);
type = Stem;
},
{
place = (77,185);
type = Stem;
}
);
layerId = "EECBB25E-CCC9-4EB7-9066-53ACD40459CA";
shapes = (
{
closed = 1;
nodes = (
(311,40,l),
(308,35,o),
(298,27,o),
(286,27,cs),
(256,27,o),
(256,72,o),
(256,185,cs),
(256,500,l),
(181,487,o),
(90,481,o),
(-14,481,c),
(-14,473,l),
(42,473,o),
(63,468,o),
(63,416,cs),
(63,157,ls),
(63,43,o),
(104,-6,o),
(197,-6,cs),
(253,-6,o),
(301,12,o),
(317,33,c)
);
},
{
closed = 1;
nodes = (
(51,587,o),
(99,544,o),
(161,544,cs),
(223,544,o),
(271,587,o),
(271,642,cs),
(271,697,o),
(223,740,o),
(161,740,cs),
(99,740,o),
(51,697,o),
(51,642,cs)
);
}
);
width = 317;
}
);
unicode = 105;
},
{
color = (153, 255, 154, 255);
glyphname = i.1;
layers = (
{
layerId = "4B09473C-DE20-458D-B091-F76EF41CC662";
leftMetricsKey = n;
rightMetricsKey = a;
shapes = (
{
closed = 1;
nodes = (
(77,137,ls),
(77,23,o),
(98,-9,o),
(153,-9,cs),
(194,-9,o),
(223,9,o),
(233,30,c),
(229,36,l),
(219,22,o),
(208,15,o),
(190,15,cs),
(147,15,o),
(145,51,o),
(145,168,cs),
(145,509,ls),
(145,559,o),
(165,608,o),
(142,662,cs),
(133,682,o),
(112,695,o),
(87,695,cs),
(54,695,o),
(28,672,o),
(28,642,cs),
(28,612,o),
(54,589,o),
(87,589,cs),
(117,589,o),
(139,607,o),
(144,632,c),
(156,565,o),
(118,481,o),
(0,481,c),
(0,473,l),
(56,473,o),
(77,468,o),
(77,416,cs)
);
}
);
width = 229;
},
{
layerId = "EECBB25E-CCC9-4EB7-9066-53ACD40459CA";
shapes = (
{
closed = 1;
nodes = (
(66,157,ls),
(66,43,o),
(107,-6,o),
(200,-6,cs),
(256,-6,o),
(302,12,o),
(318,33,c),
(312,40,l),
(309,35,o),
(299,27,o),
(287,27,cs),
(257,27,o),
(257,72,o),
(257,185,cs),
(257,495,ls),
(257,544,o),
(275,593,o),
(275,642,cs),
(275,697,o),
(227,740,o),
(165,740,cs),
(103,740,o),
(55,697,o),
(55,642,cs),
(55,587,o),
(103,544,o),
(165,544,cs),
(206,544,o),
(240,562,o),
(259,590,c),
(242,472,o),
(64,481,o),
(-11,481,c),
(-11,473,l),
(45,473,o),
(66,478,o),
(66,426,cs)
);
}
);
width = 319;
}
);
},
{
color = (153, 255, 154, 255);
glyphname = i.7;
layers = (
{
layerId = "4B09473C-DE20-458D-B091-F76EF41CC662";
shapes = (
{
closed = 1;
nodes = (
(145,459,l),
(196,424,o),
(261,402,o),
(328,401,cs),
(507,401,o),
(606,543,o),
(606,682,cs),
(606,817,o),
(517,948,o),
(326,948,cs),
(-193,948,o),
(-582,-235,o),
(-1298,-235,cs),
(-1690,-235,o),
(-1908,58,o),
(-1908,372,cs),
(-1908,684,o),
(-1695,1005,o),
(-1269,1005,cs),
(-1141,1005,o),
(-1049,974,o),
(-984,934,c),
(-981,940,l),
(-1047,981,o),
(-1140,1011,o),
(-1269,1011,cs),
(-1699,1011,o),
(-1914,686,o),
(-1914,372,cs),
(-1914,54,o),
(-1694,-241,o),
(-1298,-241,cs),
(-574,-241,o),
(-188,942,o),
(326,942,cs),
(513,942,o),
(600,813,o),
(600,682,cs),
(600,545,o),
(503,407,o),
(328,407,cs),
(261,408,o),
(196,428,o),
(145,469,c),
(145,500,l),
(137,497,o),
(128,495,o),
(119,493,c),
(93,521,o),
(73,557,o),
(62,601,c),
(72,592,o),
(85,589,o),
(99,589,cs),
(132,589,o),
(158,612,o),
(158,642,cs),
(158,672,o),
(132,695,o),
(99,695,cs),
(60,695,o),
(39,665,o),
(39,629,cs),
(39,578,o),
(65,529,o),
(106,490,c),
(75,484,o),
(39,481,o),
(0,481,c),
(0,473,l),
(56,473,o),
(77,468,o),
(77,416,cs),
(77,113,ls),
(77,29,o),
(98,-9,o),
(155,-9,cs),
(194,-9,o),
(223,9,o),
(233,30,c),
(229,36,l),
(219,22,o),
(208,15,o),
(190,15,cs),
(147,15,o),
(145,51,o),
(145,168,cs)
);
}
);
width = 225;
},
{
layerId = "EECBB25E-CCC9-4EB7-9066-53ACD40459CA";
shapes = (
{
closed = 1;
nodes = (
(256,408,l),
(279,404,o),
(303,401,o),
(328,401,cs),
(507,401,o),
(606,543,o),
(606,682,cs),
(606,817,o),
(517,948,o),
(326,948,cs),
(-193,948,o),
(-582,-235,o),
(-1298,-235,cs),
(-1690,-235,o),
(-1908,58,o),
(-1908,372,cs),
(-1908,684,o),
(-1695,1005,o),
(-1269,1005,cs),
(-1141,1005,o),
(-1049,974,o),
(-984,934,c),
(-981,940,l),
(-1047,981,o),
(-1140,1011,o),
(-1269,1011,cs),
(-1699,1011,o),
(-1914,686,o),
(-1914,372,cs),
(-1914,54,o),
(-1694,-241,o),
(-1298,-241,cs),
(-574,-241,o),
(-188,942,o),
(326,942,cs),
(513,942,o),
(600,813,o),
(600,682,cs),
(600,545,o),
(503,407,o),
(328,407,cs),
(305,407,o),
(280,411,o),
(256,418,c),
(256,500,l),
(219,494,o),
(177,489,o),
(133,486,c),
(101,515,o),
(78,551,o),
(72,593,c),
(90,568,o),
(128,546,o),
(166,546,cs),
(226,546,o),
(272,592,o),
(272,644,cs),
(272,699,o),
(230,740,o),
(166,740,cs),
(84,740,o),
(45,678,o),
(45,611,cs),
(45,561,o),
(65,518,o),
(98,484,c),
(63,482,o),
(25,481,o),
(-14,481,c),
(-14,473,l),
(42,473,o),
(63,468,o),
(63,416,cs),
(63,157,ls),
(63,43,o),
(104,-6,o),
(197,-6,cs),
(253,-6,o),
(301,12,o),
(317,33,c),
(311,40,l),
(308,35,o),
(298,27,o),
(286,27,cs),
(256,27,o),
(256,72,o),
(256,185,cs)
);
}
);
width = 319;
}
);
},
{
color = (153, 255, 154, 255);
glyphname = i.7.acc;
layers = (
{
layerId = "4B09473C-DE20-458D-B091-F76EF41CC662";
shapes = (
{
closed = 1;
nodes = (
(145,459,l),
(196,424,o),
(261,402,o),
(328,401,cs),
(507,401,o),
(606,543,o),
(606,682,cs),
(606,832,o),
(517,978,o),
(326,978,cs),
(-201,978,o),
(-582,-211,o),
(-1298,-211,cs),
(-1690,-211,o),
(-1908,79,o),
(-1908,372,cs),
(-1908,684,o),
(-1695,1005,o),
(-1269,1005,cs),
(-1141,1005,o),
(-1049,974,o),
(-984,934,c),
(-981,940,l),
(-1047,981,o),
(-1140,1011,o),
(-1269,1011,cs),
(-1699,1011,o),
(-1914,686,o),
(-1914,372,cs),
(-1914,33,o),
(-1694,-281,o),
(-1298,-281,cs),
(-574,-281,o),
(-281,942,o),
(326,942,cs),
(513,942,o),
(600,813,o),
(600,682,cs),
(600,545,o),
(503,407,o),
(328,407,cs),
(261,408,o),
(196,428,o),
(145,469,c),
(145,500,l),
(137,497,o),
(128,495,o),
(119,493,c),
(93,521,o),
(73,557,o),
(62,601,c),
(72,592,o),
(85,589,o),
(99,589,cs),
(132,589,o),
(158,612,o),
(158,642,cs),
(158,672,o),
(132,695,o),
(99,695,cs),
(60,695,o),
(39,665,o),
(39,629,cs),
(39,578,o),
(65,529,o),
(106,490,c),
(75,484,o),
(39,481,o),
(0,481,c),
(0,473,l),
(56,473,o),
(77,468,o),
(77,416,cs),
(77,113,ls),
(77,29,o),
(98,-9,o),
(155,-9,cs),
(194,-9,o),
(223,9,o),
(233,30,c),
(229,36,l),
(219,22,o),
(208,15,o),
(190,15,cs),
(147,15,o),
(145,51,o),
(145,168,cs)
);
}
);
width = 225;
},
{
layerId = "EECBB25E-CCC9-4EB7-9066-53ACD40459CA";
shapes = (
{
closed = 1;
nodes = (
(256,408,l),
(279,404,o),
(303,401,o),
(328,401,cs),
(507,401,o),
(601,542,o),
(611,681,cs),
(623,849,o),
(496,988,o),
(299,988,cs),
(-164,988,o),
(-586,-160,o),
(-1298,-160,cs),
(-1690,-160,o),
(-1908,103,o),
(-1908,372,cs),
(-1908,684,o),
(-1695,1005,o),
(-1269,1005,cs),
(-1141,1005,o),
(-1049,974,o),
(-984,934,c),
(-981,940,l),
(-1047,981,o),
(-1140,1011,o),
(-1269,1011,cs),
(-1699,1011,o),
(-1914,686,o),
(-1914,372,cs),
(-1914,24,o),
(-1694,-291,o),
(-1298,-291,cs),
(-625,-291,o),
(-265,942,o),
(309,942,cs),
(496,942,o),
(600,813,o),
(600,682,cs),
(600,545,o),
(503,407,o),
(328,407,cs),
(305,407,o),
(280,411,o),
(256,418,c),
(256,500,l),
(219,494,o),
(177,489,o),
(133,486,c),
(101,515,o),
(78,551,o),
(72,593,c),
(90,568,o),
(128,546,o),
(166,546,cs),
(226,546,o),
(272,592,o),
(272,644,cs),
(272,699,o),
(230,740,o),
(166,740,cs),
(84,740,o),
(45,678,o),
(45,611,cs),
(45,561,o),
(65,518,o),
(98,484,c),
(63,482,o),
(25,481,o),
(-14,481,c),
(-14,473,l),
(42,473,o),
(63,468,o),
(63,416,cs),
(63,157,ls),
(63,43,o),
(104,-6,o),
(197,-6,cs),
(253,-6,o),
(301,12,o),
(317,33,c),
(311,40,l),
(308,35,o),
(298,27,o),
(286,27,cs),
(256,27,o),
(256,72,o),
(256,185,cs)
);
}
);
width = 319;
}
);
},
{
color = (153, 255, 154, 255);
glyphname = i.9;
layers = (
{
layerId = "4B09473C-DE20-458D-B091-F76EF41CC662";
shapes = (
{
closed = 1;
nodes = (
(76,187,ls),
(76,10,o),
(170,-125,o),
(362,-125,cs),
(551,-125,o),
(648,5,o),
(648,139,cs),
(648,193,o),
(618,242,o),
(565,242,cs),
(527,242,o),
(501,216,o),
(501,185,cs),
(501,155,o),
(525,128,o),
(562,128,cs),
(591,128,o),
(615,145,o),
(624,166,c),
(629,150,o),
(631,136,o),
(631,118,cs),
(631,-5,o),
(532,-103,o),
(390,-103,cs),
(267,-103,o),
(146,-30,o),
(146,187,cs),
(144,500,l),
(105,487,o),
(56,481,o),
(-1,481,c),
(-1,473,l),
(55,473,o),
(76,468,o),
(76,416,cs)
);
},
{
closed = 1;
nodes = (
(45,612,o),
(71,589,o),
(104,589,cs),
(137,589,o),
(163,612,o),
(163,642,cs),
(163,672,o),
(137,695,o),
(104,695,cs),
(71,695,o),
(45,672,o),
(45,642,cs)
);
}
);
width = 675;
},
{
layerId = "EECBB25E-CCC9-4EB7-9066-53ACD40459CA";
shapes = (
{
closed = 1;
nodes = (
(63,178,ls),
(63,-25,o),
(202,-152,o),
(400,-152,cs),
(605,-152,o),
(722,-14,o),
(722,124,cs),
(722,216,o),
(670,301,o),
(580,301,cs),
(515,301,o),
(471,256,o),
(471,203,cs),
(471,152,o),
(512,105,o),
(575,105,cs),
(624,105,o),
(665,134,o),
(681,171,c),
(689,144,o),
(693,120,o),
(693,94,cs),
(693,-31,o),
(599,-121,o),
(472,-121,cs),
(360,-121,o),
(256,-56,o),
(256,160,cs),
(256,500,l),
(181,487,o),
(90,481,o),
(-14,481,c),
(-14,473,l),
(42,473,o),
(63,468,o),
(63,416,cs)
);
},
{
closed = 1;
nodes = (
(51,587,o),
(99,544,o),
(161,544,cs),
(223,544,o),
(271,587,o),
(271,642,cs),
(271,697,o),
(223,740,o),
(161,740,cs),
(99,740,o),
(51,697,o),
(51,642,cs)
);
}
);
width = 761;
}
);
},
{
color = (255, 153, 153, 255);
glyphname = j;
layers = (
{
hints = (
{
horizontal = 1;
place = (-321,199);
type = Stem;
},
{
horizontal = 1;
place = (-220,98);
type = Stem;
},
{
horizontal = 1;
place = (580,174);
type = Stem;
},
{
place = (79,197);
type = Stem;
},
{
place = (91,185);
type = Stem;
},
{
place = (197,79);
type = Stem;
}
);
layerId = "4B09473C-DE20-458D-B091-F76EF41CC662";
shapes = (
{
closed = 1;
nodes = (
(2,473,l),
(58,473,o),
(79,468,o),
(79,416,cs),
(79,-180,ls),
(79,-241,o),
(41,-280,o),
(-6,-280,cs),
(-28,-280,o),
(-42,-271,o),
(-45,-257,c),
(-25,-248,o),
(-10,-226,o),
(-10,-202,cs),
(-10,-178,o),
(-25,-153,o),
(-57,-153,cs),
(-88,-153,o),
(-105,-176,o),
(-105,-208,cs),
(-105,-258,o),
(-63,-288,o),
(4,-288,cs),
(122,-288,o),
(147,-196,o),
(147,-95,cs),
(147,500,l),
(108,487,o),
(59,481,o),
(2,481,c)
);
},
{
closed = 1;
nodes = (
(47,612,o),
(73,589,o),
(106,589,cs),
(139,589,o),
(165,612,o),
(165,642,cs),
(165,672,o),
(139,695,o),
(106,695,cs),
(73,695,o),
(47,672,o),
(47,642,cs)
);
}
);
width = 225;
},
{
hints = (
{
horizontal = 1;
place = (-321,199);
type = Stem;
},
{
horizontal = 1;
place = (-220,98);
type = Stem;
},
{
horizontal = 1;
place = (580,174);
type = Stem;
},
{
place = (79,197);
type = Stem;
},
{
place = (91,185);
type = Stem;
},
{
place = (197,79);
type = Stem;
}
);
layerId = "EECBB25E-CCC9-4EB7-9066-53ACD40459CA";
shapes = (
{
closed = 1;
nodes = (
(-14,473,l),
(42,473,o),
(63,468,o),
(63,416,cs),
(63,-176,ls),
(63,-223,o),
(46,-280,o),
(-7,-280,cs),
(-30,-280,o),
(-41,-269,o),
(-44,-262,c),
(-11,-247,o),
(5,-211,o),
(5,-177,cs),
(5,-133,o),
(-21,-91,o),
(-74,-91,cs),
(-123,-91,o),
(-151,-128,o),
(-151,-177,cs),
(-151,-235,o),
(-113,-290,o),
(19,-290,cs),
(196,-290,o),
(260,-192,o),
(260,-58,cs),
(260,500,l),
(185,487,o),
(90,481,o),
(-14,481,c)
);
},
{
closed = 1;
nodes = (
(51,587,o),
(99,544,o),
(161,544,cs),
(223,544,o),
(271,587,o),
(271,642,cs),
(271,697,o),
(223,740,o),
(161,740,cs),
(99,740,o),
(51,697,o),
(51,642,cs)
);
}
);
width = 316;
}
);
unicode = 106;
},
{
color = (153, 255, 154, 255);
glyphname = j.4;
layers = (
{
layerId = "4B09473C-DE20-458D-B091-F76EF41CC662";
shapes = (
{
closed = 1;
nodes = (
(0,473,l),
(56,473,o),
(77,468,o),
(77,416,cs),
(77,138,ls),
(77,-231,o),
(-186,-397,o),
(-462,-397,cs),
(-795,-397,o),
(-1066,-126,o),
(-1066,207,cs),
(-1066,540,o),
(-795,811,o),
(-462,811,cs),
(-307,811,o),
(-165,752,o),
(-58,655,c),
(-52,659,l),
(-160,757,o),
(-304,817,o),
(-462,817,cs),
(-799,817,o),
(-1072,544,o),
(-1072,207,cs),
(-1072,-136,o),
(-795,-413,o),
(-452,-413,cs),
(-134,-413,o),
(145,-192,o),
(145,173,cs),
(145,500,l),
(106,487,o),
(57,481,o),
(0,481,c)
);
},
{
closed = 1;
nodes = (
(45,612,o),
(71,589,o),
(104,589,cs),
(137,589,o),
(163,612,o),
(163,642,cs),
(163,672,o),
(137,695,o),
(104,695,cs),
(71,695,o),
(45,672,o),
(45,642,cs)
);
}
);
width = 225;
},
{
layerId = "EECBB25E-CCC9-4EB7-9066-53ACD40459CA";
shapes = (
{
closed = 1;
nodes = (
(-10,473,l),
(46,473,o),
(67,468,o),
(67,416,cs),
(67,138,ls),
(67,-231,o),
(-180,-397,o),
(-451,-397,cs),
(-784,-397,o),
(-1055,-126,o),
(-1055,207,cs),
(-1055,540,o),
(-784,811,o),
(-451,811,cs),
(-296,811,o),
(-154,752,o),
(-47,655,c),
(-41,659,l),
(-149,757,o),
(-293,817,o),
(-451,817,cs),
(-788,817,o),
(-1061,544,o),
(-1061,207,cs),
(-1061,-136,o),
(-784,-413,o),
(-441,-413,cs),
(-58,-413,o),
(264,-192,o),
(264,173,cs),
(264,500,l),
(189,487,o),
(94,481,o),
(-10,481,c)
);
},
{
closed = 1;
nodes = (
(55,587,o),
(103,544,o),
(165,544,cs),
(227,544,o),
(275,587,o),
(275,642,cs),
(275,697,o),
(227,740,o),
(165,740,cs),
(103,740,o),
(55,697,o),
(55,642,cs)
);
}
);
width = 317;
}
);
},
{
color = (153, 255, 154, 255);
glyphname = j.7;
layers = (
{
layerId = "4B09473C-DE20-458D-B091-F76EF41CC662";
shapes = (
{
closed = 1;
nodes = (
(-977,940,l),
(-1043,981,o),
(-1136,1011,o),
(-1265,1011,cs),
(-1695,1011,o),
(-1910,686,o),
(-1910,372,cs),
(-1910,54,o),
(-1690,-241,o),
(-1294,-241,cs),
(-570,-241,o),
(-184,942,o),
(330,942,cs),
(517,942,o),
(604,813,o),
(604,682,cs),
(604,545,o),
(507,407,o),
(332,407,cs),
(264,408,o),
(196,429,o),
(145,472,c),
(145,500,l),
(138,498,o),
(130,495,o),
(122,494,c),
(96,522,o),
(77,558,o),
(66,601,c),
(76,592,o),
(89,589,o),
(103,589,cs),
(136,589,o),
(162,612,o),
(162,642,cs),
(162,672,o),
(136,695,o),
(103,695,cs),
(64,695,o),
(43,665,o),
(43,629,cs),
(43,578,o),
(68,530,o),
(109,491,c),
(77,484,o),
(41,481,o),
(0,481,c),
(0,473,l),
(56,473,o),
(77,468,o),
(77,416,cs),
(77,-180,ls),
(77,-241,o),
(39,-280,o),
(-8,-280,cs),
(-30,-280,o),
(-44,-271,o),
(-47,-257,c),
(-27,-248,o),
(-12,-226,o),
(-12,-202,cs),
(-12,-178,o),
(-27,-153,o),
(-59,-153,cs),
(-90,-153,o),
(-107,-176,o),
(-107,-208,cs),
(-107,-258,o),
(-65,-288,o),
(2,-288,cs),
(120,-288,o),
(145,-196,o),
(145,-95,cs),
(145,461,l),
(197,425,o),
(264,402,o),
(332,401,cs),
(511,401,o),
(610,543,o),
(610,682,cs),
(610,817,o),
(521,948,o),
(330,948,cs),
(-189,948,o),
(-578,-235,o),
(-1294,-235,cs),
(-1686,-235,o),
(-1904,58,o),
(-1904,372,cs),
(-1904,684,o),
(-1691,1005,o),
(-1265,1005,cs),
(-1137,1005,o),
(-1045,974,o),
(-980,934,c)
);
}
);
width = 225;
},
{
layerId = "EECBB25E-CCC9-4EB7-9066-53ACD40459CA";
shapes = (
{
closed = 1;
nodes = (
(-981,940,l),
(-1047,981,o),
(-1140,1011,o),
(-1269,1011,cs),
(-1699,1011,o),
(-1914,686,o),
(-1914,372,cs),
(-1914,54,o),
(-1694,-241,o),
(-1298,-241,cs),
(-574,-241,o),
(-188,942,o),
(326,942,cs),
(513,942,o),
(600,813,o),
(600,682,cs),
(600,545,o),
(503,407,o),
(328,407,cs),
(306,407,o),
(283,411,o),
(260,417,c),
(260,500,l),
(222,493,o),
(179,489,o),
(133,486,c),
(101,515,o),
(78,551,o),
(72,593,c),
(90,568,o),
(128,546,o),
(166,546,cs),
(226,546,o),
(272,592,o),
(272,644,cs),
(272,699,o),
(230,740,o),
(166,740,cs),
(84,740,o),
(45,678,o),
(45,611,cs),
(45,561,o),
(65,518,o),
(98,484,c),
(62,482,o),
(25,481,o),
(-14,481,c),
(-14,473,l),
(42,473,o),
(63,468,o),
(63,416,cs),
(63,-176,ls),
(63,-223,o),
(46,-280,o),
(-7,-280,cs),
(-30,-280,o),
(-41,-269,o),
(-44,-262,c),
(-11,-247,o),
(5,-211,o),
(5,-177,cs),
(5,-133,o),
(-21,-91,o),
(-74,-91,cs),
(-123,-91,o),
(-151,-128,o),
(-151,-177,cs),
(-151,-235,o),
(-113,-290,o),
(19,-290,cs),
(196,-290,o),
(260,-192,o),
(260,-58,cs),
(260,407,l),
(282,403,o),
(304,401,o),
(328,401,cs),
(507,401,o),
(606,543,o),
(606,682,cs),
(606,817,o),
(517,948,o),
(326,948,cs),
(-193,948,o),
(-582,-235,o),
(-1298,-235,cs),
(-1690,-235,o),
(-1908,58,o),
(-1908,372,cs),
(-1908,684,o),
(-1695,1005,o),
(-1269,1005,cs),
(-1141,1005,o),
(-1049,974,o),
(-984,934,c)
);
}
);
width = 316;
}
);
},
{
color = (153, 255, 154, 255);
glyphname = j.7.acc;
layers = (
{
layerId = "4B09473C-DE20-458D-B091-F76EF41CC662";
shapes = (
{
closed = 1;
nodes = (
(-977,940,l),
(-1043,981,o),
(-1136,1011,o),
(-1265,1011,cs),
(-1695,1011,o),
(-1910,686,o),
(-1910,372,cs),
(-1910,54,o),
(-1690,-241,o),
(-1294,-241,cs),
(-570,-241,o),
(-251,942,o),
(330,942,cs),
(517,942,o),
(604,813,o),
(604,682,cs),
(604,545,o),
(507,407,o),
(332,407,cs),
(264,408,o),
(196,429,o),
(145,472,c),
(145,500,l),
(138,498,o),
(130,495,o),
(122,494,c),
(96,522,o),
(77,558,o),
(66,601,c),
(76,592,o),
(89,589,o),
(103,589,cs),
(136,589,o),
(162,612,o),
(162,642,cs),
(162,672,o),
(136,695,o),
(103,695,cs),
(64,695,o),
(43,665,o),
(43,629,cs),
(43,578,o),
(68,530,o),
(109,491,c),
(77,484,o),
(41,481,o),
(0,481,c),
(0,473,l),
(56,473,o),
(77,468,o),
(77,416,cs),
(77,-180,ls),
(77,-241,o),
(39,-280,o),
(-8,-280,cs),
(-30,-280,o),
(-44,-271,o),
(-47,-257,c),
(-27,-248,o),
(-12,-226,o),
(-12,-202,cs),
(-12,-178,o),
(-27,-153,o),
(-59,-153,cs),
(-90,-153,o),
(-107,-176,o),
(-107,-208,cs),
(-107,-258,o),
(-65,-288,o),
(2,-288,cs),
(120,-288,o),
(145,-196,o),
(145,-95,cs),
(145,461,l),
(197,425,o),
(264,402,o),
(332,401,cs),
(511,401,o),
(610,543,o),
(610,682,cs),
(610,817,o),
(521,977,o),
(330,977,cs),
(-166,977,o),
(-578,-171,o),
(-1294,-171,cs),
(-1686,-171,o),
(-1904,58,o),
(-1904,372,cs),
(-1904,684,o),
(-1691,1005,o),
(-1265,1005,cs),
(-1137,1005,o),
(-1045,974,o),
(-980,934,c)
);
}
);
width = 220;
},
{
layerId = "EECBB25E-CCC9-4EB7-9066-53ACD40459CA";
shapes = (
{
closed = 1;
nodes = (
(-981,940,l),
(-1047,981,o),
(-1140,1011,o),
(-1269,1011,cs),
(-1699,1011,o),
(-1914,686,o),
(-1914,372,cs),
(-1914,54,o),
(-1694,-294,o),
(-1298,-294,cs),
(-574,-294,o),
(-294,942,o),
(306,942,cs),
(493,942,o),
(600,813,o),
(600,682,cs),
(600,545,o),
(503,407,o),
(328,407,cs),
(306,407,o),
(283,411,o),
(260,417,c),
(260,500,l),
(222,493,o),
(179,489,o),
(133,486,c),
(101,515,o),
(78,551,o),
(72,593,c),
(90,568,o),
(128,546,o),
(166,546,cs),
(226,546,o),
(272,592,o),
(272,644,cs),
(272,699,o),
(230,740,o),
(166,740,cs),
(84,740,o),
(45,678,o),
(45,611,cs),
(45,561,o),
(65,518,o),
(98,484,c),
(62,482,o),
(25,481,o),
(-14,481,c),
(-14,473,l),
(42,473,o),
(63,468,o),
(63,416,cs),
(63,-176,ls),
(63,-223,o),
(46,-280,o),
(-7,-280,cs),
(-30,-280,o),
(-41,-269,o),
(-44,-262,c),
(-11,-247,o),
(5,-211,o),
(5,-177,cs),
(5,-133,o),
(-21,-91,o),
(-74,-91,cs),
(-123,-91,o),
(-151,-128,o),
(-151,-177,cs),
(-151,-235,o),
(-113,-290,o),
(19,-290,cs),
(196,-290,o),
(260,-192,o),
(260,-58,cs),
(260,407,l),
(282,403,o),
(304,401,o),
(328,401,cs),
(507,401,o),
(606,543,o),
(606,682,cs),
(606,817,o),
(497,992,o),
(306,992,cs),
(-213,992,o),
(-474,-134,o),
(-1298,-134,cs),
(-1690,-134,o),
(-1908,58,o),
(-1908,372,cs),
(-1908,684,o),
(-1695,1005,o),
(-1269,1005,cs),
(-1141,1005,o),
(-1049,974,o),
(-984,934,c)
);
}
);
width = 316;
}
);
},
{
color = (255, 153, 153, 255);
glyphname = k;
layers = (
{
guides = (
{
position = "{0, 474}";
}
);
hints = (
{
horizontal = 1;
place = (-6,38);
type = Stem;
},
{
horizontal = 1;
place = (-6,244);
type = Stem;
},
{
horizontal = 1;
place = (224,111);
type = Stem;
},
{
horizontal = 1;
place = (255,80);
type = Stem;
},
{
horizontal = 1;
place = (460,29);
type = Stem;
},
{
horizontal = 1;
place = (736,-20);
target = down;
type = TopGhost;
},
{
place = (88,207);
type = Stem;
},
{
place = (388,198);
type = Stem;
}
);
layerId = "4B09473C-DE20-458D-B091-F76EF41CC662";
shapes = (
{
closed = 1;
nodes = (
(258.5,481,ls),
(256.4,481.,o),
(255,479.6,o),
(255,477.5,c),
(255,477.5,l),
(255.,475.41,o),
(256.39,474.007,o),
(258.5,473.967,cs),
(340.463,472.393,o),
(320.841,414.731,o),
(238,324,cs),
(137,213,l),
(137,721,l),
(-7,689,l),
(-7,682,l),
(49,682,o),
(70,686,o),
(70,634,cs),
(70,0,l),
(137,0,l),
(137,202,l),
(197,268,l),
(200,271,o),
(202,274,o),
(205,276,c),
(215,287,o),
(222,292,o),
(232,292,cs),
(338,292,o),
(323,-13,o),
(439,-13,cs),
(480,-13,o),
(514,8,o),
(509,48,c),
(505,49,l),
(505,27,o),
(499,15,o),
(484,15,cs,{name = hr01;}),
(454,15,o),
(435,64,o),
(410,121,cs),
(376,199,o),
(332,300,o),
(234,300,cs),
(232,300,o),
(228,300,o),
(225,299,c),
(247,323,ls),
(360,443,o),
(403,474,o),
(475,474,cs),
(479,474,o),
(481,476,o),
(481,478,cs),
(481,479,o),
(479,481,o),
(475,481,cs)
);
}
);
width = 509;
},
{
guides = (
{
position = "{0, 474}";
}
);
hints = (
{
horizontal = 1;
place = (-6,38);
type = Stem;
},
{
horizontal = 1;
place = (-6,244);
type = Stem;
},
{
horizontal = 1;
place = (224,111);
type = Stem;
},
{
horizontal = 1;
place = (255,80);
type = Stem;
},
{
horizontal = 1;
place = (462,29);
type = Stem;
},
{
horizontal = 1;
place = (736,-20);
target = down;
type = TopGhost;
},
{
place = (88,207);
type = Stem;
},
{
place = (388,198);
type = Stem;
}
);
layerId = "EECBB25E-CCC9-4EB7-9066-53ACD40459CA";
shapes = (
{
closed = 1;
nodes = (
(342.5,481,ls),
(340.4,481,o),
(339,479.6,o),
(339,477.5,c),
(339,477.5,l),
(339,475.452,o),
(340.351,474.039,o),
(342.496,473.845,cs),
(389.778,469.557,o),
(384.429,377.288,o),
(319,306,cs),
(262,243,l),
(262,721,l),
(-12,689,l),
(-12,682,l),
(44,682,o),
(65,686,o),
(65,634,cs),
(65,0,l),
(262,0,l),
(262,233,l),
(274,246,l),
(275,247,o),
(276,248,o),
(277,249,c),
(283,256,o),
(290,261,o),
(299,261,cs),
(358,261,o),
(276,-9,o),
(494,-9,cs),
(537,-9,o),
(614,13,o),
(614,53,c),
(607,53,l),
(607,45,o),
(604,37,o),
(593,37,cs),
(576,37,o),
(564,79,o),
(554,129,cs),
(540,202,o),
(483,281,o),
(362,281,cs),
(343,281,o),
(318,279,o),
(296,270,c),
(328,305,ls),
(401,386,o),
(513,474,o),
(585,474,cs),
(589,474,o),
(591,476,o),
(591,478,cs),
(591,479,o),
(589,481,o),
(585,481,cs)
);
}
);
width = 617;
}
);
unicode = 107;
},
{
color = (153, 255, 154, 255);
glyphname = k.7;
layers = (
{
guides = (
{
position = "{0, 474}";
}
);
hints = (
{
horizontal = 1;
place = (-6,38);
type = Stem;
},
{
horizontal = 1;
place = (-6,244);
type = Stem;
},
{
horizontal = 1;
place = (224,111);
type = Stem;
},
{
horizontal = 1;
place = (255,80);
type = Stem;
},
{
horizontal = 1;
place = (438,29);
type = Stem;
},
{
horizontal = 1;
place = (736,-20);
target = down;
type = TopGhost;
},
{
place = (82,207);
type = Stem;
},
{
place = (382,198);
type = Stem;
}
);
layerId = "4B09473C-DE20-458D-B091-F76EF41CC662";
shapes = (
{
closed = 1;
nodes = (
(252.5,481,ls),
(250.4,481.,o),
(249,479.6,o),
(249,477.5,c),
(249,477.5,l),
(249,475.41,o),
(250.39,474.007,o),
(252.5,473.967,cs),
(334.463,472.393,o),
(314.841,414.731,o),
(232,324,cs),
(131,213,l),
(131,721,l),
(-13,689,l),
(-13,682,l),
(43,682,o),
(64,686,o),
(64,634,cs),
(64,142,l),
(-263,-219,o),
(-637,-616,o),
(-1113,-616,cs),
(-1589,-616,o),
(-1976,-229,o),
(-1976,247,cs),
(-1976,723,o),
(-1589,1110,o),
(-1113,1110,cs),
(-902,1110,o),
(-708,1034,o),
(-558,907,c),
(-553,911,l),
(-704,1039,o),
(-900,1116,o),
(-1113,1116,cs),
(-1593,1116,o),
(-1982,727,o),
(-1982,247,cs),
(-1982,-233,o),
(-1593,-622,o),
(-1113,-622,cs),
(-638,-622,o),
(-264,-230,o),
(64,131,c),
(64,0,l),
(131,0,l),
(131,202,l),
(191,268,l),
(194,271,o),
(196,274,o),
(199,276,c),
(209,287,o),
(216,292,o),
(226,292,cs),
(302,292,o),
(357,70,o),
(497,-116,cs),
(599,-253,o),
(746,-371,o),
(981,-371,cs),
(1304,-371,o),
(1600,-143,o),
(1600,201,cs),
(1600,526,o),
(1335,789,o),
(1010,789,cs),
(775,789,o),
(572,661,o),
(379,481,c)
);
},
{
closed = 1;
nodes = (
(468,474,o),
(469,475,o),
(469,477,c),
(469,479,o),
(468,481,o),
(466,481,c),
(390,481,l),
(581,657,o),
(780,783,o),
(1010,783,cs),
(1331,783,o),
(1594,522,o),
(1594,201,cs),
(1594,-135,o),
(1304,-361,o),
(998,-361,cs),
(819,-361,o),
(699,-271,o),
(607,-158,cs),
(451,37,o),
(376,300,o),
(228,300,c),
(226,300,o),
(222,300,o),
(219,299,c),
(241,323,ls),
(352,441,o),
(396,473,o),
(466,474,c)
);
}
);
width = 503;
},
{
guides = (
{
position = "{0, 474}";
}
);
hints = (
{
horizontal = 1;
place = (-6,38);
type = Stem;
},
{
horizontal = 1;
place = (-6,244);
type = Stem;
},
{
horizontal = 1;
place = (224,111);
type = Stem;
},
{
horizontal = 1;
place = (255,80);
type = Stem;
},
{
horizontal = 1;
place = (438,29);
type = Stem;
},
{
horizontal = 1;
place = (736,-20);
target = down;
type = TopGhost;
},
{
place = (88,207);
type = Stem;
},
{
place = (388,198);
type = Stem;
}
);
layerId = "EECBB25E-CCC9-4EB7-9066-53ACD40459CA";
shapes = (
{
closed = 1;
nodes = (
(342.5,481,ls),
(340.4,481.,o),
(339,479.6,o),
(339,477.5,c),
(339,477.5,l),
(339,475.452,o),
(340.351,474.039,o),
(342.496,473.845,cs),
(389.778,469.557,o),
(384.429,377.288,o),
(319,306,cs),
(262,243,l),
(262,721,l),
(-12,689,l),
(-12,682,l),
(44,682,o),
(65,686,o),
(65,634,cs),
(65,50,l),
(-242,-284,o),
(-592,-616,o),
(-1028,-616,cs),
(-1504,-616,o),
(-1891,-229,o),
(-1891,247,cs),
(-1891,723,o),
(-1504,1110,o),
(-1028,1110,cs),
(-817,1110,o),
(-623,1034,o),
(-473,907,c),
(-468,911,l),
(-619,1039,o),
(-815,1116,o),
(-1028,1116,cs),
(-1508,1116,o),
(-1897,727,o),
(-1897,247,cs),
(-1897,-233,o),
(-1508,-622,o),
(-1028,-622,cs),
(-593,-622,o),
(-243,-293,o),
(65,39,c),
(65,0,l),
(262,0,l),
(262,233,l),
(274,246,l),
(277,249,o),
(287,259,o),
(289,262,c),
(293,265,o),
(297,266,o),
(302,266,cs),
(346,266,o),
(351,37,o),
(478,-143,cs),
(576,-281,o),
(754,-381,o),
(1021,-381,cs),
(1333,-381,o),
(1600,-127,o),
(1600,201,cs),
(1600,526,o),
(1335,789,o),
(1010,789,cs),
(807,789,o),
(631,661,o),
(463,481,c)
);
},
{
closed = 1;
nodes = (
(584,474,o),
(585,475,o),
(585,477,c),
(585,479,o),
(584,481,o),
(582,481,c),
(474,481,l),
(639,658,o),
(812,783,o),
(1010,783,cs),
(1331,783,o),
(1594,522,o),
(1594,201,cs),
(1594,-116,o),
(1340,-364,o),
(1051,-364,cs),
(882,-364,o),
(800,-243,o),
(683,-75,cs),
(562,98,o),
(452,274,o),
(304,274,c),
(303,274,o),
(301,274,o),
(299,274,c),
(328,305,l),
(400,385,o),
(510,471,o),
(582,474,c)
);
}
);
width = 603;
}
);
},
{
color = (153, 255, 154, 255);
glyphname = k.6;
layers = (
{
layerId = "4B09473C-DE20-458D-B091-F76EF41CC662";
shapes = (
{
closed = 1;
nodes = (
(473.607,474.005,o),
(475,475.407,o),
(475,477.5,c),
(475,477.5,l),
(475,479.6,o),
(473.6,481.,o),
(471.5,481,cs),
(258.5,481,ls),
(256.4,481.,o),
(255,479.6,o),
(255,477.5,c),
(255,477.5,l),
(255.,475.41,o),
(256.39,474.007,o),
(258.5,473.967,cs),
(340.463,472.393,o),
(320.841,414.731,o),
(238,324,cs),
(137,213,l),
(137,617,ls),
(137,978,o),
(468,1233,o),
(800,1233,cs),
(1241,1233,o),
(1598,872,o),
(1598,421,cs),
(1598,-24,o),
(1245,-382,o),
(810,-382,cs),
(617,-382,o),
(439,-308,o),
(305,-187,c),
(299,-192,l),
(433,-314,o),
(613,-389,o),
(810,-389,cs),
(1250,-389,o),
(1604,-29,o),
(1604,421,cs),
(1604,878,o),
(1245,1243,o),
(797,1243,cs),
(401,1243,o),
(70,923,o),
(70,517,cs),
(70,0,l),
(137,0,l),
(137,202,l),
(221,295,l),
(335,289,o),
(320,-13,o),
(439,-13,cs),
(480,-13,o),
(514,8,o),
(509,48,c),
(505,49,l),
(505,27,o),
(499,15,o),
(484,15,cs,{name = hr01;}),
(412,15,o),
(403,296,o),
(226,300,c),
(247,323,ls),
(356.191,443.011,o),
(401.515,473.03,o),
(471.5,473.977,cs)
);
}
);
width = 519;
},
{
layerId = "EECBB25E-CCC9-4EB7-9066-53ACD40459CA";
shapes = (
{
closed = 1;
nodes = (
(583.62,474.013,o),
(585,475.42,o),
(585,477.5,c),
(585,477.5,l),
(585,479.6,o),
(583.6,481.,o),
(581.5,481,cs),
(342.5,481,ls),
(340.4,481,o),
(339,479.6,o),
(339,477.5,c),
(339,477.5,l),
(339,475.452,o),
(340.351,474.039,o),
(342.496,473.845,cs),
(389.778,469.557,o),
(384.429,377.288,o),
(319,306,cs),
(262,243,l),
(262,617,ls),
(262,978,o),
(500,1233,o),
(829,1233,cs),
(1270,1233,o),
(1627,872,o),
(1627,421,cs),
(1627,-24,o),
(1274,-382,o),
(839,-382,cs),
(646,-382,o),
(468,-308,o),
(334,-187,c),
(328,-192,l),
(462,-314,o),
(642,-389,o),
(839,-389,cs),
(1279,-389,o),
(1633,-29,o),
(1633,421,cs),
(1633,878,o),
(1274,1243,o),
(826,1243,cs),
(357,1243,o),
(65,923,o),
(65,517,cs),
(65,0,l),
(262,0,l),
(262,233,l),
(315,291,l),
(314,230,o),
(305,-9,o),
(509,-9,cs),
(556,-9,o),
(612,-2,o),
(606,48,c),
(602,49,l),
(602,38,o),
(600,32,o),
(593,32,cs),
(546,32,o),
(575,298,o),
(325,302,c),
(328,305,l),
(399.828,384.699,o),
(509.413,471.176,o),
(581.501,473.932,cs)
);
}
);
width = 617;
}
);
},
{
color = (153, 255, 154, 255);
glyphname = k.44;
layers = (
{
layerId = "4B09473C-DE20-458D-B091-F76EF41CC662";
shapes = (
{
closed = 1;
nodes = (
(473.607,474.005,o),
(475,475.407,o),
(475,477.5,c),
(475,477.5,l),
(475,479.6,o),
(473.6,481.,o),
(471.5,481,cs),
(258.5,481,ls),
(256.4,481.,o),
(255,479.6,o),
(255,477.5,c),
(255,477.5,l),
(255.,475.41,o),
(256.39,474.007,o),
(258.5,473.967,cs),
(340.463,472.393,o),
(320.841,414.731,o),
(238,324,cs),
(137,213,l),
(137,617,ls),
(137,978,o),
(468,1233,o),
(800,1233,cs),
(1241,1233,o),
(1598,872,o),
(1598,421,cs),
(1598,-24,o),
(1245,-383,o),
(810,-383,cs),
(-141,-383,o),
(-301,934,o),
(-1243,934,cs),
(-1574,934,o),
(-1864,737,o),
(-2002,455,c),
(-1996,453,l),
(-1859,733,o),
(-1572,928,o),
(-1243,928,cs),
(-314,928,o),
(-140,-389,o),
(810,-389,cs),
(1250,-389,o),
(1604,-29,o),
(1604,421,cs),
(1604,878,o),
(1245,1243,o),
(797,1243,cs),
(401,1243,o),
(70,923,o),
(70,517,cs),
(70,0,l),
(137,0,l),
(137,202,l),
(221,295,l),
(335,289,o),
(320,-13,o),
(439,-13,cs),
(480,-13,o),
(514,8,o),
(509,48,c),
(505,49,l),
(505,27,o),
(499,15,o),
(484,15,cs,{name = hr01;}),
(412,15,o),
(403,296,o),
(226,300,c),
(247,323,ls),
(356.191,443.011,o),
(401.515,473.03,o),
(471.5,473.977,cs)
);
}
);
width = 519;
},
{
layerId = "EECBB25E-CCC9-4EB7-9066-53ACD40459CA";
shapes = (
{
closed = 1;
nodes = (
(583.62,474.013,o),
(585,475.42,o),
(585,477.5,c),
(585,477.5,l),
(585,479.6,o),
(583.6,481.,o),
(581.5,481,cs),
(342.5,481,ls),
(340.4,481,o),
(339,479.6,o),
(339,477.5,c),
(339,477.5,l),
(339,475.452,o),
(340.351,474.039,o),
(342.496,473.845,cs),
(389.778,469.557,o),
(384.429,377.288,o),
(319,306,cs),
(262,243,l),
(262,619,ls),
(262,980,o),
(506,1233,o),
(829,1233,cs),
(1270,1233,o),
(1627,872,o),
(1627,421,cs),
(1627,-35,o),
(1266,-383,o),
(826,-383,cs),
(-125,-383,o),
(-342,934,o),
(-1284,934,cs),
(-1615,934,o),
(-1905,737,o),
(-2043,455,c),
(-2037,453,l),
(-1900,733,o),
(-1613,928,o),
(-1284,928,cs),
(-355,928,o),
(-124,-389,o),
(826,-389,cs),
(1284,-389,o),
(1633,-19,o),
(1633,421,cs),
(1633,878,o),
(1274,1243,o),
(826,1243,cs),
(357,1243,o),
(65,923,o),
(65,517,cs),
(65,0,l),
(262,0,l),
(262,233,l),
(315,291,l),
(314,230,o),
(305,-9,o),
(509,-9,cs),
(556,-9,o),
(612,-2,o),
(606,48,c),
(602,49,l),
(602,38,o),
(600,32,o),
(593,32,cs),
(546,32,o),
(575,298,o),
(325,302,c),
(328,305,l),
(399.828,384.699,o),
(509.413,471.176,o),
(581.501,473.932,cs)
);
}
);
width = 617;
}
);
},
{
color = (153, 255, 154, 255);
glyphname = k.44.acc;
layers = (
{
layerId = "4B09473C-DE20-458D-B091-F76EF41CC662";
shapes = (
{
closed = 1;
nodes = (
(473.607,474.005,o),
(475,475.407,o),
(475,477.5,c),
(475,477.5,l),
(475,479.6,o),
(473.6,481.,o),
(471.5,481,cs),
(258.5,481,ls),
(256.4,481.,o),
(255,479.6,o),
(255,477.5,c),
(255,477.5,l),
(255.,475.41,o),
(256.39,474.007,o),
(258.5,473.967,cs),
(340.463,472.393,o),
(320.841,414.731,o),
(238,324,cs),
(137,213,l),
(137,617,ls),
(137,978,o),
(468,1233,o),
(800,1233,cs),
(1241,1233,o),
(1598,872,o),
(1598,421,cs),
(1598,-24,o),
(1245,-356,o),
(810,-356,cs),
(318,-356,o),
(43,-58,o),
(-216,251,cs),
(-495,586,o),
(-753,934,o),
(-1243,934,cs),
(-1574,934,o),
(-1864,737,o),
(-2002,455,c),
(-1996,453,l),
(-1859,733,o),
(-1572,928,o),
(-1243,928,cs),
(-776,928,o),
(-499,585,o),
(-219,245,cs),
(57,-92,o),
(338,-426,o),
(810,-426,cs),
(1250,-426,o),
(1604,-29,o),
(1604,421,cs),
(1604,878,o),
(1245,1243,o),
(797,1243,cs),
(401,1243,o),
(70,923,o),
(70,517,cs),
(70,0,l),
(137,0,l),
(137,202,l),
(221,295,l),
(335,289,o),
(320,-13,o),
(439,-13,cs),
(480,-13,o),
(514,8,o),
(509,48,c),
(505,49,l),
(505,27,o),
(499,15,o),
(484,15,cs,{name = hr01;}),
(412,15,o),
(403,296,o),
(226,300,c),
(247,323,ls),
(356.191,443.011,o),
(401.515,473.03,o),
(471.5,473.977,cs)
);
}
);
width = 519;
},
{
layerId = "EECBB25E-CCC9-4EB7-9066-53ACD40459CA";
shapes = (
{
closed = 1;
nodes = (
(583.62,474.013,o),
(585,475.42,o),
(585,477.5,c),
(585,477.5,l),
(585,479.6,o),
(583.6,481.,o),
(581.5,481,cs),
(342.5,481,ls),
(340.4,481,o),
(339,479.6,o),
(339,477.5,c),
(339,477.5,l),
(339,475.452,o),
(340.351,474.039,o),
(342.496,473.845,cs),
(389.778,469.557,o),
(384.429,377.288,o),
(319,306,cs),
(262,243,l),
(262,619,ls),
(262,972,o),
(505,1233,o),
(829,1233,cs),
(1270,1233,o),
(1627,872,o),
(1627,421,cs),
(1627,-35,o),
(1266,-328,o),
(826,-328,cs),
(294,-328,o),
(9,-57,o),
(-295,318,cs),
(-557,641,o),
(-846,934,o),
(-1284,934,cs),
(-1615,934,o),
(-1905,737,o),
(-2043,455,c),
(-2037,453,l),
(-1900,733,o),
(-1613,928,o),
(-1284,928,cs),
(-849,928,o),
(-562,643,o),
(-299,314,cs),
(27,-93,o),
(344,-488,o),
(826,-488,cs),
(1284,-488,o),
(1633,-19,o),
(1633,421,cs),
(1633,878,o),
(1274,1243,o),
(826,1243,cs),
(357,1243,o),
(65,923,o),
(65,517,cs),
(65,0,l),
(262,0,l),
(262,233,l),
(315,291,l),
(314,230,o),
(305,-9,o),
(509,-9,cs),
(556,-9,o),
(612,-2,o),
(606,48,c),
(602,49,l),
(602,38,o),
(600,32,o),
(593,32,cs),
(546,32,o),
(575,298,o),
(325,302,c),
(328,305,l),
(399.828,384.699,o),
(509.413,471.176,o),
(581.501,473.932,cs)
);
}
);
width = 617;
}
);
},
{
color = (153, 255, 154, 255);
glyphname = k.7.acc;
layers = (
{
guides = (
{
position = "{0, 474}";
}
);
hints = (
{
horizontal = 1;
place = (-6,38);
type = Stem;
},
{
horizontal = 1;
place = (-6,244);
type = Stem;
},
{
horizontal = 1;
place = (224,111);
type = Stem;
},
{
horizontal = 1;
place = (255,80);
type = Stem;
},
{
horizontal = 1;
place = (438,29);
type = Stem;
},
{
horizontal = 1;
place = (736,-20);
target = down;
type = TopGhost;
},
{
place = (82,207);
type = Stem;
},
{
place = (382,198);
type = Stem;
}
);
layerId = "4B09473C-DE20-458D-B091-F76EF41CC662";
shapes = (
{
closed = 1;
nodes = (
(252.5,481,ls),
(250.4,481.,o),
(249,479.6,o),
(249,477.5,c),
(249,477.5,l),
(249,475.41,o),
(250.39,474.007,o),
(252.5,473.967,cs),
(334.463,472.393,o),
(314.841,414.731,o),
(232,324,cs),
(131,213,l),
(131,721,l),
(-13,689,l),
(-13,682,l),
(43,682,o),
(64,686,o),
(64,634,cs),
(64,142,l),
(-263,-218,o),
(-637,-552,o),
(-1113,-552,cs),
(-1589,-552,o),
(-1976,-229,o),
(-1976,247,cs),
(-1976,723,o),
(-1589,1110,o),
(-1113,1110,cs),
(-902,1110,o),
(-708,1034,o),
(-558,907,c),
(-553,911,l),
(-704,1039,o),
(-900,1116,o),
(-1113,1116,cs),
(-1593,1116,o),
(-1982,727,o),
(-1982,247,cs),
(-1982,-233,o),
(-1593,-622,o),
(-1113,-622,cs),
(-638,-622,o),
(-264,-230,o),
(64,131,c),
(64,0,l),
(131,0,l),
(131,202,l),
(142,214,o),
(188,264,o),
(199,276,cs),
(209,287,o),
(216,292,o),
(226,292,cs),
(302,292,o),
(357,70,o),
(497,-116,cs),
(599,-253,o),
(746,-371,o),
(981,-371,cs),
(1304,-371,o),
(1600,-143,o),
(1600,201,cs),
(1600,526,o),
(1335,789,o),
(1010,789,cs),
(775,789,o),
(572,661,o),
(379,481,c)
);
},
{
closed = 1;
nodes = (
(467.608,474.005,o),
(469,475.408,o),
(469,477.5,c),
(469,477.5,l),
(469,479.6,o),
(467.6,481.,o),
(465.5,481,cs),
(390,481,l),
(581,657,o),
(780,783,o),
(1010,783,cs),
(1331,783,o),
(1594,522,o),
(1594,201,cs),
(1594,-135,o),
(1304,-361,o),
(998,-361,cs),
(819,-361,o),
(699,-271,o),
(607,-158,cs),
(451,37,o),
(376,300,o),
(228,300,cs),
(226,300,o),
(222,300,o),
(219,299,c),
(241,323,ls),
(352.157,441.043,o),
(395.579,472.965,o),
(465.5,473.975,cs)
);
}
);
width = 503;
},
{
guides = (
{
position = "{0, 474}";
}
);
hints = (
{
horizontal = 1;
place = (-6,38);
type = Stem;
},
{
horizontal = 1;
place = (-6,244);
type = Stem;
},
{
horizontal = 1;
place = (224,111);
type = Stem;
},
{
horizontal = 1;
place = (255,80);
type = Stem;
},
{
horizontal = 1;
place = (438,29);
type = Stem;
},
{
horizontal = 1;
place = (736,-20);
target = down;
type = TopGhost;
},
{
place = (88,207);
type = Stem;
},
{
place = (388,198);
type = Stem;
}
);
layerId = "EECBB25E-CCC9-4EB7-9066-53ACD40459CA";
shapes = (
{
closed = 1;
nodes = (
(342.5,481,ls),
(340.4,481.,o),
(339,479.6,o),
(339,477.5,c),
(339,477.5,l),
(339,475.452,o),
(340.351,474.039,o),
(342.496,473.845,cs),
(389.778,469.557,o),
(384.429,377.288,o),
(319,306,cs),
(262,243,l),
(262,721,l),
(-12,689,l),
(-12,682,l),
(44,682,o),
(65,686,o),
(65,634,cs),
(65,53,l),
(-242,-262,o),
(-592,-492,o),
(-1028,-492,cs),
(-1504,-492,o),
(-1891,-229,o),
(-1891,247,cs),
(-1891,723,o),
(-1504,1110,o),
(-1028,1110,cs),
(-817,1110,o),
(-623,1034,o),
(-473,907,c),
(-468,911,l),
(-619,1039,o),
(-815,1116,o),
(-1028,1116,cs),
(-1508,1116,o),
(-1897,727,o),
(-1897,247,cs),
(-1897,-233,o),
(-1508,-652,o),
(-1028,-652,cs),
(-593,-652,o),
(-243,-299,o),
(65,39,c),
(65,0,l),
(262,0,l),
(262,233,l),
(267,238,o),
(284,257,o),
(289,262,c),
(293,265,o),
(297,266,o),
(302,266,cs),
(346,266,o),
(351,37,o),
(478,-143,cs),
(576,-281,o),
(754,-381,o),
(1021,-381,cs),
(1333,-381,o),
(1600,-127,o),
(1600,201,cs),
(1600,526,o),
(1335,789,o),
(1010,789,cs),
(807,789,o),
(631,661,o),
(463,481,c)
);
},
{
closed = 1;
nodes = (
(583.62,474.013,o),
(585,475.42,o),
(585,477.5,c),
(585,477.5,l),
(585,479.6,o),
(583.6,481.,o),
(581.5,481,cs),
(474,481,l),
(639,658,o),
(812,783,o),
(1010,783,cs),
(1331,783,o),
(1594,522,o),
(1594,201,cs),
(1594,-116,o),
(1340,-364,o),
(1051,-364,cs),
(882,-364,o),
(800,-243,o),
(683,-75,cs),
(562,98,o),
(452,274,o),
(304,274,cs),
(303,274,o),
(301,274,o),
(299,274,c),
(328,305,l),
(399.828,384.699,o),
(509.413,471.176,o),
(581.501,473.932,cs)
);
}
);
width = 603;
}
);
},
{
color = (153, 255, 154, 255);
glyphname = k.9;
layers = (
{
layerId = "4B09473C-DE20-458D-B091-F76EF41CC662";
shapes = (
{
closed = 1;
nodes = (
(473.607,474.005,o),
(475,475.407,o),
(475,477.5,c),
(475,477.5,l),
(475,479.6,o),
(473.6,481.,o),
(471.5,481,cs),
(258.5,481,ls),
(256.4,481.,o),
(255,479.6,o),
(255,477.5,c),
(255,477.5,l),
(255.,475.41,o),
(256.39,474.007,o),
(258.5,473.967,cs),
(340.463,472.393,o),
(320.841,414.731,o),
(238,324,cs),
(137,213,l),
(137,721,l),
(-7,689,l),
(-7,682,l),
(49,682,o),
(70,686,o),
(70,634,cs),
(70,0,l),
(137,0,l),
(137,202,l),
(221,295,l),
(228,294,o),
(235,292,o),
(241,289,c),
(336,238,o),
(376,-125,o),
(703,-125,cs),
(892,-125,o),
(989,5,o),
(989,139,cs),
(989,193,o),
(959,242,o),
(906,242,cs),
(868,242,o),
(842,216,o),
(842,185,cs),
(842,155,o),
(866,128,o),
(903,128,cs),
(932,128,o),
(956,145,o),
(965,166,c),
(970,150,o),
(972,136,o),
(972,118,cs),
(972,-5,o),
(873,-103,o),
(731,-103,cs),
(487,-103,o),
(389,294,o),
(226,300,c),
(247,323,ls),
(356.191,443.011,o),
(401.515,473.03,o),
(471.5,473.977,cs)
);
}
);
width = 1028;
},
{
layerId = "EECBB25E-CCC9-4EB7-9066-53ACD40459CA";
shapes = (
{
closed = 1;
nodes = (
(583.62,474.013,o),
(585,475.42,o),
(585,477.5,c),
(585,477.5,l),
(585,479.6,o),
(583.6,481.,o),
(581.5,481,cs),
(342.5,481,ls),
(340.4,481,o),
(339,479.6,o),
(339,477.5,c),
(339,477.5,l),
(339,475.452,o),
(340.351,474.039,o),
(342.496,473.845,cs),
(389.778,469.557,o),
(384.429,377.288,o),
(319,306,cs),
(262,243,l),
(262,721,l),
(-12,689,l),
(-12,682,l),
(44,682,o),
(65,686,o),
(65,634,cs),
(65,0,l),
(262,0,l),
(262,233,l),
(314,290,l),
(313,281,o),
(312,271,o),
(312,260,cs),
(312,126,o),
(409,-152,o),
(721,-152,cs),
(940,-152,o),
(1052,-14,o),
(1052,123,cs),
(1052,216,o),
(1000,301,o),
(910,301,cs),
(845,301,o),
(801,256,o),
(801,203,cs),
(801,152,o),
(842,105,o),
(905,105,cs),
(954,105,o),
(995,134,o),
(1011,171,c),
(1019,144,o),
(1023,120,o),
(1023,94,cs),
(1023,-31,o),
(931,-121,o),
(798,-121,cs),
(510,-121,o),
(656,301,o),
(324,301,c),
(328,305,l),
(399.828,384.699,o),
(509.413,471.176,o),
(581.501,473.932,cs)
);
}
);
width = 1100;
}
);
},
{
color = (255, 153, 153, 255);
glyphname = l;
layers = (
{
hints = (
{
horizontal = 1;
place = (-6,38);
type = Stem;
},
{
horizontal = 1;
place = (736,-20);
target = down;
type = TopGhost;
},
{
place = (2,248);
type = Stem;
}
);
layerId = "4B09473C-DE20-458D-B091-F76EF41CC662";
shapes = (
{
closed = 1;
nodes = (
(237,29,l),
(233,23,o),
(219,15,o),
(195,15,cs),
(148,15,o),
(132,45,o),
(132,122,cs),
(132,721,l),
(-12,689,l),
(-12,684,l),
(25,684,o),
(65,686,o),
(65,634,cs),
(65,118,ls),
(65,34,o),
(94,-9,o),
(159,-9,cs),
(198,-9,o),
(230,7,o),
(241,24,c)
);
}
);
width = 231;
},
{
hints = (
{
horizontal = 1;
place = (-6,38);
type = Stem;
},
{
horizontal = 1;
place = (736,-20);
target = down;
type = TopGhost;
},
{
place = (57,198);
type = Stem;
}
);
layerId = "EECBB25E-CCC9-4EB7-9066-53ACD40459CA";
shapes = (
{
closed = 1;
nodes = (
(305,37,l),
(302,32,o),
(292,24,o),
(280,24,cs),
(256,24,o),
(250,52,o),
(250,122,cs),
(250,721,l),
(-20,689,l),
(-20,682,l),
(36,682,o),
(57,686,o),
(57,634,cs),
(57,118,ls),
(57,34,o),
(102,-9,o),
(192,-9,cs),
(250,-9,o),
(295,9,o),
(311,30,c)
);
}
);
width = 315;
}
);
unicode = 108;
},
{
color = (153, 255, 154, 255);
glyphname = l.5;
layers = (
{
background = {
shapes = (
{
closed = 1;
nodes = (
(52,459,l),
(52,39,ls),
(52,-197,o),
(181,-444,o),
(504,-444,cs),
(682,-444,o),
(764,-303,o),
(764,-217,cs),
(764,-147,o),
(723,-79,o),
(676,-71,c),
(675,-76,l),
(721,-85,o),
(759,-149,o),
(759,-217,cs),
(759,-301,o),
(675,-435,o),
(505,-435,cs),
(250,-435,o),
(245,-192,o),
(245,39,cs),
(245,543,l)
);
}
);
};
layerId = "4B09473C-DE20-458D-B091-F76EF41CC662";
shapes = (
{
closed = 1;
nodes = (
(501,-134,l),
(478,-191,o),
(403,-221,o),
(339,-221,cs),
(230,-221,o),
(137,-143,o),
(137,31,cs),
(137,721,l),
(-7,689,l),
(-7,684,l),
(30,684,o),
(70,686,o),
(70,634,cs),
(70,69,ls),
(70,-108,o),
(163,-230,o),
(323,-230,cs),
(399,-230,o),
(481,-202,o),
(506,-139,c)
);
}
);
width = 225;
},
{
layerId = "EECBB25E-CCC9-4EB7-9066-53ACD40459CA";
shapes = (
{
closed = 1;
nodes = (
(620,-134,l),
(597,-192,o),
(521,-222,o),
(456,-222,cs),
(348,-222,o),
(250,-145,o),
(250,31,cs),
(250,721,l),
(-20,689,l),
(-20,682,l),
(36,682,o),
(57,686,o),
(57,634,cs),
(57,129,ls),
(57,-52,o),
(99,-239,o),
(413,-239,cs),
(501,-239,o),
(596,-208,o),
(625,-139,c)
);
}
);
width = 312;
}
);
},
{
color = (153, 255, 154, 255);
glyphname = l.4;
layers = (
{
background = {
shapes = (
{
closed = 1;
nodes = (
(247,138,l),
(247,721,l),
(-23,689,l),
(-23,682,l),
(33,682,o),
(54,686,o),
(54,634,cs),
(54,202,l)
);
},
{
closed = 1;
nodes = (
(54,290,l),
(54,173,l),
(56,-192,o),
(373,-413,o),
(753,-413,cs),
(1096,-413,o),
(1373,-136,o),
(1373,207,cs),
(1373,544,o),
(1100,817,o),
(763,817,cs),
(605,817,o),
(461,757,o),
(353,659,c),
(359,655,l),
(466,752,o),
(608,811,o),
(763,811,cs),
(1096,811,o),
(1367,540,o),
(1367,207,cs),
(1367,-126,o),
(1096,-397,o),
(763,-397,cs),
(492,-397,o),
(249,-231,o),
(247,138,c),
(205,258,l)
);
}
);
};
layerId = "4B09473C-DE20-458D-B091-F76EF41CC662";
shapes = (
{
closed = 1;
nodes = (
(-7,684,l),
(30,684,o),
(70,686,o),
(70,634,cs),
(70,137,ls),
(70,-231,o),
(333,-414,o),
(655,-414,cs),
(1008,-414,o),
(1316,-161,o),
(1316,207,cs),
(1316,544,o),
(1043,817,o),
(706,817,cs),
(548,817,o),
(404,757,o),
(296,659,c),
(302,655,l),
(409,752,o),
(551,811,o),
(706,811,cs),
(1039,811,o),
(1310,540,o),
(1310,207,cs),
(1310,-148,o),
(1009,-403,o),
(666,-403,cs),
(385,-403,o),
(137,-232,o),
(137,109,cs),
(137,721,l),
(-7,689,l)
);
}
);
width = 231;
},
{
layerId = "EECBB25E-CCC9-4EB7-9066-53ACD40459CA";
shapes = (
{
closed = 1;
nodes = (
(-23,682,l),
(33,682,o),
(54,686,o),
(54,634,cs),
(54,173,ls),
(54,-192,o),
(373,-413,o),
(753,-413,cs),
(1096,-413,o),
(1373,-136,o),
(1373,207,cs),
(1373,544,o),
(1100,817,o),
(763,817,cs),
(605,817,o),
(461,757,o),
(353,659,c),
(359,655,l),
(466,752,o),
(608,811,o),
(763,811,cs),
(1096,811,o),
(1367,540,o),
(1367,207,cs),
(1367,-126,o),
(1096,-397,o),
(763,-397,cs),
(492,-397,o),
(247,-231,o),
(247,138,cs),
(247,721,l),
(-23,689,l)
);
}
);
width = 312;
}
);
},
{
color = (153, 255, 154, 255);
glyphname = l.6;
layers = (
{
layerId = "4B09473C-DE20-458D-B091-F76EF41CC662";
shapes = (
{
closed = 1;
nodes = (
(299,-192,l),
(433,-314,o),
(613,-389,o),
(810,-389,cs),
(1250,-389,o),
(1604,-29,o),
(1604,421,cs),
(1604,878,o),
(1245,1243,o),
(797,1243,cs),
(401,1243,o),
(70,923,o),
(70,517,cs),
(70,118,ls),
(70,34,o),
(99,-9,o),
(164,-9,cs),
(203,-9,o),
(235,7,o),
(246,24,c),
(242,29,l),
(238,23,o),
(224,15,o),
(200,15,cs),
(153,15,o),
(137,45,o),
(137,122,cs),
(137,617,ls),
(137,978,o),
(468,1233,o),
(800,1233,cs),
(1241,1233,o),
(1598,872,o),
(1598,421,cs),
(1598,-24,o),
(1245,-382,o),
(810,-382,cs),
(617,-382,o),
(439,-308,o),
(305,-187,c)
);
}
);
width = 236;
},
{
layerId = "EECBB25E-CCC9-4EB7-9066-53ACD40459CA";
shapes = (
{
closed = 1;
nodes = (
(323,-192,l),
(457,-314,o),
(637,-389,o),
(834,-389,cs),
(1274,-389,o),
(1628,-29,o),
(1628,421,cs),
(1628,878,o),
(1269,1243,o),
(821,1243,cs),
(352,1243,o),
(57,923,o),
(57,517,cs),
(57,118,ls),
(57,34,o),
(101,-9,o),
(193,-9,cs),
(249,-9,o),
(295,9,o),
(311,30,c),
(305,37,l),
(302,32,o),
(292,24,o),
(280,24,cs),
(256,24,o),
(250,52,o),
(250,122,cs),
(250,617,ls),
(250,978,o),
(495,1233,o),
(824,1233,cs),
(1265,1233,o),
(1622,872,o),
(1622,421,cs),
(1622,-24,o),
(1269,-382,o),
(834,-382,cs),
(641,-382,o),
(463,-308,o),
(329,-187,c)
);
}
);
width = 315;
}
);
},
{
color = (153, 255, 154, 255);
glyphname = l.6.more;
layers = (
{
layerId = "4B09473C-DE20-458D-B091-F76EF41CC662";
shapes = (
{
closed = 1;
nodes = (
(-685,-320,l),
(-583,-210,o),
(-433,-146,o),
(-265,-146,cs),
(114,-146,o),
(380,-388,o),
(810,-388,cs),
(1250,-388,o),
(1604,-29,o),
(1604,421,cs),
(1604,878,o),
(1245,1243,o),
(797,1243,cs),
(401,1243,o),
(70,923,o),
(70,517,cs),
(70,118,ls),
(70,34,o),
(99,-9,o),
(164,-9,cs),
(203,-9,o),
(235,7,o),
(246,24,c),
(242,29,l),
(238,23,o),
(224,15,o),
(200,15,cs),
(153,15,o),
(137,45,o),
(137,122,cs),
(137,617,ls),
(137,978,o),
(468,1233,o),
(800,1233,cs),
(1241,1233,o),
(1598,872,o),
(1598,421,cs),
(1598,-24,o),
(1245,-382,o),
(810,-382,cs),
(388,-382,o),
(117,-140,o),
(-265,-140,cs),
(-436,-140,o),
(-590,-205,o),
(-693,-318,c)
);
}
);
width = 236;
},
{
layerId = "EECBB25E-CCC9-4EB7-9066-53ACD40459CA";
shapes = (
{
closed = 1;
nodes = (
(-662,-320,l),
(-560,-210,o),
(-410,-146,o),
(-242,-146,cs),
(137,-146,o),
(403,-388,o),
(833,-388,cs),
(1271,-388,o),
(1627,-28,o),
(1627,421,cs),
(1627,878,o),
(1268,1243,o),
(820,1243,cs),
(348,1243,o),
(52,923,o),
(52,517,cs),
(52,118,ls),
(52,34,o),
(96,-9,o),
(188,-9,cs),
(244,-9,o),
(290,9,o),
(306,30,c),
(300,37,l),
(297,32,o),
(287,24,o),
(275,24,cs),
(251,24,o),
(245,52,o),
(245,122,cs),
(245,617,ls),
(245,978,o),
(494,1233,o),
(823,1233,cs),
(1264,1233,o),
(1621,872,o),
(1621,421,cs),
(1621,-24,o),
(1268,-382,o),
(833,-382,cs),
(411,-382,o),
(140,-140,o),
(-242,-140,cs),
(-413,-140,o),
(-567,-205,o),
(-670,-318,c)
);
}
);
width = 310;
}
);
},
{
color = (153, 255, 154, 255);
glyphname = l.6.more.acc;
layers = (
{
layerId = "4B09473C-DE20-458D-B091-F76EF41CC662";
shapes = (
{
closed = 1;
nodes = (
(-685,-320,l),
(-583,-210,o),
(-433,-146,o),
(-265,-146,cs),
(114,-146,o),
(380,-418,o),
(810,-418,cs),
(1250,-418,o),
(1604,-29,o),
(1604,421,cs),
(1604,878,o),
(1245,1243,o),
(797,1243,cs),
(401,1243,o),
(70,923,o),
(70,517,cs),
(70,118,ls),
(70,34,o),
(99,-9,o),
(164,-9,cs),
(203,-9,o),
(235,7,o),
(246,24,c),
(242,29,l),
(238,23,o),
(224,15,o),
(200,15,cs),
(153,15,o),
(137,45,o),
(137,122,cs),
(137,617,ls),
(137,978,o),
(468,1233,o),
(800,1233,cs),
(1241,1233,o),
(1598,872,o),
(1598,421,cs),
(1598,-24,o),
(1245,-348,o),
(810,-348,cs),
(388,-348,o),
(117,-140,o),
(-265,-140,cs),
(-436,-140,o),
(-590,-205,o),
(-693,-318,c)
);
}
);
width = 236;
},
{
layerId = "EECBB25E-CCC9-4EB7-9066-53ACD40459CA";
shapes = (
{
closed = 1;
nodes = (
(-662,-320,l),
(-560,-210,o),
(-410,-146,o),
(-242,-146,cs),
(137,-146,o),
(403,-459,o),
(833,-459,cs),
(1271,-459,o),
(1627,-28,o),
(1627,421,cs),
(1627,878,o),
(1268,1243,o),
(820,1243,cs),
(348,1243,o),
(52,923,o),
(52,517,cs),
(52,118,ls),
(52,34,o),
(96,-9,o),
(188,-9,cs),
(244,-9,o),
(290,9,o),
(306,30,c),
(300,37,l),
(297,32,o),
(287,24,o),
(275,24,cs),
(251,24,o),
(245,52,o),
(245,122,cs),
(245,617,ls),
(245,978,o),
(494,1233,o),
(823,1233,cs),
(1264,1233,o),
(1621,872,o),
(1621,421,cs),
(1621,-24,o),
(1268,-299,o),
(833,-299,cs),
(411,-299,o),
(140,-140,o),
(-242,-140,cs),
(-413,-140,o),
(-567,-205,o),
(-670,-318,c)
);
}
);
width = 310;
}
);
},
{
color = (153, 255, 154, 255);
glyphname = l.9;
layers = (
{
layerId = "4B09473C-DE20-458D-B091-F76EF41CC662";
shapes = (
{
closed = 1;
nodes = (
(-10,684,l),
(27,684,o),
(67,686,o),
(67,634,cs),
(67,187,ls),
(67,10,o),
(161,-125,o),
(353,-125,cs),
(542,-125,o),
(639,5,o),
(639,139,cs),
(639,193,o),
(609,242,o),
(556,242,cs),
(518,242,o),
(492,216,o),
(492,185,cs),
(492,155,o),
(516,128,o),
(553,128,cs),
(582,128,o),
(606,145,o),
(615,166,c),
(620,150,o),
(622,136,o),
(622,118,cs),
(622,-5,o),
(523,-103,o),
(381,-103,cs),
(258,-103,o),
(137,-30,o),
(137,187,cs),
(137,721,l),
(-10,689,l)
);
}
);
width = 666;
},
{
layerId = "EECBB25E-CCC9-4EB7-9066-53ACD40459CA";
shapes = (
{
closed = 1;
nodes = (
(-20,682,l),
(36,682,o),
(57,686,o),
(57,634,cs),
(57,178,ls),
(57,-25,o),
(196,-152,o),
(394,-152,cs),
(599,-152,o),
(716,-14,o),
(716,124,cs),
(716,216,o),
(664,301,o),
(574,301,cs),
(509,301,o),
(465,256,o),
(465,203,cs),
(465,152,o),
(506,105,o),
(569,105,cs),
(618,105,o),
(659,134,o),
(675,171,c),
(683,144,o),
(687,120,o),
(687,94,cs),
(687,-31,o),
(593,-121,o),
(466,-121,cs),
(354,-121,o),
(250,-56,o),
(250,160,cs),
(250,721,l),
(-20,689,l)
);
}
);
width = 754;
}
);
},
{
color = (154, 153, 255, 255);
glyphname = m;
layers = (
{
hints = (
{
horizontal = 1;
place = (-6,38);
type = Stem;
},
{
horizontal = 1;
place = (446,21);
type = Stem;
},
{
place = (84,197);
type = Stem;
},
{
place = (403,198);
type = Stem;
},
{
place = (724,198);
type = Stem;
}
);
layerId = "4B09473C-DE20-458D-B091-F76EF41CC662";
rightMetricsKey = n;
shapes = (
{
closed = 1;
nodes = (
(77,0,l),
(145,0,l),
(145,278,ls),
(145,383,o),
(203,470,o),
(293,470,cs),
(353,470,o),
(382,422,o),
(382,345,cs),
(382,0,l),
(450,0,l),
(450,278,ls),
(450,354,o),
(493,470,o),
(595,470,cs),
(660,470,o),
(687,422,o),
(687,345,cs),
(687,101,ls),
(687,26,o),
(719,-9,o),
(772,-9,cs),
(814,-9,o),
(835,12,o),
(846,35,c),
(841,42,l),
(832,24,o),
(821,15,o),
(803,15,cs),
(767,15,o),
(757,50,o),
(757,106,cs),
(757,330,ls),
(757,431,o),
(717,500,o),
(627,500,cs),
(547,500,o),
(478,433,o),
(450,351,c),
(445,440,o),
(410,500,o),
(331,500,cs),
(244,500,o),
(179,447,o),
(146,351,cs),
(133,313,o),
(142,369,o),
(142,380,cs),
(142,500,l),
(101,487,o),
(56,481,o),
(0,481,c),
(0,473,l),
(56,473,o),
(77,468,o),
(77,416,cs)
);
}
);
width = 838;
},
{
hints = (
{
horizontal = 1;
place = (-6,38);
type = Stem;
},
{
horizontal = 1;
place = (446,21);
type = Stem;
},
{
place = (84,197);
type = Stem;
},
{
place = (403,198);
type = Stem;
},
{
place = (724,198);
type = Stem;
}
);
layerId = "EECBB25E-CCC9-4EB7-9066-53ACD40459CA";
shapes = (
{
closed = 1;
nodes = (
(67,0,l),
(264,0,l),
(264,278,ls),
(264,374,o),
(295,445,o),
(342,445,cs),
(374,445,o),
(384,421,o),
(384,347,cs),
(384,0,l),
(585,0,l),
(585,278,ls),
(585,374,o),
(616,445,o),
(663,445,cs),
(696,445,o),
(705,419,o),
(705,347,cs),
(705,184,ls),
(705,47,o),
(753,-9,o),
(848,-9,cs),
(909,-9,o),
(937,14,o),
(949,47,c),
(944,54,l),
(939,37,o),
(930,32,o),
(923,32,cs),
(909,32,o),
(906,60,o),
(906,106,cs),
(906,295,l),
(907,420,o),
(877,500,o),
(750,500,cs),
(621,500,o),
(591,385,o),
(583,353,c),
(573,444,o),
(535,500,o),
(429,500,cs),
(297,500,o),
(269,379,o),
(261,351,cs),
(257,339,o),
(253,344,o),
(253,351,cs),
(253,500,l),
(178,487,o),
(94,481,o),
(-10,481,c),
(-10,473,l),
(46,473,o),
(67,468,o),
(67,416,cs)
);
}
);
width = 966;
}
);
unicode = 109;
},
{
color = (153, 255, 154, 255);
glyphname = m.5;
layers = (
{
layerId = "4B09473C-DE20-458D-B091-F76EF41CC662";
shapes = (
{
closed = 1;
nodes = (
(77,0,l),
(145,0,l),
(145,278,ls),
(145,383,o),
(203,470,o),
(293,470,cs),
(353,470,o),
(382,422,o),
(382,345,cs),
(382,0,l),
(450,0,l),
(450,278,ls),
(450,354,o),
(489,470,o),
(595,470,cs),
(660,470,o),
(687,422,o),
(687,345,cs),
(687,69,ls),
(687,-108,o),
(780,-230,o),
(940,-230,cs),
(1016,-230,o),
(1098,-202,o),
(1123,-139,c),
(1118,-134,l),
(1095,-191,o),
(1020,-221,o),
(956,-221,cs),
(847,-221,o),
(757,-144,o),
(757,31,cs),
(757,330,ls),
(757,431,o),
(717,500,o),
(627,500,cs),
(541,500,o),
(478,438,o),
(449,351,c),
(445,440,o),
(410,500,o),
(331,500,cs),
(244,500,o),
(179,447,o),
(146,351,cs),
(145,349,o),
(144,345,o),
(142,340,c),
(142,500,l),
(101,487,o),
(56,481,o),
(0,481,c),
(0,473,l),
(56,473,o),
(77,468,o),
(77,416,cs)
);
}
);
width = 814;
},
{
layerId = "EECBB25E-CCC9-4EB7-9066-53ACD40459CA";
shapes = (
{
closed = 1;
nodes = (
(67,0,l),
(264,0,l),
(264,278,ls),
(264,374,o),
(300,453,o),
(347,453,cs),
(379,453,o),
(384,421,o),
(384,329,cs),
(384,0,l),
(585,0,l),
(585,278,ls),
(585,374,o),
(621,453,o),
(668,453,cs),
(700,453,o),
(705,421,o),
(705,329,cs),
(705,129,ls),
(705,-52,o),
(747,-239,o),
(1061,-239,cs),
(1149,-239,o),
(1244,-208,o),
(1273,-139,c),
(1268,-134,l),
(1245,-192,o),
(1169,-222,o),
(1104,-222,cs),
(996,-222,o),
(906,-145,o),
(906,31,cs),
(906,295,ls),
(906,420,o),
(877,500,o),
(750,500,cs),
(621,500,o),
(591,385,o),
(583,353,c),
(573,444,o),
(535,500,o),
(429,500,cs),
(297,500,o),
(269,379,o),
(261,351,cs),
(257,339,o),
(253,344,o),
(253,351,cs),
(253,500,l),
(178,487,o),
(94,481,o),
(-10,481,c),
(-10,473,l),
(46,473,o),
(67,468,o),
(67,416,cs)
);
}
);
width = 966;
}
);
},
{
color = (153, 255, 154, 255);
glyphname = m.4;
layers = (
{
layerId = "4B09473C-DE20-458D-B091-F76EF41CC662";
rightMetricsKey = n.4;
shapes = (
{
closed = 1;
nodes = (
(77,0,l),
(145,0,l),
(145,278,ls),
(145,383,o),
(203,470,o),
(293,470,cs),
(353,470,o),
(382,422,o),
(382,345,cs),
(382,0,l),
(450,0,l),
(450,308,l),
(460,381,o),
(504,470,o),
(593,470,cs),
(658,470,o),
(685,422,o),
(685,345,cs),
(685,173,ls),
(685,-192,o),
(949,-413,o),
(1263,-413,cs),
(1606,-413,o),
(1883,-136,o),
(1883,207,cs),
(1883,544,o),
(1610,817,o),
(1273,817,cs),
(1115,817,o),
(971,757,o),
(863,659,c),
(869,655,l),
(976,752,o),
(1118,811,o),
(1273,811,cs),
(1606,811,o),
(1877,540,o),
(1877,207,cs),
(1877,-126,o),
(1606,-397,o),
(1273,-397,cs),
(1002,-397,o),
(755,-231,o),
(755,138,cs),
(755,330,ls),
(755,431,o),
(715,500,o),
(625,500,cs),
(547,500,o),
(479,440,o),
(449,356,c),
(444,443,o),
(409,500,o),
(331,500,cs),
(244,500,o),
(179,447,o),
(146,351,cs),
(133,313,o),
(142,352,o),
(142,363,cs),
(142,500,l),
(101,487,o),
(56,481,o),
(0,481,c),
(0,473,l),
(56,473,o),
(77,468,o),
(77,416,cs)
);
}
);
width = 820;
},
{
layerId = "EECBB25E-CCC9-4EB7-9066-53ACD40459CA";
shapes = (
{
closed = 1;
nodes = (
(67,0,l),
(264,0,l),
(264,278,ls),
(264,374,o),
(300,453,o),
(347,453,cs),
(379,453,o),
(384,421,o),
(384,329,cs),
(384,0,l),
(585,0,l),
(585,278,ls),
(585,374,o),
(621,453,o),
(668,453,cs),
(700,453,o),
(705,424,o),
(705,345,cs),
(705,173,l),
(707,-192,o),
(1029,-413,o),
(1415,-413,cs),
(1758,-413,o),
(2035,-136,o),
(2035,207,cs),
(2035,544,o),
(1762,817,o),
(1425,817,cs),
(1267,817,o),
(1123,757,o),
(1015,659,c),
(1021,655,l),
(1128,752,o),
(1270,811,o),
(1425,811,cs),
(1758,811,o),
(2029,540,o),
(2029,207,cs),
(2029,-126,o),
(1758,-397,o),
(1425,-397,cs),
(1154,-397,o),
(907,-231,o),
(907,138,cs),
(907,295,ls),
(907,420,o),
(877,500,o),
(750,500,cs),
(621,500,o),
(591,385,o),
(583,353,c),
(573,444,o),
(535,500,o),
(429,500,cs),
(297,500,o),
(269,379,o),
(261,351,cs),
(257,339,o),
(253,344,o),
(253,351,cs),
(253,500,l),
(178,487,o),
(94,481,o),
(-10,481,c),
(-10,473,l),
(46,473,o),
(67,468,o),
(67,416,cs)
);
}
);
width = 966;
}
);
},
{
color = (153, 255, 154, 255);
glyphname = m.7;
layers = (
{
layerId = "4B09473C-DE20-458D-B091-F76EF41CC662";
shapes = (
{
closed = 1;
nodes = (
(77,0,l),
(145,0,l),
(145,278,ls),
(145,383,o),
(203,470,o),
(293,470,cs),
(353,470,o),
(382,422,o),
(382,345,cs),
(382,0,l),
(450,0,l),
(450,278,ls),
(450,354,o),
(493,470,o),
(595,470,cs),
(660,470,o),
(687,422,o),
(687,345,cs),
(687,134,ls),
(687,-208,o),
(1005,-408,o),
(1326,-408,cs),
(1676,-408,o),
(1971,-173,o),
(1971,201,cs),
(1971,526,o),
(1708,789,o),
(1383,789,cs),
(1133,789,o),
(913,644,o),
(709,448,c),
(714,441,l),
(918,637,o),
(1136,783,o),
(1383,783,cs),
(1704,783,o),
(1965,522,o),
(1965,201,cs),
(1965,-143,o),
(1702,-400,o),
(1335,-400,cs),
(1119,-400,o),
(757,-242,o),
(757,134,cs),
(757,330,ls),
(757,416,o),
(726,500,o),
(627,500,cs),
(547,500,o),
(478,438,o),
(449,351,c),
(445,440,o),
(410,500,o),
(331,500,cs),
(244,500,o),
(179,447,o),
(146,351,cs),
(144,346,o),
(143,341,o),
(142,338,c),
(142,500,l),
(101,487,o),
(56,481,o),
(0,481,c),
(0,473,l),
(56,473,o),
(77,468,o),
(77,416,cs)
);
},
{
closed = 1;
nodes = (
(392,111,l),
(68,-248,o),
(-274,-616,o),
(-746,-616,cs),
(-1222,-616,o),
(-1609,-229,o),
(-1609,247,cs),
(-1609,723,o),
(-1222,1110,o),
(-746,1110,cs),
(-535,1110,o),
(-341,1034,o),
(-191,907,c),
(-186,911,l),
(-337,1039,o),
(-533,1116,o),
(-746,1116,cs),
(-1226,1116,o),
(-1615,727,o),
(-1615,247,cs),
(-1615,-233,o),
(-1226,-622,o),
(-746,-622,cs),
(-274,-622,o),
(68,-257,o),
(392,100,c)
);
}
);
width = 815;
},
{
layerId = "EECBB25E-CCC9-4EB7-9066-53ACD40459CA";
shapes = (
{
closed = 1;
nodes = (
(67,0,l),
(264,0,l),
(264,278,ls),
(264,374,o),
(300,453,o),
(347,453,cs),
(379,453,o),
(384,421,o),
(384,329,cs),
(384,0,l),
(585,0,l),
(585,278,ls),
(585,374,o),
(621,453,o),
(668,453,cs),
(700,453,o),
(705,421,o),
(705,329,cs),
(705,184,ls),
(705,-186,o),
(1014,-396,o),
(1401,-396,cs),
(1732,-396,o),
(1999,-130,o),
(1999,201,cs),
(1999,526,o),
(1736,789,o),
(1411,789,cs),
(1177,789,o),
(976,663,o),
(783,485,c),
(793,483,l),
(984,658,o),
(1182,783,o),
(1411,783,cs),
(1732,783,o),
(1993,522,o),
(1993,201,cs),
(1993,-120,o),
(1732,-380,o),
(1411,-380,cs),
(1139,-380,o),
(906,-273,o),
(906,134,cs),
(906,295,ls),
(906,414,o),
(881,500,o),
(750,500,cs),
(621,500,o),
(591,385,o),
(583,353,c),
(573,444,o),
(535,500,o),
(429,500,cs),
(297,500,o),
(269,379,o),
(261,351,cs),
(257,339,o),
(253,344,o),
(253,351,cs),
(253,500,l),
(178,487,o),
(94,481,o),
(-10,481,c),
(-10,473,l),
(46,473,o),
(67,468,o),
(67,416,cs)
);
},
{
closed = 1;
nodes = (
(395,17,l),
(96,-310,o),
(-227,-616,o),
(-658,-616,cs),
(-1134,-616,o),
(-1521,-229,o),
(-1521,247,cs),
(-1521,723,o),
(-1134,1110,o),
(-658,1110,cs),
(-447,1110,o),
(-253,1034,o),
(-103,907,c),
(-98,911,l),
(-249,1039,o),
(-445,1116,o),
(-658,1116,cs),
(-1138,1116,o),
(-1527,727,o),
(-1527,247,cs),
(-1527,-233,o),
(-1138,-622,o),
(-658,-622,cs),
(-225,-622,o),
(99,-315,o),
(400,12,c)
);
}
);
width = 966;
}
);
},
